<svg xmlns="http://www.w3.org/2000/svg" xmlns:osb="http://www.openswatchbook.org/uri/2009/osb" xmlns:svg="http://www.w3.org/2000/svg" id="svg30571" width="22" height="22" version="1.1" viewBox="0 0 22 22"><defs id="defs30573"><linearGradient id="linearGradient19282" gradientTransform="matrix(1.2178615,0,0,1.043881,356.69172,1794.4958)" osb:paint="solid"><stop id="stop19284" offset="0" stop-color="#666" stop-opacity="1"/></linearGradient></defs><metadata id="metadata30576"/><g id="layer1" transform="translate(0,-1030.3622)"><g id="g4258"><rect id="rect4249" width="22" height="22" x="0" y="1030.362" fill="#000" fill-opacity="1" stroke-dasharray="none" stroke-miterlimit="4" stroke-width="1.037" opacity="0"/><g id="g4247"><rect id="rect5996-2-1-0-7-8-0-9" width="20" height="2" x="-22" y="1049.362" fill="#000" fill-opacity="1" stroke="none" stroke-dasharray="none" stroke-miterlimit="4" stroke-opacity="1" stroke-width=".822" color="#555753" display="inline" overflow="visible" transform="scale(-1,1)" visibility="visible" style="marker:none"/><rect id="rect5996-2-1-0-7-5-7-64" width="13" height="2.001" x="-22" y="1043.361" fill="#000" fill-opacity="1" stroke="none" stroke-dasharray="none" stroke-miterlimit="4" stroke-opacity="1" stroke-width=".663" color="#555753" display="inline" overflow="visible" transform="scale(-1,1)" visibility="visible" style="marker:none"/><rect id="rect5996-2-1-0-4-1-0" width="13" height="2.001" x="-22" y="1037.361" fill="#000" fill-opacity="1" stroke="none" stroke-dasharray="none" stroke-miterlimit="4" stroke-opacity="1" stroke-width=".663" color="#555753" display="inline" overflow="visible" transform="scale(-1,1)" visibility="visible" style="marker:none"/><rect id="rect5996-2-1-0-4-1-0-9" width="20" height="2" x="-22" y="1031.362" fill="#000" fill-opacity="1" stroke="none" stroke-dasharray="none" stroke-miterlimit="4" stroke-opacity="1" stroke-width=".822" color="#555753" display="inline" overflow="visible" transform="scale(-1,1)" visibility="visible" style="marker:none"/><path id="path17259-0-7-2-6" fill="#ff9753" fill-opacity="1" stroke="#ff5000" stroke-dasharray="none" stroke-miterlimit="4" stroke-opacity="1" stroke-width=".649" d="m 0.32465065,1036.6869 v 1.1689 c 0,0.3 0.15483486,0.6175 0.37259229,0.84 l 3.20464106,2.6663 -3.20464106,2.6668 c -0.21775743,0.2224 -0.37259229,0.5398 -0.37259229,0.8398 v 1.1689 c 0.39744067,0 0.79501505,-1e-4 1.19245555,-1e-4 0.3689854,0 0.6586161,-0.1048 0.8942751,-0.3286 1.68929,-1.2541 3.3785797,-3.0925 5.067736,-4.3468 l -5.067736,-4.3467 c -0.235659,-0.2231 -0.5252897,-0.3285 -0.8942751,-0.3285 -0.3974405,0 -0.79501488,0 -1.19245555,0 z" color="#555753" direction="ltr" display="inline" enable-background="accumulate" font-family="Bitstream Vera Sans" font-size="medium" font-stretch="normal" font-style="normal" font-variant="normal" font-weight="normal" letter-spacing="normal" overflow="visible" text-anchor="start" text-decoration="none" visibility="visible" word-spacing="normal" writing-mode="lr-tb" style="line-height:normal;-inkscape-font-specification:'Bitstream Vera Sans';text-indent:0;text-align:start;text-decoration-line:none;text-transform:none;marker:none"/></g></g></g></svg>