<svg xmlns="http://www.w3.org/2000/svg" xmlns:svg="http://www.w3.org/2000/svg" xmlns:xlink="http://www.w3.org/1999/xlink" id="svg2" width="16" height="16" version="1.1" viewBox="0 0 16 16"><metadata id="metadata90"/><defs id="defs7386"><linearGradient id="linearGradient5148"><stop id="stop5150" stop-color="#d0d0d0"/><stop id="stop5152" offset="1" stop-color="#ececec"/></linearGradient><linearGradient id="linearGradient7321" x1="83.032" x2="66.311" y1="40.924" y2="22.766" gradientTransform="matrix(0.3410129,0,0,0.39513284,572.96639,416.15408)" gradientUnits="userSpaceOnUse" xlink:href="#linearGradient5148"/><linearGradient id="linearGradient4200" x1="3" x2="22.063" y1="14.594" y2="14.594" gradientUnits="userSpaceOnUse" xlink:href="#linearGradient3845"/><linearGradient id="linearGradient3845"><stop id="stop3847" offset="0" stop-color="#f0f1ee" stop-opacity="1"/><stop id="stop3849" offset="1" stop-color="#d3d7cf" stop-opacity="1"/></linearGradient><radialGradient id="radialGradient4196" cx="25.053" cy="39.593" r="15.757" fx="25.053" fy="39.593" gradientTransform="matrix(0.348468,0,0,0.348468,15.64542,17.02404)" gradientUnits="userSpaceOnUse" xlink:href="#aigrd2"/><radialGradient id="aigrd2" cx="25.053" cy="39.593" r="15.757" fx="25.053" fy="39.593" gradientTransform="matrix(0.348468,0,0,0.348468,15.64542,17.02404)" gradientUnits="userSpaceOnUse"><stop id="stop8602" offset="0" stop-color="#777" stop-opacity="1"/><stop id="stop8604" offset="1" stop-color="#000"/></radialGradient><linearGradient id="linearGradient4208" x1="7.419" x2="19.764" y1="9.114" y2="33.509" gradientUnits="userSpaceOnUse" xlink:href="#linearGradient4176"/><linearGradient id="linearGradient4176"><stop id="stop4178" offset="0" stop-color="#fff" stop-opacity="1"/><stop id="stop4180" offset="1" stop-color="#fff" stop-opacity="0"/></linearGradient></defs><g id="g4316"><g id="g19"><g id="g3998" transform="matrix(1.0047718,0,0,1.0477684,0.01157618,-3.8010831)"><rect stroke-miterlimit="10" style="marker:none" id="rect4273-3" width="11.827" height="9.119" x="7.03" y="10.423" fill="url(#linearGradient7321)" fill-opacity="1" fill-rule="evenodd" stroke="#9b9c98" stroke-dasharray="none" stroke-dashoffset="0" stroke-linecap="round" stroke-linejoin="round" stroke-opacity="1" stroke-width="1.004" marker-end="none" marker-mid="none" marker-start="none" color="#000" display="inline" opacity="1" overflow="visible" transform="matrix(1,0,-0.33324929,0.94283875,0,0)" visibility="visible"/><rect id="rect5156-3" width="9.632" height="5.793" x="8.177" y="11.497" fill="#d3d7cf" fill-opacity="1" fill-rule="evenodd" stroke="#fff" stroke-dasharray="none" stroke-dashoffset="0" stroke-linecap="butt" stroke-linejoin="miter" stroke-miterlimit="10" stroke-opacity="1" stroke-width="1.065" marker-end="none" marker-mid="none" marker-start="none" color="#000" display="inline" opacity="1" overflow="visible" ry="0" transform="matrix(1,0,-0.33197498,0.94328819,0,0)" visibility="visible" style="marker:none"/></g></g><g id="g4994" transform="matrix(0.49801231,0,0,0.49335781,-1.2407168,-2.21592)"><path id="path3826" fill="url(#linearGradient4200)" fill-opacity="1" fill-rule="evenodd" stroke="#888a85" stroke-dasharray="none" stroke-dashoffset="0" stroke-linecap="butt" stroke-linejoin="miter" stroke-miterlimit="4" stroke-opacity="1" stroke-width="2.017" marker-end="none" marker-mid="none" marker-start="none" d="m 3.5000001,5.5 v 9.75 c 0,3.467351 5.433283,7.103424 8.9999999,8.4375 3.473888,-1.240724 9.0625,-4.420893 9.0625,-8.3125 V 5.5 Z" color="#000" display="inline" opacity="1" overflow="visible" visibility="visible" style="marker:none"/><path id="path3832" fill="#85907a" fill-opacity="1" fill-rule="evenodd" stroke="none" stroke-dasharray="none" stroke-dashoffset="0" stroke-linecap="butt" stroke-linejoin="miter" stroke-miterlimit="4" stroke-opacity="1" stroke-width="1" marker-end="none" marker-mid="none" marker-start="none" d="m 12.3125,6 v 16.983915 c 0.07932,0.03108 0.172488,0.06496 0.25,0.09375 C 15.79598,21.930741 21,18.987562 21,15.390165 V 6 Z" color="#000" display="inline" opacity=".263" overflow="visible" visibility="visible" style="marker:none"/><path id="path3828" fill="#000" fill-opacity="1" fill-rule="evenodd" stroke="none" stroke-dasharray="none" stroke-dashoffset="0" stroke-linecap="butt" stroke-linejoin="miter" stroke-miterlimit="4" stroke-opacity="1" stroke-width="1" marker-end="none" marker-mid="none" marker-start="none" d="m 14.416141,10.591869 v 2.512454 l 1.234743,-1.642759 2.944388,-0.676429 z" color="#000" display="inline" opacity=".284" overflow="visible" visibility="visible" style="marker:none"/><path id="path3830" fill="#000" fill-opacity="1" fill-rule="evenodd" stroke="none" stroke-dasharray="none" stroke-dashoffset="0" stroke-linecap="butt" stroke-linejoin="miter" stroke-miterlimit="4" stroke-opacity="1" stroke-width="1" marker-end="none" marker-mid="none" marker-start="none" d="m 10.528413,10.591869 v 2.457835 L 9.3230695,11.442658 6.4487874,10.780934 Z" color="#000" display="inline" opacity=".284" overflow="visible" visibility="visible" style="marker:none"/><g id="g4192" transform="matrix(1.532984,0,0,1,-24.74082,-12.14934)"><path id="path2659" fill="#fff" fill-opacity="1" fill-rule="nonzero" stroke="none" stroke-dasharray="none" stroke-dashoffset="0" stroke-linecap="butt" stroke-linejoin="miter" stroke-miterlimit="4" stroke-opacity="1" stroke-width="1" marker-end="none" marker-mid="none" marker-start="none" d="m 27.845738,27.643149 c -0.840915,1.456507 -1.824163,2.506196 -3.57449,2.506196 -1.700531,0 -2.945405,-1.209798 -3.722333,-2.555477 0.710712,0.851913 1.751523,1.830522 3.648412,1.830522 2.266495,0 2.662793,-0.810358 3.648411,-1.781241 z" color="#000" display="inline" opacity=".36" overflow="visible" visibility="visible" style="marker:none"/><path id="path8606" fill="url(#radialGradient4196)" fill-rule="nonzero" stroke="none" stroke-miterlimit="4" d="m 27.845738,27.446026 c -0.840915,1.456507 -1.824163,2.506196 -3.57449,2.506196 -1.700531,0 -2.945405,-1.209798 -3.722333,-2.555477 0.710712,0.851913 1.751523,1.830522 3.648412,1.830522 2.266495,0 2.662793,-0.810357 3.648411,-1.781241 z"/></g><path id="path4198" fill="none" fill-opacity="1" fill-rule="evenodd" stroke="url(#linearGradient4208)" stroke-dasharray="none" stroke-dashoffset="0" stroke-linecap="butt" stroke-linejoin="miter" stroke-miterlimit="4" stroke-opacity="1" stroke-width="2.306" marker-end="none" marker-mid="none" marker-start="none" d="M 4.5605469,6.5605469 V 15.25 c 0,1.179663 1.0921648,2.790509 2.7832031,4.205078 1.5823226,1.323627 3.567306,2.420654 5.173828,3.06836 1.591013,-0.606071 3.573638,-1.585998 5.16211,-2.832032 1.705009,-1.337448 2.822265,-2.878329 2.822265,-4.316406 V 6.5605469 Z" color="#000" display="inline" opacity="1" overflow="visible" transform="matrix(0.874493,0,0,0.874517,1.572766,1.82538)" visibility="visible" xlink:href="#path3826" style="marker:none"/></g></g></svg>