<svg xmlns="http://www.w3.org/2000/svg" xmlns:svg="http://www.w3.org/2000/svg" xmlns:xlink="http://www.w3.org/1999/xlink" id="svg11300" width="16" height="16" version="1.0" viewBox="0 0 16 16"><metadata id="metadata4"/><g id="layer1"><g id="g4236-3-8" display="inline" transform="matrix(0.76035198,0,0,0.84022277,-10.008975,-16.786639)"><path id="path3832-5-8" fill="none" stroke="#ce5c00" stroke-dasharray="none" stroke-linecap="round" stroke-linejoin="round" stroke-miterlimit="4" stroke-opacity="1" stroke-width="3" d="m 23.5,21.5 v 1" display="inline"/><path id="path3834-2-9" fill="#fcaf3e" stroke="#fcaf3e" stroke-linecap="round" stroke-linejoin="miter" stroke-opacity="1" stroke-width="1" d="m 23.5,21.5 v 1" display="inline"/><path id="path3832-5-5-8" fill="none" stroke="#ce5c00" stroke-dasharray="none" stroke-linecap="round" stroke-linejoin="round" stroke-miterlimit="4" stroke-opacity="1" stroke-width="3" d="m 23.5,26.5 v 1" display="inline"/><path id="path3834-2-2-9" fill="#fcaf3e" stroke="#fcaf3e" stroke-linecap="round" stroke-linejoin="miter" stroke-opacity="1" stroke-width="1" d="m 23.5,26.5 v 1" display="inline"/><path id="path3832-5-3-5" fill="none" stroke="#ce5c00" stroke-dasharray="none" stroke-linecap="round" stroke-linejoin="round" stroke-miterlimit="4" stroke-opacity="1" stroke-width="3" d="m 23.5,31.5 v 1" display="inline"/><path id="path3834-2-6-5" fill="#fcaf3e" stroke="#fcaf3e" stroke-linecap="round" stroke-linejoin="miter" stroke-opacity="1" stroke-width="1" d="m 23.5,31.5 v 1" display="inline"/><path id="path3832-5-3-5-3" fill="none" stroke="#ce5c00" stroke-dasharray="none" stroke-linecap="round" stroke-linejoin="round" stroke-miterlimit="4" stroke-opacity="1" stroke-width="3" d="m 23.5,36.5 v 1" display="inline"/><path id="path3834-2-6-5-8" fill="#fcaf3e" stroke="#fcaf3e" stroke-linecap="round" stroke-linejoin="miter" stroke-opacity="1" stroke-width="1" d="m 23.5,36.5 v 1" display="inline"/></g><g id="g4920" transform="matrix(0.74802446,0,0,0.84209548,-103.21153,-15.157758)"><path id="path4570-8-9" fill="none" stroke="#5c3566" stroke-dasharray="none" stroke-dashoffset="0" stroke-linecap="round" stroke-linejoin="miter" stroke-miterlimit="4" stroke-opacity="1" stroke-width="3" d="m 143.5,19.5 c -0.5,0 -4,0.5 -4,3.5 0,3.5 5,4.5 5,9 0,2 -2,3.5 -5,3.5" color="#000" display="inline" enable-background="accumulate" overflow="visible" visibility="visible" style="marker:none"/><path id="path4570-8" fill="none" stroke="#ad7fa8" stroke-dasharray="none" stroke-dashoffset="0" stroke-linecap="round" stroke-linejoin="miter" stroke-miterlimit="4" stroke-opacity="1" stroke-width="1" d="m 143.5,19.5 c -0.5,0 -4,0.5 -4,3.5 0,3.5 5,4.5 5,9 0,2 -2,3.5 -5,3.5" color="#000" display="inline" enable-background="accumulate" overflow="visible" visibility="visible" style="marker:none"/></g><use id="use4924" width="224" height="80" x="0" y="0" opacity=".667" transform="matrix(-1,0,0,1,16.000041,9.8925678e-5)" xlink:href="#g4920"/></g></svg>