<svg xmlns="http://www.w3.org/2000/svg" xmlns:osb="http://www.openswatchbook.org/uri/2009/osb" xmlns:svg="http://www.w3.org/2000/svg" xmlns:xlink="http://www.w3.org/1999/xlink" id="svg2" width="16" height="16" version="1.1" viewBox="0 0 16 16"><metadata id="metadata90"/><defs id="defs7386"><linearGradient id="linearGradient19282" gradientTransform="matrix(0,-735328.32,170712.69,0,2464326300,577972450)" osb:paint="solid"><stop id="stop19284" stop-color="#b4b4b4"/></linearGradient><linearGradient id="linearGradient6057" x1="231.55" x2="320.7" gradientTransform="matrix(0.01502614,0,0,0.01468232,2.9686133,1037.3257)" gradientUnits="userSpaceOnUse" osb:paint="gradient"><stop id="stop6053" stop-color="#a11f7c"/><stop id="stop6055" offset="1" stop-color="#541f31" stop-opacity=".984"/></linearGradient><linearGradient id="linearGradient11621"><stop id="stop11623" offset="0" stop-color="#b1b1b1" stop-opacity="1"/><stop id="stop11629" offset=".2" stop-color="#dfdfdf" stop-opacity="1"/><stop id="stop11625" offset="1" stop-color="#565656" stop-opacity="1"/></linearGradient><linearGradient id="linearGradient11627" x1="23.991" x2="23.991" y1="6.584" y2="15.069" gradientTransform="translate(560.00744,146.5101)" gradientUnits="userSpaceOnUse" xlink:href="#linearGradient11621"/><linearGradient id="linearGradient5487" osb:paint="solid"><stop id="stop5485" offset="0" stop-color="#888a85" stop-opacity="1"/></linearGradient></defs><g id="stock" display="inline" transform="translate(-198.97084,4.2792012)"><g id="gimp-controller-wheel" transform="translate(198.97084,-4.2792011)"><path id="path5634-1" fill="#c1c1c1" fill-opacity="1" fill-rule="nonzero" stroke="none" stroke-width=".261" d="m 0.39504783,4.8454206 c -0.566838,1.459106 -0.357118,3.1860669 -0.357118,4.9542394 0,6.20034 0,6.20034 0,6.20034 L 15.955854,16 c 0,0 0,0 0,-6.20034 0,-1.6800602 0.218345,-3.5155986 -0.316154,-4.9867796 -2.264555,-6.233074 -12.6642062,-6.609821 -15.24465217,0.03254 z" color="#000" display="inline" enable-background="accumulate" overflow="visible" visibility="visible" style="marker:none"/><path id="path5634-0" fill="#555753" fill-opacity="1" fill-rule="nonzero" stroke="none" stroke-width=".246" d="m 0.72337794,5.0973259 c -0.53716321,1.3668054 -0.33842253,2.9845215 -0.3384224,4.6408423 3.7e-7,5.8081168 3.7e-7,5.8081168 3.7e-7,5.8081168 l 15.08459309,0 c 0,0 0,0 0,-5.8081168 0,-1.5737823 0.206914,-3.2932075 -0.299603,-4.671324 C 13.023945,-0.77193529 3.1687329,-1.12485 0.72337794,5.0973259 Z" color="#000" display="inline" enable-background="accumulate" overflow="visible" visibility="visible" style="marker:none"/><ellipse id="path11617" cx="8.027" cy="8.38" fill="#eeeeec" fill-opacity="1" fill-rule="evenodd" stroke="none" stroke-dasharray="none" stroke-dashoffset="0" stroke-linecap="butt" stroke-linejoin="miter" stroke-miterlimit="4" stroke-opacity="1" stroke-width="1.677" marker-end="none" marker-mid="none" marker-start="none" color="#000" display="inline" font-family="Bitstream Vera Sans" opacity="1" overflow="visible" rx="4.306" ry="6.731" visibility="visible" style="marker:none"/><ellipse stroke-width=".5" style="marker:none" id="path11619" cx="8.003" cy="6.041" fill="url(#linearGradient11627)" fill-opacity="1" fill-rule="evenodd" stroke="#595959" stroke-dasharray="none" stroke-dashoffset="0" stroke-linecap="butt" stroke-linejoin="miter" stroke-miterlimit="4" stroke-opacity="1" marker-end="none" marker-mid="none" marker-start="none" color="#000" display="inline" font-family="Bitstream Vera Sans" opacity="1" overflow="visible" rx="2.172" ry="4.748" visibility="visible"/></g></g></svg>