<svg xmlns="http://www.w3.org/2000/svg" xmlns:svg="http://www.w3.org/2000/svg" xmlns:xlink="http://www.w3.org/1999/xlink" id="svg2" width="16" height="16.045" version="1.1" viewBox="0 0 16 16.045"><metadata id="metadata90"/><defs id="defs7386"><linearGradient id="linearGradient8340"><stop id="stop8342" stop-color="#fff" stop-opacity=".796"/><stop id="stop8344" offset="1" stop-color="#fff" stop-opacity=".216"/></linearGradient><linearGradient id="linearGradient6963"><stop id="stop6965" stop-color="#696969"/><stop id="stop6967" offset="1"/></linearGradient><linearGradient id="linearGradient3096"><stop id="stop3098" stop-color="#424242"/><stop id="stop3100" offset="1" stop-color="#777"/></linearGradient><linearGradient id="linearGradient9766"><stop id="stop9768" stop-color="#6194cb"/><stop id="stop9770" offset="1" stop-color="#729fcf"/></linearGradient><linearGradient id="linearGradient2966"><stop id="stop2968" stop-color="#ffd1d1"/><stop id="stop3006" offset=".5" stop-color="#ff1d1d"/><stop id="stop2970" offset="1" stop-color="#6f0000"/></linearGradient><linearGradient id="linearGradient2974-8"><stop id="stop2976-4" stop-color="#c1c1c1"/><stop id="stop2978-8" offset="1" stop-color="#acacac"/></linearGradient><linearGradient id="linearGradient2994"><stop id="stop2996"/><stop id="stop2998" offset="1" stop-color="#c9c9c9"/></linearGradient><linearGradient id="linearGradient2984"><stop id="stop2986" stop-color="#e7e2b8"/><stop id="stop2988-7" offset="1" stop-color="#e7e2b8" stop-opacity="0"/></linearGradient><linearGradient id="linearGradient6951-1"><stop id="stop6953-7" offset="0" stop-color="#6e3d09" stop-opacity="1"/><stop id="stop6959-6" offset=".242" stop-color="#ea8113" stop-opacity="1"/><stop id="stop6961-0" offset=".621" stop-color="#5c3307" stop-opacity="1"/><stop id="stop6955-99" offset="1" stop-color="#e07c12" stop-opacity="1"/></linearGradient><linearGradient id="linearGradient6939-9"><stop id="stop6941-8" offset="0" stop-color="#bdbdbd" stop-opacity="1"/><stop id="stop6947-6" offset=".333" stop-color="#e2e2e2" stop-opacity="1"/><stop id="stop6949-8" offset=".667" stop-color="#a3a3a3" stop-opacity="1"/><stop id="stop6943-8" offset="1" stop-color="#ddd" stop-opacity="1"/></linearGradient><linearGradient id="linearGradient4034"><stop id="stop4036" offset="0" stop-color="#6e3d09" stop-opacity="1"/><stop id="stop4038" offset=".21" stop-color="#ea8113" stop-opacity="1"/><stop id="stop4040" offset=".406" stop-color="#5c3307" stop-opacity="1"/><stop id="stop4042" offset="1" stop-color="#e07c12" stop-opacity="1"/></linearGradient><linearGradient id="linearGradient10019-8" x1="18.113" x2="15.515" y1="31.368" y2="6.18" gradientTransform="matrix(0.3907116,0,0,0.3907116,-1.1917154,32.363712)" gradientUnits="userSpaceOnUse" xlink:href="#linearGradient3096"/><linearGradient id="linearGradient10593" x1="6.155" x2="9.604" y1="3.449" y2="8.987" gradientUnits="userSpaceOnUse" xlink:href="#0-5"/><linearGradient id="0-5" x1="6.155" x2="9.604" y1="3.449" y2="8.987" gradientUnits="userSpaceOnUse"><stop id="stop19-4" stop-color="gray"/><stop id="stop21-8" offset="1" stop-color="#4d4d4d"/></linearGradient><linearGradient id="linearGradient10597" x1="2.979" x2="6" y1="3.147" y2="7.842" gradientUnits="userSpaceOnUse" xlink:href="#1-6"/><linearGradient id="1-6" x1="2.979" x2="6" y1="3.147" y2="7.842" gradientUnits="userSpaceOnUse"><stop id="stop24-3-1" stop-color="#fff"/><stop id="stop26-7-8" offset="1" stop-color="gray"/></linearGradient><linearGradient id="linearGradient10599" x1="1.721" x2="8.313" y1="4.02" y2="-.101" gradientUnits="userSpaceOnUse" xlink:href="#2-9"/><linearGradient id="2-9" x1="1.721" x2="8.313" y1="4.02" y2="-.101" gradientUnits="userSpaceOnUse"><stop id="stop14-8" stop-color="#acacac"/><stop id="stop16-6-5" offset="1" stop-color="#6b6b6b" stop-opacity=".882"/></linearGradient><linearGradient id="linearGradient10025-7" x1="8.51" x2="14.391" y1="12.352" y2="12.352" gradientUnits="userSpaceOnUse" xlink:href="#linearGradient6951-1"/><linearGradient id="linearGradient10021-9" x1="-.371" x2="14.168" y1="17.926" y2="10.166" gradientUnits="userSpaceOnUse" xlink:href="#linearGradient4034"/><linearGradient id="linearGradient10023-8" x1="8.51" x2="14.391" y1="12.352" y2="12.352" gradientUnits="userSpaceOnUse" xlink:href="#linearGradient6939-9"/><linearGradient id="linearGradient10027-4" x1="28.059" x2="33.437" y1="18.868" y2="23.743" gradientTransform="translate(-3.90695,-1.802856)" gradientUnits="userSpaceOnUse" xlink:href="#linearGradient6951-1"/><linearGradient id="linearGradient10029-7" x1="19.395" x2="23.109" y1="30.001" y2="33.439" gradientTransform="translate(-3.90695,-1.802856)" gradientUnits="userSpaceOnUse" xlink:href="#linearGradient6939-9"/><radialGradient id="radialGradient6969-8-0-0" cx="15.415" cy="35.357" r="7.579" fx="15.415" fy="35.357" gradientTransform="matrix(0.994655,0,0,0.969322,-4.583017,0.165919)" gradientUnits="userSpaceOnUse" xlink:href="#linearGradient6963"/><linearGradient id="linearGradient10031-1" x1="13.236" x2="7.752" y1="37.752" y2="42.282" gradientTransform="matrix(0.852298,0,0,0.852298,-1.675107,3.753977)" gradientUnits="userSpaceOnUse" xlink:href="#linearGradient8340"/><linearGradient id="linearGradient10033-7" x1="48.906" x2="50.988" y1="17.376" y2="22.251" gradientTransform="matrix(0.00525957,0.999987,0.999987,-0.00525957,42.9955,-2.496241)" gradientUnits="userSpaceOnUse" xlink:href="#linearGradient2966"/><linearGradient id="linearGradient10035-0" x1="46" x2="47.688" y1="19.813" y2="22.625" gradientTransform="matrix(0.00525957,0.999987,0.999987,-0.00525957,42.99552,-2.496241)" gradientUnits="userSpaceOnUse" xlink:href="#linearGradient2974-8"/><radialGradient id="radialGradient6347-4-0-5" cx="29.053" cy="27.641" r="3.241" fx="29.053" fy="27.641" gradientTransform="matrix(0.0153767,2.923527,2.029691,-0.01067544,20.39098,-69.72665)" gradientUnits="userSpaceOnUse" xlink:href="#linearGradient2984"/><linearGradient id="linearGradient10037-5" x1="25.719" x2="25.515" y1="31.047" y2="30.703" gradientTransform="matrix(0.00525957,0.999987,0.999987,-0.00525957,48.6929,-14.14491)" gradientUnits="userSpaceOnUse" xlink:href="#linearGradient2994"/><linearGradient id="linearGradient10039-4" x1="22.176" x2="22.065" y1="36.988" y2="32.05" gradientTransform="matrix(0.3907116,0,0,0.3907116,-1.1917154,32.363712)" gradientUnits="userSpaceOnUse" xlink:href="#linearGradient9766"/><linearGradient id="linearGradient322-1-3-7" x1="13.036" x2="12.854" y1="32.567" y2="46.689" gradientTransform="matrix(0.51475824,0,0,0.31892069,-1.5353748,31.848689)" gradientUnits="userSpaceOnUse" xlink:href="#linearGradient8340"/></defs><g id="gimp-prefs-folders-tools-3" display="inline" transform="matrix(1,0,0,0.99717476,4.9942652e-8,-31.819122)"><path id="path216-5-5-2" fill="#fff" fill-opacity="1" fill-rule="nonzero" stroke="url(#linearGradient10019-8)" stroke-dasharray="none" stroke-linecap="round" stroke-linejoin="round" stroke-miterlimit="4" stroke-opacity="1" stroke-width=".391" d="m 0.57499669,47.479335 c 0.008516,0.162654 0.17969018,0.32531 0.34234522,0.32531 H 13.157172 c 0.162654,0 0.316794,-0.162656 0.308278,-0.32531 L 13.099571,36.841533 c -0.0085,-0.162654 -0.179687,-0.325312 -0.342342,-0.325312 H 7.5721451 c -0.1895174,0 -0.482323,-0.123305 -0.5476386,-0.432374 L 6.7856289,34.95349 C 6.7248854,34.666054 6.4409377,34.547976 6.2782829,34.547976 H 0.50401104 c -0.16265824,0 -0.31679709,0.162655 -0.30828118,0.32531 z"/><g id="gimp-tools-0-9" transform="matrix(0.74999834,0,0,0.74999834,3.5707768,-745.31519)"><g id="g4052-0-5-1" transform="matrix(0.85012838,0.51995305,-0.50889763,0.82865467,4.4273286,1032.2718)"><path id="path28-0-9-3" fill="url(#linearGradient10593)" d="M 1.737,3.942 C 2.644,6.823 8.323,10.878 9.911,9.76 11.521,8.627 9.838,2.482 8.061,0.01"/><path id="path30-0-9-9" fill="url(#linearGradient10597)" d="M 1.737,3.943 C 2.131,5.194 3.692,6.655 5.344,8.12 5.686,7.322 6.587,5.694 9.901,4.278 9.29,2.606 8.703,0.904 8.061,0.01"/><path id="path32-8-0-7" fill="url(#linearGradient10599)" d="M 1.737,3.943 C 1.748,3.977 1.76,4.011 1.773,4.046 L 8.119,0.093 C 8.1,0.065 8.081,0.036 8.062,0.01 L 1.738,3.943"/><g id="g34-9-6-2" fill="url(#linearGradient10025-7)" fill-opacity="1" fill-rule="evenodd"><path id="path36-2-9-1" fill="url(#linearGradient10021-9)" fill-opacity="1" stroke="#673907" stroke-dasharray="none" stroke-miterlimit="4" stroke-opacity="1" stroke-width=".5" d="m 1.838,13.01 h 2.466 v 7.101 H 1.838 Z" transform="matrix(0.84502,-0.53474,0.53474,0.84502,0,0)"/><path id="path38-1-6-8" fill="url(#linearGradient10023-8)" fill-opacity="1" d="m 12.201,11.868 c 1.044,1.533 1.92,2.756 1.697,2.908 -0.223,0.152 -0.911,-1.225 -1.955,-2.758 C 10.899,10.485 10.199511,9.4435112 10.422511,9.2915112 10.645511,9.1395112 11.157,10.334 12.201,11.868" opacity=".5"/></g></g><g id="g4000-7-1-0" transform="matrix(-0.07366747,0.35374785,-0.44735606,-0.04193851,19.042748,1037.5613)"><path id="path6937-99-8-4" fill="url(#linearGradient10027-4)" fill-opacity="1" fill-rule="nonzero" stroke="#673907" stroke-dasharray="none" stroke-dashoffset="0" stroke-linecap="round" stroke-linejoin="miter" stroke-miterlimit="4" stroke-opacity="1" stroke-width="1" marker-end="none" marker-mid="none" marker-start="none" d="m 19.651682,22.586735 4.065864,3.800698 c 7.187499,-7.062499 17.78306,-23.9772875 17.78306,-23.9772875 0.42949,-1.2244462 -1.087245,-1.99589286 -1.846352,-1.170495 0,0 -13.690073,14.0970855 -20.002572,21.3470845 z" color="#000" display="inline" opacity="1" overflow="visible" visibility="visible" style="marker:none"/><path id="path6935-5-1-2" fill="url(#linearGradient10029-7)" fill-opacity="1" fill-rule="nonzero" stroke="#888a85" stroke-dasharray="none" stroke-dashoffset="0" stroke-linecap="round" stroke-linejoin="miter" stroke-miterlimit="4" stroke-opacity="1" stroke-width="1" marker-end="none" marker-mid="none" marker-start="none" d="m 12.050285,32.813894 2.24632,1.93382 8.492766,-7.367031 0.275061,-0.705828 1.094405,-0.01782 c -0.4375,-1.5625 -2.941514,-4.383455 -4.816514,-4.383455 l 0.08202,1.090075 -0.669991,0.380027 -6.704066,9.070207 z" color="#000" display="inline" opacity="1" overflow="visible" visibility="visible" style="marker:none"/><path id="path6933-35-3-5" fill="url(#radialGradient6969-8-0-0)" fill-opacity="1" fill-rule="nonzero" stroke="none" stroke-dasharray="none" stroke-dashoffset="0" stroke-linecap="round" stroke-linejoin="miter" stroke-miterlimit="4" stroke-opacity="1" stroke-width=".2" marker-end="none" marker-mid="none" marker-start="none" d="m 1.757709,40.723915 c 6.6053126,0 11.618187,0.786601 12.567225,-4.019073 C 15.089727,32.832133 9.7646096,30.976482 7.1258026,34.433791 4.583799,37.76427 1.757709,40.723915 1.757709,40.723915 Z" color="#000" display="inline" opacity="1" overflow="visible" visibility="visible" style="marker:none"/><circle stroke-miterlimit="4" style="marker:none" id="path6971-69-0-1" cx="7.625" cy="37.75" r="1.25" fill="#fff" fill-opacity="1" fill-rule="nonzero" stroke="none" stroke-dasharray="none" stroke-dashoffset="0" stroke-linecap="round" stroke-linejoin="miter" stroke-opacity="1" stroke-width="1" marker-end="none" marker-mid="none" marker-start="none" color="#000" display="inline" opacity=".528" overflow="visible" transform="matrix(0.852298,0,0,0.852298,3.733554,2.575604)" visibility="visible"/><circle stroke-miterlimit="4" style="marker:none" id="path6983-6-5-4" cx="7.625" cy="37.75" r="1.25" fill="#fff" fill-opacity="1" fill-rule="nonzero" stroke="none" stroke-dasharray="none" stroke-dashoffset="0" stroke-linecap="round" stroke-linejoin="miter" stroke-opacity="1" stroke-width="1" marker-end="none" marker-mid="none" marker-start="none" color="#000" display="inline" opacity="1" overflow="visible" transform="matrix(0.787867,0,0,0.787867,14.26538,-4.723366)" visibility="visible"/><path id="path6985-5-8-6" fill="none" fill-opacity="1" fill-rule="nonzero" stroke="#fff" stroke-dasharray="none" stroke-dashoffset="0" stroke-linecap="round" stroke-linejoin="round" stroke-miterlimit="4" stroke-opacity="1" stroke-width="1" marker-end="none" marker-mid="none" marker-start="none" d="m 18.941438,26.398154 -5.303301,6.14299" color="#000" display="inline" opacity="1" overflow="visible" visibility="visible" style="marker:none"/><path id="path1571-3-2-1" fill="url(#linearGradient10031-1)" fill-opacity="1" fill-rule="nonzero" stroke="none" stroke-dasharray="none" stroke-dashoffset="0" stroke-linecap="round" stroke-linejoin="miter" stroke-miterlimit="4" stroke-opacity="1" stroke-width="1" marker-end="none" marker-mid="none" marker-start="none" d="m 3.0708872,40.068976 c 0,0 3.3411114,-1.641821 4.7648284,-4.086829 0.503707,-0.865037 1.644373,-0.126836 0.941666,0.734499 -1.517828,1.860458 -5.7064944,3.35233 -5.7064944,3.35233 z" color="#000" display="inline" opacity=".428" overflow="visible" visibility="visible" style="marker:none"/></g><g id="g6334-6-1-6" transform="matrix(0.4621043,0.11330868,-0.14037077,0.37900332,-20.860076,1026.0161)"><path id="path2960-3-2-8" fill="#cb9022" fill-opacity="1" fill-rule="evenodd" stroke="#5c410c" stroke-dasharray="none" stroke-dashoffset="0" stroke-linecap="butt" stroke-linejoin="miter" stroke-miterlimit="4" stroke-opacity="1" stroke-width="1" marker-end="none" marker-mid="none" marker-start="none" d="M 81.189325,8.8512115 75.593983,14.505723 60.324794,46.150492 c -1.23289,3.256532 3.40224,5.169682 5.012098,2.286172 L 80.231414,16.856367 Z" color="#000" display="inline" overflow="visible" visibility="visible" style="marker:none"/><path id="path2964-7-6-0" fill="url(#linearGradient10033-7)" fill-opacity="1" fill-rule="evenodd" stroke="none" stroke-dasharray="none" stroke-dashoffset="0" stroke-linecap="butt" stroke-linejoin="miter" stroke-miterlimit="4" stroke-opacity="1" stroke-width="1" marker-end="none" marker-mid="none" marker-start="none" d="m 63.226659,41.398 c 0,0 0.101309,1.436989 1.354252,1.992907 1.290792,0.572712 2.656215,-0.01397 2.656215,-0.01397 l -2.442255,5.044169 c 0,0 -0.873719,1.456649 -2.840262,0.671199 -1.93968,-0.774722 -1.17037,-2.681384 -1.17037,-2.681384 l 2.44242,-5.01292 z" color="#000" display="inline" overflow="visible" visibility="visible" style="marker:none"/><path id="path2962-5-9-3" fill="url(#linearGradient10035-0)" fill-opacity="1" fill-rule="evenodd" stroke="none" stroke-dasharray="none" stroke-dashoffset="0" stroke-linecap="butt" stroke-linejoin="miter" stroke-miterlimit="4" stroke-opacity="1" stroke-width="1" marker-end="none" marker-mid="none" marker-start="none" d="m 63.226659,41.398 c 0,0 0.101309,1.436989 1.354252,1.992907 1.290792,0.572712 2.656215,-0.01397 2.656215,-0.01397 l -0.989468,2.005234 c 0,0 -1.3145,0.833957 -2.686314,0.232882 -1.409519,-0.617596 -1.324153,-2.211818 -1.324153,-2.211818 z" color="#000" display="inline" overflow="visible" visibility="visible" style="marker:none"/><path id="path2982-9-8-0" fill="url(#radialGradient6347-4-0-5)" fill-opacity="1" fill-rule="evenodd" stroke="none" stroke-dasharray="none" stroke-dashoffset="0" stroke-linecap="butt" stroke-linejoin="miter" stroke-miterlimit="4" stroke-opacity="1" stroke-width="1" marker-end="none" marker-mid="none" marker-start="none" d="m 80.47809,10.282021 -4.476274,4.52361 c 0.820379,1.495707 2.168221,2.269879 3.728563,1.855416 z" color="#000" display="inline" overflow="visible" visibility="visible" style="marker:none"/><path id="path2992-0-8-3" fill="url(#linearGradient10037-5)" fill-opacity="1" fill-rule="evenodd" stroke="none" stroke-dasharray="none" stroke-dashoffset="0" stroke-linecap="butt" stroke-linejoin="miter" stroke-miterlimit="4" stroke-opacity="1" stroke-width="1" marker-end="none" marker-mid="none" marker-start="none" d="m 79.078925,11.63315 1.585183,-1.6333612 -0.300169,2.3453632 c -0.71759,0.222527 -1.063472,-0.181909 -1.285014,-0.712002 z" color="#000" display="inline" overflow="visible" visibility="visible" style="marker:none"/><path id="path3002-0-6-9" fill="#fff" fill-opacity=".364" fill-rule="evenodd" stroke="none" stroke-dasharray="none" stroke-dashoffset="0" stroke-linecap="butt" stroke-linejoin="miter" stroke-miterlimit="4" stroke-opacity="1" stroke-width="1" marker-end="none" marker-mid="none" marker-start="none" d="M 75.970567,14.805795 77.228768,16.3617 64.439998,43.316362 C 63.581628,42.876439 63.348884,42.080316 63.26774,41.419121 Z" color="#000" display="inline" overflow="visible" visibility="visible" style="marker:none"/><path id="path3004-2-6-9" fill="#000" fill-opacity=".364" fill-rule="evenodd" stroke="none" stroke-dasharray="none" stroke-dashoffset="0" stroke-linecap="butt" stroke-linejoin="miter" stroke-miterlimit="4" stroke-opacity="1" stroke-width="1" marker-end="none" marker-mid="none" marker-start="none" d="m 79.792879,16.660719 -0.749004,0.191442 -12.549399,26.768391 c 0,0 0.61304,-0.113386 0.748205,-0.219818 z" color="#000" display="inline" overflow="visible" visibility="visible" style="marker:none"/></g><rect id="rect4207-6-5" width="15.36" height="15.328" x=".36" y="1036.642" fill="none" fill-opacity="1" fill-rule="nonzero" stroke="#3c3c3c" stroke-dasharray="none" stroke-dashoffset="0" stroke-linecap="round" stroke-linejoin="round" stroke-miterlimit="4" stroke-opacity="1" stroke-width=".559" clip-rule="nonzero" color="#000" color-interpolation="sRGB" color-interpolation-filters="linearRGB" color-rendering="auto" display="inline" enable-background="accumulate" image-rendering="auto" opacity="0" overflow="visible" shape-rendering="auto" text-rendering="auto" visibility="visible" style="isolation:auto;mix-blend-mode:normal;solid-color:#000;solid-opacity:1"/></g><path id="path233-5-1-3" fill="url(#linearGradient10039-4)" fill-opacity="1" fill-rule="nonzero" stroke="#3465a4" stroke-dasharray="none" stroke-dashoffset="0" stroke-linecap="butt" stroke-linejoin="round" stroke-miterlimit="4" stroke-opacity="1" stroke-width=".391" marker-end="none" marker-mid="none" marker-start="none" d="m 14.352172,47.80097 c 0.446933,-0.01722 0.766997,-0.428337 0.7998,-0.906844 0.309361,-4.512206 0.648332,-8.295569 0.648332,-8.295569 0.02819,-0.09669 -0.0656,-0.193389 -0.187597,-0.193389 H 2.1834977 c 0,0 -0.7229411,8.543648 -0.7229411,8.543648 -0.044758,0.383705 -0.1820746,0.705124 -0.60553886,0.853202 l 13.49715426,-0.0011 z" color="#000" display="block" visibility="visible" style="marker:none"/><path id="path304-3-3-0" fill="none" fill-opacity="1" fill-rule="evenodd" stroke="url(#linearGradient322-1-3-7)" stroke-linecap="round" stroke-linejoin="miter" stroke-opacity="1" stroke-width=".391" d="m 2.5670257,38.796357 12.8118623,0.02532 -0.614998,7.815005 c -0.03294,0.418652 -0.176085,0.55802 -0.731668,0.55802 -0.731218,0 -11.2048149,-0.01266 -12.26629,-0.01266 0.091269,-0.125344 0.1304022,-0.386266 0.130926,-0.392513 z" opacity=".466"/><rect id="rect3965-5-7-0" width="16" height="16" x="0" y="32" fill="#bebebe" fill-opacity="1" fill-rule="nonzero" stroke="none" stroke-dasharray="none" stroke-dashoffset="0" stroke-linecap="round" stroke-linejoin="miter" stroke-miterlimit="4" stroke-opacity="1" stroke-width=".493" clip-rule="nonzero" color="#000" color-interpolation="sRGB" color-interpolation-filters="linearRGB" color-rendering="auto" display="inline" enable-background="accumulate" image-rendering="auto" opacity="0" overflow="visible" shape-rendering="auto" text-rendering="auto" visibility="visible" style="isolation:auto;mix-blend-mode:normal;solid-color:#000;solid-opacity:1"/></g></svg>