<svg xmlns="http://www.w3.org/2000/svg" xmlns:svg="http://www.w3.org/2000/svg" id="svg11300" width="16" height="16" version="1.0" viewBox="0 0 16 16"><metadata id="metadata4"/><g id="layer1"><g id="g26517"><g id="gimp-tool-rect-select" display="inline" transform="translate(-41.000198,-217)"><rect id="rect74851" width="16" height="16" x="41" y="217" fill="none" stroke="none"/><rect id="rect74853" width="1" height="1" x="41" y="220" fill="#eeeeec" fill-opacity="1" stroke="none"/><rect id="rect74855" width="1" height="1" x="53" y="220" fill="#eeeeec" fill-opacity="1" stroke="none"/><rect id="rect74857" width="1" height="1" x="55" y="220" fill="#eeeeec" fill-opacity="1" stroke="none"/><rect id="rect74859" width="1" height="1" x="41" y="222" fill="#eeeeec" fill-opacity="1" stroke="none"/><rect id="rect74861" width="1" height="1" x="51" y="220" fill="#eeeeec" fill-opacity="1" stroke="none"/><rect id="rect74863" width="1" height="1" x="43" y="220" fill="#eeeeec" fill-opacity="1" stroke="none"/><rect id="rect74865" width="1" height="1" x="45" y="220" fill="#eeeeec" fill-opacity="1" stroke="none"/><rect id="rect74867" width="1" height="1" x="47" y="220" fill="#eeeeec" fill-opacity="1" stroke="none"/><rect id="rect74869" width="1" height="1" x="49" y="220" fill="#eeeeec" fill-opacity="1" stroke="none"/><rect id="rect74871" width="1" height="1" x="41" y="224" fill="#eeeeec" fill-opacity="1" stroke="none"/><rect id="rect74873" width="1" height="1" x="41" y="226" fill="#eeeeec" fill-opacity="1" stroke="none"/><rect id="rect74875" width="1" height="1" x="43" y="230" fill="#eeeeec" fill-opacity="1" stroke="none"/><rect id="rect74877" width="1" height="1" x="45" y="230" fill="#eeeeec" fill-opacity="1" stroke="none"/><rect id="rect74879" width="1" height="1" x="47" y="230" fill="#eeeeec" fill-opacity="1" stroke="none"/><rect id="rect74881" width="1" height="1" x="49" y="230" fill="#eeeeec" fill-opacity="1" stroke="none"/><rect id="rect74883" width="1" height="1" x="51" y="230" fill="#eeeeec" fill-opacity="1" stroke="none"/><rect id="rect74885" width="1" height="1" x="53" y="230" fill="#eeeeec" fill-opacity="1" stroke="none"/><rect id="rect74887" width="1" height="1" x="55" y="230" fill="#eeeeec" fill-opacity="1" stroke="none"/><rect id="rect74889" width="1" height="1" x="55" y="228" fill="#eeeeec" fill-opacity="1" stroke="none"/><rect id="rect74891" width="1" height="1" x="55" y="226" fill="#eeeeec" fill-opacity="1" stroke="none"/><rect id="rect74893" width="1" height="1" x="55" y="224" fill="#eeeeec" fill-opacity="1" stroke="none"/><rect id="rect74895" width="1" height="1" x="55" y="222" fill="#eeeeec" fill-opacity="1" stroke="none"/><rect id="rect74897" width="11" height="7" x="43" y="222" fill="#d3d7cf" fill-opacity="1" stroke="none" stroke-width="1.308"/><rect id="rect74899" width="1" height="1" x="41" y="228" fill="#eeeeec" fill-opacity="1" stroke="none"/><rect id="rect74901" width="1" height="1" x="41" y="230" fill="#eeeeec" fill-opacity="1" stroke="none"/></g><rect id="rect74853-5" width="1" height="1" x="3" y="3" fill="#2e3436" fill-opacity="1" stroke="none" display="inline"/><rect id="rect74853-5-1" width="1" height="1" x="1" y="3" fill="#2e3436" fill-opacity="1" stroke="none" display="inline"/><rect id="rect74853-5-0" width="1" height="1" x="5" y="3" fill="#2e3436" fill-opacity="1" stroke="none" display="inline"/><rect id="rect74853-5-4" width="1" height="1" x="7" y="3" fill="#2e3436" fill-opacity="1" stroke="none" display="inline"/><rect id="rect74853-5-2" width="1" height="1" x="9" y="3" fill="#2e3436" fill-opacity="1" stroke="none" display="inline"/><rect id="rect74853-5-9" width="1" height="1" x="11" y="3" fill="#2e3436" fill-opacity="1" stroke="none" display="inline"/><rect id="rect74853-5-8" width="1" height="1" x="13" y="3" fill="#2e3436" fill-opacity="1" stroke="none" display="inline"/><rect id="rect74853-5-12" width="1" height="1" x="0" y="12" fill="#2e3436" fill-opacity="1" stroke="none" display="inline"/><rect id="rect74853-5-12-0" width="1" height="1" x="0" y="10" fill="#2e3436" fill-opacity="1" stroke="none" display="inline"/><rect id="rect74853-5-12-3" width="1" height="1" x="0" y="8" fill="#2e3436" fill-opacity="1" stroke="none" display="inline"/><rect id="rect74853-5-12-02" width="1" height="1" x="0" y="6" fill="#2e3436" fill-opacity="1" stroke="none" display="inline"/><rect id="rect74853-5-12-2" width="1" height="1" x="0" y="4" fill="#2e3436" fill-opacity="1" stroke="none" display="inline"/><rect id="rect74853-5-12-37" width="1" height="1" x="1" y="13" fill="#2e3436" fill-opacity="1" stroke="none" display="inline"/><rect id="rect74853-5-12-37-4" width="1" height="1" x="3" y="13" fill="#2e3436" fill-opacity="1" stroke="none" display="inline"/><rect id="rect74853-5-12-37-0" width="1" height="1" x="5" y="13" fill="#2e3436" fill-opacity="1" stroke="none" display="inline"/><rect id="rect74853-5-12-37-7" width="1" height="1" x="7" y="13" fill="#2e3436" fill-opacity="1" stroke="none" display="inline"/><rect id="rect74853-5-12-37-3" width="1" height="1" x="9" y="13" fill="#2e3436" fill-opacity="1" stroke="none" display="inline"/><rect id="rect74853-5-12-37-48" width="1" height="1" x="11" y="13" fill="#2e3436" fill-opacity="1" stroke="none" display="inline"/><rect id="rect74853-5-12-37-03" width="1" height="1" x="13" y="13" fill="#2e3436" fill-opacity="1" stroke="none" display="inline"/><rect id="rect74853-5-12-37-1" width="1" height="1" x="14" y="12" fill="#2e3436" fill-opacity="1" stroke="none" display="inline"/><rect id="rect74853-5-12-37-1-1" width="1" height="1" x="14" y="10" fill="#2e3436" fill-opacity="1" stroke="none" display="inline"/><rect id="rect74853-5-12-37-1-0" width="1" height="1" x="14" y="8" fill="#2e3436" fill-opacity="1" stroke="none" display="inline"/><rect id="rect74853-5-12-37-1-3" width="1" height="1" x="14" y="6" fill="#2e3436" fill-opacity="1" stroke="none" display="inline"/><rect id="rect74853-5-12-37-1-01" width="1" height="1" x="14" y="4" fill="#2e3436" fill-opacity="1" stroke="none" display="inline"/></g></g></svg>