<svg xmlns="http://www.w3.org/2000/svg" xmlns:svg="http://www.w3.org/2000/svg" id="svg11300" width="24" height="24" version="1.0" viewBox="0 0 24 24"><defs id="defs3"><marker id="marker1323" orient="auto" overflow="visible" refX="0" refY="0"><path id="path1321" fill="#000" fill-opacity="1" fill-rule="evenodd" stroke="#000" stroke-opacity="1" stroke-width="1pt" d="M 0.0,0.0 L 5.0,-5.0 L -12.5,0.0 L 5.0,5.0 L 0.0,0.0 z" transform="scale(0.2) rotate(180) translate(6,0)"/></marker><marker id="Arrow2Send" orient="auto" overflow="visible" refX="0" refY="0"><path id="path856" fill="#000" fill-opacity="1" fill-rule="evenodd" stroke="#000" stroke-linejoin="round" stroke-opacity="1" stroke-width=".625" d="M 8.7185878,4.0337352 L -2.2072895,0.016013256 L 8.7185884,-4.0017078 C 6.9730900,-1.6296469 6.9831476,1.6157441 8.7185878,4.0337352 z" transform="scale(0.3) rotate(180) translate(-2.3,0)"/></marker><marker id="Arrow2Mend" orient="auto" overflow="visible" refX="0" refY="0"><path id="path850" fill="#000" fill-opacity="1" fill-rule="evenodd" stroke="#000" stroke-linejoin="round" stroke-opacity="1" stroke-width=".625" d="M 8.7185878,4.0337352 L -2.2072895,0.016013256 L 8.7185884,-4.0017078 C 6.9730900,-1.6296469 6.9831476,1.6157441 8.7185878,4.0337352 z" transform="scale(0.6) rotate(180) translate(0,0)"/></marker><marker id="Arrow1Mend" orient="auto" overflow="visible" refX="0" refY="0"><path id="path832" fill="#000" fill-opacity="1" fill-rule="evenodd" stroke="#000" stroke-opacity="1" stroke-width="1pt" d="M 0.0,0.0 L 5.0,-5.0 L -12.5,0.0 L 5.0,5.0 L 0.0,0.0 z" transform="scale(0.4) rotate(180) translate(10,0)"/></marker><marker id="Arrow1Send" orient="auto" overflow="visible" refX="0" refY="0"><path id="path838" fill="#000" fill-opacity="1" fill-rule="evenodd" stroke="#000" stroke-opacity="1" stroke-width="1pt" d="M 0.0,0.0 L 5.0,-5.0 L -12.5,0.0 L 5.0,5.0 L 0.0,0.0 z" transform="scale(0.2) rotate(180) translate(6,0)"/></marker><marker id="Arrow1Lstart" orient="auto" overflow="visible" refX="0" refY="0"><path id="path823" fill="#000" fill-opacity="1" fill-rule="evenodd" stroke="#000" stroke-opacity="1" stroke-width="1pt" d="M 0.0,0.0 L 5.0,-5.0 L -12.5,0.0 L 5.0,5.0 L 0.0,0.0 z" transform="scale(0.8) translate(12.5,0)"/></marker><marker id="Arrow2Lend" orient="auto" overflow="visible" refX="0" refY="0"><path id="path844" fill="#000" fill-opacity="1" fill-rule="evenodd" stroke="#000" stroke-linejoin="round" stroke-opacity="1" stroke-width=".625" d="M 8.7185878,4.0337352 L -2.2072895,0.016013256 L 8.7185884,-4.0017078 C 6.9730900,-1.6296469 6.9831476,1.6157441 8.7185878,4.0337352 z" transform="scale(1.1) rotate(180) translate(1,0)"/></marker></defs><metadata id="metadata4"/><g id="layer1" transform="translate(0,8)"><g id="g916" transform="translate(34,-1)"><rect id="rect4013-8-5-6-4-3" width="24" height="24" x="-34" y="-7" fill="#bebebe" fill-opacity="1" fill-rule="nonzero" stroke="none" stroke-dasharray="none" stroke-dashoffset="0" stroke-linecap="round" stroke-linejoin="round" stroke-miterlimit="4" stroke-opacity="1" stroke-width=".75" clip-rule="nonzero" color="#000" color-interpolation="sRGB" color-interpolation-filters="linearRGB" color-rendering="auto" display="inline" enable-background="accumulate" image-rendering="auto" opacity="0" overflow="visible" rx=".415" ry="2.122" shape-rendering="auto" text-rendering="auto" visibility="visible" style="isolation:auto;mix-blend-mode:normal;solid-color:#000;solid-opacity:1"/><path font-size="medium" style="line-height:0" id="path158-9-6" fill="#000" fill-opacity="1" stroke="none" stroke-width=".284" d="M -26.176302,15.028227 V 16.176 l 8.352604,-3.216037 V 11.67582 l -8.352604,-3.181943 v 1.102315 l 2.545556,0.94322 v 3.545595 z m 3.363771,-4.238805 1.329597,0.500018 c 0.931855,0.340923 1.840983,0.681848 2.80693,1.000041 v 0.04546 c -0.954583,0.340923 -1.863711,0.670482 -2.80693,1.011404 l -1.329597,0.50002 z" font-family="sans-serif" font-style="normal" font-weight="normal" letter-spacing="-1.14" word-spacing="0" writing-mode="tb-rl"/><path id="path1105-9-5-7" fill="#000" fill-opacity="1" fill-rule="nonzero" stroke="none" stroke-dasharray="none" stroke-dashoffset="0" stroke-linecap="butt" stroke-linejoin="miter" stroke-miterlimit="4" stroke-opacity="1" stroke-width="1.874" d="M -32.479193,-5.458011 V 9.235222 H -34 l 2.613754,5.306763 2.617991,-5.306763 h -1.541989 V -5.458011 Z" baseline-shift="baseline" clip-rule="nonzero" color="#000" color-interpolation="sRGB" color-interpolation-filters="linearRGB" color-rendering="auto" direction="ltr" display="inline" dominant-baseline="auto" enable-background="accumulate" font-family="sans-serif" font-size="medium" font-stretch="normal" font-style="normal" font-variant="normal" font-weight="normal" image-rendering="auto" letter-spacing="normal" opacity="1" overflow="visible" shape-rendering="auto" text-anchor="start" text-decoration="none" text-rendering="auto" vector-effect="none" visibility="visible" word-spacing="normal" writing-mode="lr-tb" style="line-height:normal;font-variant-ligatures:normal;font-variant-position:normal;font-variant-caps:normal;font-variant-numeric:normal;font-variant-alternates:normal;font-feature-settings:normal;text-indent:0;text-align:start;text-decoration-line:none;text-decoration-style:solid;text-decoration-color:#000;text-transform:none;text-orientation:mixed;white-space:normal;shape-padding:0;isolation:auto;mix-blend-mode:normal;solid-color:#000;solid-opacity:1"/><path id="path1105-9-5-3" fill="#000" fill-opacity="1" fill-rule="nonzero" stroke="none" stroke-dasharray="none" stroke-dashoffset="0" stroke-linecap="butt" stroke-linejoin="miter" stroke-miterlimit="4" stroke-opacity="1" stroke-width="1.874" d="m -32.479193,-3.289062 h 14.693232 v 1.520807 L -12.479198,-4.382009 -17.785961,-7 v 1.541989 h -14.693232 z" baseline-shift="baseline" clip-rule="nonzero" color="#000" color-interpolation="sRGB" color-interpolation-filters="linearRGB" color-rendering="auto" direction="ltr" display="inline" dominant-baseline="auto" enable-background="accumulate" font-family="sans-serif" font-size="medium" font-stretch="normal" font-style="normal" font-variant="normal" font-weight="normal" image-rendering="auto" letter-spacing="normal" opacity=".6" overflow="visible" shape-rendering="auto" text-anchor="start" text-decoration="none" text-rendering="auto" vector-effect="none" visibility="visible" word-spacing="normal" writing-mode="lr-tb" style="line-height:normal;font-variant-ligatures:normal;font-variant-position:normal;font-variant-caps:normal;font-variant-numeric:normal;font-variant-alternates:normal;font-feature-settings:normal;text-indent:0;text-align:start;text-decoration-line:none;text-decoration-style:solid;text-decoration-color:#000;text-transform:none;text-orientation:mixed;white-space:normal;shape-padding:0;isolation:auto;mix-blend-mode:normal;solid-color:#000;solid-opacity:1"/><g font-size="40" style="line-height:1.25" id="text875" fill="#000" fill-opacity="1" stroke="none" aria-label="文" font-family="sans-serif" font-style="normal" font-weight="normal" letter-spacing="0" transform="matrix(0.25408546,0,0,0.25408546,-31.192701,1.6970387)" word-spacing="0"><path id="path877" fill="#000" fill-opacity="1" stroke="none" d="m 25.099562,-0.94018547 2.96,-0.84000003 q 3.16,8.92 8.04,13.5600005 5.2,-5.0800005 8.56,-15.2800005 h -25.96 v -2.8 h 15.88 v -5.9199995 h 3.2 v 5.9199995 h 15.88 v 2.8 h -5.64 q -3.72,11.52 -9.6,17.2800005 5.28,4 15.16,7 l -0.88,2.72 q -10.72,-3.2 -16.56,-7.72 -5.72,4.48 -16.48,7.72 l -0.88,-2.72 q 9.84,-3 15.04,-7 -5.32,-5.1600005 -8.72,-14.72000047 z"/></g></g></g></svg>