<svg xmlns="http://www.w3.org/2000/svg" xmlns:svg="http://www.w3.org/2000/svg" id="svg11300" width="16" height="16" version="1.0" viewBox="0 0 16 16"><metadata id="metadata4"/><g id="layer1"><g id="g4396"><g id="layer1-7" transform="matrix(0.31111111,0,0,0.32,0.13333334,-318.208)"><g id="g3686"><g id="g3643"><path id="path3623" fill="#6595b9" d="m 34.773767,1025.5492 -6.380265,-9.6919 -1.925391,-6.1553 L 41,994.4 l 10,10 -5,10 z"/><path id="path3617" fill="#da786c" d="m 6,1034.4 10,10 20.488568,-20.5355 0.0349,-2.7136 L 21,1014.4 l -10,10 z"/><path id="path3615" fill="#e3dbc8" d="m 9,1028.4 -1,2 10,10 30,-30 1,-2 -11,-11 -27,27 z"/><path id="path3611" fill="#6595b9" d="m 29.856992,1020.2596 3.838556,3.5989 L 49,1008.4 l 2,-4 -10,-10 c -6.666667,6.6667 -19.026357,18.8644 -18.603039,18.4411 7.460031,7.4185 0,0 7.460031,7.4185 z"/><path id="path3613" fill="#da786c" d="m 9,1028.4 10,10 17.523466,-17.2491 0.0058,-2.2059 L 26.167269,1008.98 11,1024.4 Z"/><path id="path3619" fill-opacity=".078" d="m 6,1034.4 5,-10 10,10 -5,10 z"/><path id="path3621" fill-opacity=".235" d="m 16,1044.4 30,-30 5,-10 -30,30 z"/></g></g></g><path id="path4326" fill="#555753" fill-rule="evenodd" stroke="#555753" stroke-linecap="butt" stroke-linejoin="miter" stroke-opacity="1" stroke-width=".99" d="m 0.00358225,15.504933 2.99283695,-0.0099"/><path id="path4328" fill="none" fill-rule="evenodd" stroke="#555753" stroke-linecap="butt" stroke-linejoin="miter" stroke-opacity="1" stroke-width=".981" d="m 7.0011857,15.509651 7.9976283,-0.01932"/></g></g></svg>