<svg xmlns="http://www.w3.org/2000/svg" xmlns:osb="http://www.openswatchbook.org/uri/2009/osb" xmlns:svg="http://www.w3.org/2000/svg" xmlns:xlink="http://www.w3.org/1999/xlink" id="svg11300" width="16" height="16" version="1.0" viewBox="0 0 16 16"><defs id="defs3"><linearGradient id="linearGradient5416"><stop id="stop5412" offset="0" stop-color="#edd400" stop-opacity="1"/><stop id="stop5414" offset="1" stop-color="#c00" stop-opacity="1"/></linearGradient><linearGradient id="linearGradient5392" osb:paint="solid"><stop id="stop5390" offset="0" stop-color="#204a87" stop-opacity="1"/></linearGradient><linearGradient id="linearGradient5418" x1="-14" x2="-1" y1="2.25" y2="2.25" gradientUnits="userSpaceOnUse" xlink:href="#linearGradient5416"/></defs><metadata id="metadata4"/><g id="layer1"><g id="g4153"><path id="path103" fill="#fff" fill-opacity="1" stroke="#000" stroke-dasharray="none" stroke-miterlimit="4" stroke-opacity="1" stroke-width=".5" d="M 14.09482,2.12222 C 14.615493,2.12222 15,2.5259231 15,2.981711 v 1.627065 c 0,0.4558076 -0.384507,0.8590756 -0.90518,0.8590756 H 8.598794 c -0.4203304,0 -0.5216641,0.058048 -0.6541238,0.1608828 C 7.8122105,5.7315391 7.7466579,5.9031004 7.7466579,6.1654323 L 7.7455179,7 H 7.2533416 l 0.00114,-0.8350523 C 7.2545688,5.8376558 7.369785,5.4794292 7.6297778,5.2776666 7.8899037,5.0757854 8.1109268,5 8.598781,5 h 5.496026 c 0.210026,0 0.413004,-0.124274 0.413004,-0.3911746 v -1.627065 c 0,-0.2668907 -0.202978,-0.4455726 -0.413004,-0.4455726 H 10 V 2.1222496 h 4.094807 z" color="#000" style="text-indent:0;text-transform:none"/><rect id="rect99" width="2.181" height="8.681" x="-8.591" y="7.159" fill="#204a87" fill-opacity="1" stroke="#204a87" stroke-dasharray="none" stroke-miterlimit="4" stroke-opacity="1" stroke-width=".319" color="#000" ry=".309" transform="scale(-1,1)"/><rect id="rect107" width="12.498" height="3.998" x="-13.749" y=".251" fill="url(#linearGradient5418)" fill-opacity="1" stroke="#000" stroke-dasharray="none" stroke-miterlimit="4" stroke-opacity="1" stroke-width=".502" color="#000" rx=".789" ry="1.463" transform="scale(-1,1)"/><rect stroke-width=".2" style="isolation:auto;mix-blend-mode:normal;solid-color:#000;solid-opacity:1" id="rect4135" width="16" height="16" x="-16" y="0" fill="#505050" fill-opacity="1" fill-rule="nonzero" stroke="none" stroke-dasharray="none" stroke-dashoffset="0" stroke-linecap="round" stroke-linejoin="round" stroke-miterlimit="4" stroke-opacity="1" clip-rule="nonzero" color="#000" color-interpolation="sRGB" color-interpolation-filters="linearRGB" color-rendering="auto" display="inline" enable-background="accumulate" image-rendering="auto" opacity="0" overflow="visible" shape-rendering="auto" text-rendering="auto" transform="scale(-1,1)" visibility="visible"/><path id="path109" fill="#729fcf" fill-opacity="1" stroke="#3465a4" stroke-dasharray="none" stroke-miterlimit="4" stroke-opacity="1" stroke-width=".311" d="M 8.6274803,8.1557354 H 6.3964489 c -0.3636403,2.2196756 -0.2738056,4.3539486 -0.00507,6.5736536 0.7784373,0.181915 1.4815944,0.118496 2.2209596,0.01206 0.2612867,-2.219612 0.3477822,-4.365604 0.015159,-6.585197 z" color="#000"/></g></g></svg>