<svg xmlns="http://www.w3.org/2000/svg" xmlns:svg="http://www.w3.org/2000/svg" id="svg30571" width="16" height="16" version="1.1" viewBox="0 0 16 16"><metadata id="metadata30576"/><g id="layer1" transform="translate(0,-1036.3622)"><g id="g4166"><g id="g4151" transform="matrix(0,1,-1,0,1052.3622,1036.3622)"><g id="gimp-layer" display="inline" transform="translate(-2.3293809,1035.84)"><rect id="rect4002" width="15.584" height="15.584" x="2.537" y=".73" fill="none" fill-opacity="1" fill-rule="nonzero" stroke="#000" stroke-dasharray="none" stroke-dashoffset="0" stroke-linecap="round" stroke-linejoin="miter" stroke-miterlimit="4" stroke-opacity="1" stroke-width=".416" clip-rule="nonzero" color="#000" color-interpolation="sRGB" color-interpolation-filters="linearRGB" color-rendering="auto" display="inline" enable-background="accumulate" image-rendering="auto" opacity="0" overflow="visible" shape-rendering="auto" text-rendering="auto" visibility="visible" style="isolation:auto;mix-blend-mode:normal;solid-color:#000;solid-opacity:1"/></g><path id="rect4899" fill="#fff" fill-opacity="1" fill-rule="evenodd" stroke="#888a85" stroke-dashoffset="0" stroke-linecap="butt" stroke-linejoin="miter" stroke-miterlimit="4" stroke-opacity="1" stroke-width=".698" marker-end="none" marker-mid="none" marker-start="none" d="m 2.6283162,1036.7111 8.0297108,0 3.993058,4.0012 0,10.0499 c 0,0.6931 -0.570613,1.251 -1.279401,1.251 l -10.7433678,0 c -0.7087883,0 -1.2794013,-0.5579 -1.2794013,-1.251 l 0,-12.8001 c 0,-0.6931 0.570613,-1.251 1.2794013,-1.251 z" color="#000" display="inline" enable-background="accumulate" overflow="visible" visibility="visible" style="marker:none"/><path id="path6084" fill="none" fill-opacity="1" fill-rule="evenodd" stroke="#fff" stroke-dashoffset="0" stroke-linecap="butt" stroke-linejoin="miter" stroke-miterlimit="4" stroke-opacity="1" stroke-width=".698" marker-end="none" marker-mid="none" marker-start="none" d="m 3.3435361,1037.4066 6.9116179,0 3.695817,3.9976 -0.02615,8.6499 c 0,0.7 -0.577351,1.2636 -1.294507,1.2636 l -9.2867779,0 c -0.717157,0 -1.2945071,-0.5636 -1.2945071,-1.2636 l 0,-11.3838 c 0,-0.7001 0.5773501,-1.2637 1.2945071,-1.2637 z" color="#000" display="inline" enable-background="accumulate" overflow="visible" visibility="visible" style="marker:none"/><path id="path6074" fill="#fff" fill-opacity="1" fill-rule="evenodd" stroke="#888a85" stroke-linecap="butt" stroke-linejoin="miter" stroke-opacity="1" stroke-width=".74" d="m 14.5,1040.9922 -4.102492,0 -0.02746,-4.1274"/></g><path id="path22208" fill="#555753" stroke-width="1.158" d="m 11.556302,1040.3622 -5.204838,7.0001 -3.0056108,-2.4286 -2.3458426,3.4285 9.4999894,0 0,-2.5 4.500015,0 z" opacity="1"/><circle id="path22229" cx="4.5" cy="1041.612" r="1.75" fill="#555753" stroke-width="1.01" opacity="1"/></g></g></svg>