<svg xmlns="http://www.w3.org/2000/svg" xmlns:svg="http://www.w3.org/2000/svg" xmlns:xlink="http://www.w3.org/1999/xlink" id="svg11300" width="16" height="16" version="1.0" viewBox="0 0 16 16"><metadata id="metadata4"/><g id="layer1"><g id="g115"><g id="join_bevel" display="inline" transform="matrix(0.66363202,0,0,0.66295309,-596.93649,-104.91228)"><path id="path18321" fill="#729fcf" fill-opacity="1" fill-rule="evenodd" stroke="none" stroke-linecap="square" stroke-linejoin="miter" stroke-opacity="1" stroke-width="1" d="m 900.04,181.75 -0.04,-10.5 12,-12.5 h 11 v 17.5 h -6 v 5.5"/><rect id="rect18323" width="24" height="24" x="899.5" y="158.25" fill="none" fill-opacity="1" fill-rule="evenodd" stroke="none" stroke-dasharray="none" stroke-dashoffset="0" stroke-linecap="square" stroke-linejoin="round" stroke-miterlimit="0" stroke-opacity="1" stroke-width="9" marker-end="none" marker-mid="none" marker-start="none" display="inline" opacity="1" style="marker:none"/><path id="path18325" fill="none" fill-opacity="1" fill-rule="evenodd" stroke="#204a87" stroke-linecap="square" stroke-linejoin="miter" stroke-opacity="1" stroke-width="1" d="m 900.04,181.75 -0.04,-10.5 12,-12.5 h 11 m -6,23 v -6 h 6"/><use id="use18327" width="1250" height="1250" x="0" y="0" xlink:href="#use5673"/><use id="use18329" width="1250" height="1250" x="0" y="0" transform="translate(-3.999997)" xlink:href="#use5673"/><use id="use18331" width="1250" height="1250" x="0" y="0" transform="translate(-7.999997)" xlink:href="#use5673"/><use id="use18333" width="1250" height="1250" x="0" y="0" transform="translate(-12)" xlink:href="#use5673"/><use id="use18335" width="1250" height="1250" x="0" y="0" transform="translate(-12,4)" xlink:href="#use5673"/><use id="use18337" width="1250" height="1250" x="0" y="0" transform="translate(-12,8)" xlink:href="#use5673"/><use id="use18339" width="1250" height="1250" x="0" y="0" transform="translate(-12,12)" xlink:href="#use5673"/><path id="path34051" fill="none" fill-opacity="1" fill-rule="evenodd" stroke="#eeeeec" stroke-linecap="square" stroke-linejoin="miter" stroke-opacity="1" stroke-width="1" d="m 900.9899,181.8824 -0.04,-10.1381 11.4369,-12.0174 10.7185,-0.0804 m -7.1261,22.075 0.0403,-7.0054 6.9249,0.0402" opacity=".5"/></g><path id="path11862" fill="none" fill-rule="evenodd" stroke="#fff" stroke-dasharray="none" stroke-linecap="butt" stroke-linejoin="miter" stroke-miterlimit="4" stroke-opacity="1" stroke-width="1.538" d="M 16,5.7692099 H 10.299096 L 5.7692099,11.202747 V 16"/></g></g></svg>