<svg xmlns="http://www.w3.org/2000/svg" xmlns:svg="http://www.w3.org/2000/svg" id="svg30571" width="16" height="16" version="1.1" viewBox="0 0 16 16"><metadata id="metadata30576"/><g id="layer1" transform="translate(0,-1036.3622)"><g id="g4261"><rect id="rect28186-4" width="16" height="16" x="0" y="1036.362" fill="none" stroke="none" rx="0"/><rect id="rect6884" width="16" height="16" x="0" y="1036.362" fill="none" stroke="none" opacity=".3"/><rect id="rect7360" width="10" height="2" x="5" y="1047.362" fill="#000" fill-opacity="1" stroke="none" stroke-dasharray="none" stroke-miterlimit="4" stroke-opacity="1" stroke-width=".212" color="#bebebe" display="inline" overflow="visible" visibility="visible" style="marker:none"/><path id="path3148" fill="#f57900" fill-opacity="1" stroke="#ce5c00" stroke-dasharray="none" stroke-miterlimit="4" stroke-opacity="1" stroke-width=".305" d="m 3.8476949,1040.3622 a 1.3476949,1.3476949 0 0 1 -1.3466247,1.3477 1.3476949,1.3476949 0 0 1 -1.3487634,-1.3456 1.3476949,1.3476949 0 0 1 1.3444825,-1.3498 1.3476949,1.3476949 0 0 1 1.3508988,1.3434" opacity="1"/><path id="path3148-6" fill="#f57900" fill-opacity="1" stroke="#ce5c00" stroke-dasharray="none" stroke-miterlimit="4" stroke-opacity="1" stroke-width=".305" d="m 3.8476949,1044.3622 a 1.3476949,1.3476949 0 0 1 -1.3466247,1.3477 1.3476949,1.3476949 0 0 1 -1.3487634,-1.3456 1.3476949,1.3476949 0 0 1 1.3444825,-1.3498 1.3476949,1.3476949 0 0 1 1.3508988,1.3434" opacity="1"/><path id="path3148-7" fill="#f57900" fill-opacity="1" stroke="#ce5c00" stroke-dasharray="none" stroke-miterlimit="4" stroke-opacity="1" stroke-width=".305" d="m 3.8476949,1048.3622 a 1.3476949,1.3476949 0 0 1 -1.3466247,1.3477 1.3476949,1.3476949 0 0 1 -1.3487634,-1.3456 1.3476949,1.3476949 0 0 1 1.3444825,-1.3498 1.3476949,1.3476949 0 0 1 1.3508988,1.3434" opacity="1"/></g><rect id="rect7360-3" width="10" height="2" x="5" y="1043.362" fill="#000" fill-opacity="1" stroke="none" stroke-dasharray="none" stroke-miterlimit="4" stroke-opacity="1" stroke-width=".212" color="#bebebe" display="inline" overflow="visible" visibility="visible" style="marker:none"/><rect id="rect7360-6" width="10" height="2" x="5" y="1039.362" fill="#000" fill-opacity="1" stroke="none" stroke-dasharray="none" stroke-miterlimit="4" stroke-opacity="1" stroke-width=".212" color="#bebebe" display="inline" overflow="visible" visibility="visible" style="marker:none"/></g></svg>