<svg xmlns="http://www.w3.org/2000/svg" xmlns:svg="http://www.w3.org/2000/svg" xmlns:xlink="http://www.w3.org/1999/xlink" id="svg11300" width="16" height="16" version="1.0" viewBox="0 0 16 16"><defs id="defs3"><linearGradient id="linearGradient3247"><stop id="stop3249" offset="0" stop-color="#fff" stop-opacity="1"/><stop id="stop3251" offset="1" stop-color="#fff" stop-opacity="0"/></linearGradient><linearGradient id="linearGradient3233"><stop id="stop3235" offset="0" stop-color="#eeeeec" stop-opacity="1"/><stop id="stop3237" offset="1" stop-color="#a3a398" stop-opacity="1"/></linearGradient><linearGradient id="linearGradient3594" x1="24" x2="23.434" y1="17.246" y2="8.048" gradientUnits="userSpaceOnUse" xlink:href="#linearGradient3233"/><linearGradient id="linearGradient3592" x1="17.16" x2="37.969" y1="14.004" y2="56.576" gradientTransform="matrix(0.593728,0,0,0.590305,7.25337,0.782569)" gradientUnits="userSpaceOnUse" xlink:href="#linearGradient3247"/><linearGradient id="linearGradient3588" x1="23.434" x2="23.434" y1="15.759" y2="8.048" gradientUnits="userSpaceOnUse" xlink:href="#linearGradient3233"/></defs><metadata id="metadata4"/><g id="g4250"><g id="g4006" fill="#3465a4" transform="matrix(0.63450124,0,0,0.69459044,-5.6699386,-3.4733724)"><path id="path3068" fill="#3465a4" fill-opacity="1" fill-rule="nonzero" stroke="#767973" stroke-dasharray="none" stroke-dashoffset="0" stroke-linecap="butt" stroke-linejoin="miter" stroke-miterlimit="10" stroke-opacity="1" stroke-width="1" marker-end="none" marker-mid="none" marker-start="none" d="m 21.464547,5.500002 c -4.895979,0 -8.876945,1.7334382 -8.876946,3.8658299 0,0.1530151 0,14.1442051 0,14.3035631 0,2.132392 3.980966,3.865829 8.876946,3.865829 4.895981,0 9.035466,-1.733438 9.035464,-3.865829 0,-0.126218 0,-14.177345 0,-14.3035631 0,-2.1323917 -4.139483,-3.8658299 -9.035464,-3.8658299 z" color="#000" display="block" opacity="1" overflow="visible" visibility="visible" style="marker:none"/><ellipse id="path3241" cx="24" cy="14.071" fill="#3465a4" fill-opacity="1" fill-rule="nonzero" stroke="url(#linearGradient3594)" stroke-dasharray="none" stroke-dashoffset="0" stroke-linecap="butt" stroke-linejoin="miter" stroke-miterlimit="10" stroke-opacity="1" stroke-width="1.791" marker-end="none" marker-mid="none" marker-start="none" color="#000" display="block" opacity=".236" overflow="visible" rx="12.857" ry="5.5" transform="matrix(0.61236,0,0,0.509025,6.93016,16.53765)" visibility="visible" style="marker:none"/><path id="path4174" fill="#3465a4" fill-opacity="1" fill-rule="nonzero" stroke="url(#linearGradient3592)" stroke-dasharray="none" stroke-dashoffset="0" stroke-linecap="butt" stroke-linejoin="miter" stroke-miterlimit="10" stroke-opacity="1" stroke-width="1" marker-end="none" marker-mid="none" marker-start="none" d="m 21.470844,6.4999985 c -4.350694,0 -7.888282,1.5424173 -7.888283,3.4398227 0,0.1361548 0,12.9194288 0,13.0612248 0,1.897408 3.537589,3.439823 7.888283,3.439823 4.350692,0 8.029144,-1.542415 8.029142,-3.439823 0,-0.112308 0,-12.948914 0,-13.0612248 0,-1.8974064 -3.67845,-3.4398227 -8.029142,-3.4398227 z" color="#000" display="block" opacity=".544" overflow="visible" visibility="visible" style="marker:none"/><ellipse id="path3364" cx="24" cy="14.071" fill="#3465a4" fill-opacity="1" fill-rule="nonzero" stroke="url(#linearGradient3588)" stroke-dasharray="none" stroke-dashoffset="0" stroke-linecap="butt" stroke-linejoin="miter" stroke-miterlimit="10" stroke-opacity="1" stroke-width="1.717" marker-end="none" marker-mid="none" marker-start="none" color="#000" display="block" opacity=".773" overflow="visible" rx="12.857" ry="5.5" transform="matrix(0.622222,0,0,0.545455,6.56666,1.824673)" visibility="visible" style="marker:none"/></g><rect id="rect4060" width="15.319" height="15.319" x=".341" y=".341" fill="none" fill-opacity="1" fill-rule="nonzero" stroke="#bebebe" stroke-dasharray="none" stroke-dashoffset="0" stroke-linecap="round" stroke-linejoin="miter" stroke-miterlimit="4" stroke-opacity="1" stroke-width=".681" clip-rule="nonzero" color="#000" color-interpolation="sRGB" color-interpolation-filters="linearRGB" color-rendering="auto" display="inline" enable-background="accumulate" image-rendering="auto" opacity="0" overflow="visible" shape-rendering="auto" text-rendering="auto" visibility="visible" style="isolation:auto;mix-blend-mode:normal;solid-color:#000;solid-opacity:1"/></g></svg>