<svg xmlns="http://www.w3.org/2000/svg" xmlns:svg="http://www.w3.org/2000/svg" id="svg11300" width="16" height="16" version="1.0" viewBox="0 0 16 16"><metadata id="metadata4"/><g id="layer1"><g id="g4083"><ellipse id="path4051-5" cx="8.013" cy="8.146" fill="none" fill-opacity="1" stroke="#000" stroke-dasharray="none" stroke-miterlimit="4" stroke-opacity="1" stroke-width=".954" opacity="1" rx="7.511" ry="5.388"/><g id="g4004" fill="#ef2929" stroke="none" opacity=".494" transform="matrix(1.0250358,0,0,1.0266615,-0.18761801,-0.21329187)"><rect id="rect4002" width="15.584" height="15.584" x=".208" y=".208" fill="#ef2929" fill-opacity="1" fill-rule="nonzero" stroke="none" stroke-dasharray="none" stroke-dashoffset="0" stroke-linecap="round" stroke-linejoin="miter" stroke-miterlimit="4" stroke-opacity="1" stroke-width=".416" clip-rule="nonzero" color="#000" color-interpolation="sRGB" color-interpolation-filters="linearRGB" color-rendering="auto" display="inline" enable-background="accumulate" image-rendering="auto" opacity="0" overflow="visible" shape-rendering="auto" text-rendering="auto" visibility="visible" style="isolation:auto;mix-blend-mode:normal;solid-color:#000;solid-opacity:1"/></g><rect id="rect4032-1" width=".998" height="1" x="7.372" y="2.197" fill="#fff" fill-opacity="1" stroke="none" stroke-dasharray="none" stroke-miterlimit="4" stroke-opacity="1" stroke-width=".444" opacity="1" transform="matrix(0.99995103,0.00989679,-0.00986547,0.99995134,0,0)"/><rect id="rect4032-8-9-5" width=".998" height="1" x="15.002" y="7.577" fill="#fff" fill-opacity="1" stroke="none" stroke-dasharray="none" stroke-miterlimit="4" stroke-opacity="1" stroke-width=".444" opacity="1"/><rect id="rect4032-8-9-7" width="1.023" height="1" x="0" y="7.552" fill="#fff" fill-opacity="1" stroke="none" stroke-dasharray="none" stroke-miterlimit="4" stroke-opacity="1" stroke-width=".45" opacity="1"/><rect id="rect4032-8-9-5-0" width=".998" height="1" x="7.505" y="13.03" fill="#fff" fill-opacity="1" stroke="none" stroke-dasharray="none" stroke-miterlimit="4" stroke-opacity="1" stroke-width=".444" opacity="1"/><ellipse id="path4051" cx="8" cy="8.05" fill="#d3d7cf" fill-opacity="1" stroke="#fff" stroke-dasharray="none" stroke-miterlimit="4" stroke-opacity="1" stroke-width=".196" opacity="1" rx="6.402" ry="4.152"/><rect id="rect4032" width=".998" height=".999" x="-1.769" y="4.518" fill="#fff" fill-opacity="1" stroke="none" stroke-dasharray="none" stroke-dashoffset="0" stroke-linecap="butt" stroke-linejoin="miter" stroke-miterlimit="4" stroke-opacity="1" stroke-width=".444" opacity="1" transform="matrix(0.75458118,-0.65620671,0.65502191,0.75560988,0,0)"/><rect id="rect4032-5" width=".998" height="1" x="1.544" y="4.502" fill="#fff" fill-opacity="1" stroke="none" stroke-dasharray="none" stroke-dashoffset="0" stroke-linecap="butt" stroke-linejoin="miter" stroke-miterlimit="4" stroke-opacity="1" stroke-width=".444" opacity="1" transform="matrix(0.89640984,-0.44322612,0.44209803,0.89696674,0,0)"/><rect id="rect4032-10" width=".999" height=".999" x="-5.384" y="3.376" fill="#fff" fill-opacity="1" stroke="none" stroke-dasharray="none" stroke-dashoffset="0" stroke-linecap="butt" stroke-linejoin="miter" stroke-miterlimit="4" stroke-opacity="1" stroke-width=".444" opacity="1" transform="matrix(0.48099244,-0.87672474,0.87608053,0.48216481,0,0)"/><rect id="rect4032-5-6" width=".998" height="1" x="4.557" y="3.687" fill="#fff" fill-opacity="1" stroke="none" stroke-dasharray="none" stroke-dashoffset="0" stroke-linecap="butt" stroke-linejoin="miter" stroke-miterlimit="4" stroke-opacity="1" stroke-width=".444" opacity="1" transform="matrix(0.97667489,-0.21472345,0.21407515,0.97681719,0,0)"/><rect id="rect4032-8" width=".998" height=".999" x="8.891" y="-7.779" fill="#fff" fill-opacity="1" stroke="none" stroke-dasharray="none" stroke-miterlimit="4" stroke-opacity="1" stroke-width=".444" opacity="1" transform="matrix(0.75521122,0.65548152,0.65429606,-0.7562385,0,0)"/><rect id="rect4032-5-4" width=".998" height="1" x="8.739" y="-10.113" fill="#fff" fill-opacity="1" stroke="none" stroke-dasharray="none" stroke-miterlimit="4" stroke-opacity="1" stroke-width=".444" opacity="1" transform="matrix(0.89683553,0.44236414,0.44123717,-0.89739053,0,0)"/><rect id="rect4032-10-4" width=".999" height=".999" x="8.876" y="-4.466" fill="#fff" fill-opacity="1" stroke="none" stroke-dasharray="none" stroke-miterlimit="4" stroke-opacity="1" stroke-width=".444" opacity="1" transform="matrix(0.48183354,0.87626277,0.87561664,-0.48300672,0,0)"/><rect id="rect4032-5-6-3" width=".998" height="1" x="8.041" y="-12.257" fill="#fff" fill-opacity="1" stroke="none" stroke-dasharray="none" stroke-miterlimit="4" stroke-opacity="1" stroke-width=".444" opacity="1" transform="matrix(0.97688096,0.21378397,0.21313823,-0.97702205,0,0)"/><rect id="rect4032-9" width=".998" height=".999" x="-13.857" y="-5.62" fill="#fff" fill-opacity="1" stroke="none" stroke-dasharray="none" stroke-miterlimit="4" stroke-opacity="1" stroke-width=".444" opacity="1" transform="matrix(-0.77227955,-0.63528285,-0.63408155,0.77326618,0,0)"/><rect id="rect4032-5-5" width=".998" height="1" x="-12.706" y="-2.26" fill="#fff" fill-opacity="1" stroke="none" stroke-dasharray="none" stroke-miterlimit="4" stroke-opacity="1" stroke-width=".444" opacity="1" transform="matrix(-0.90822715,-0.41847753,-0.41738426,0.90873009,0,0)"/><rect id="rect4032-10-6" width=".999" height=".999" x="-13.217" y="-10.317" fill="#fff" fill-opacity="1" stroke="none" stroke-dasharray="none" stroke-miterlimit="4" stroke-opacity="1" stroke-width=".444" opacity="1" transform="matrix(-0.50481083,-0.86323,-0.8625314,0.50600354,0,0)"/><rect id="rect4032-5-6-5" width=".998" height="1" x="-10.889" y=".523" fill="#fff" fill-opacity="1" stroke="none" stroke-dasharray="none" stroke-miterlimit="4" stroke-opacity="1" stroke-width=".444" opacity="1" transform="matrix(-0.98219824,-0.18784733,-0.18727377,0.98230776,0,0)"/><rect id="rect4032-86" width=".998" height=".999" x="-3.271" y="-18.249" fill="#fff" fill-opacity="1" stroke="none" stroke-dasharray="none" stroke-miterlimit="4" stroke-opacity="1" stroke-width=".444" opacity="1" transform="matrix(-0.76035772,0.64950454,-0.64831386,-0.76137319,0,0)"/><rect id="rect4032-5-2" width=".998" height="1" x="-5.682" y="-17.14" fill="#fff" fill-opacity="1" stroke="none" stroke-dasharray="none" stroke-miterlimit="4" stroke-opacity="1" stroke-width=".444" opacity="1" transform="matrix(-0.90029929,0.4352714,-0.43415395,-0.90083869,0,0)"/><rect id="rect4032-10-8" width=".999" height=".999" x="1.046" y="-18.517" fill="#fff" fill-opacity="1" stroke="none" stroke-dasharray="none" stroke-miterlimit="4" stroke-opacity="1" stroke-width=".444" opacity="1" transform="matrix(-0.48872264,0.87243922,-0.8717774,-0.48990219,0,0)"/><rect id="rect4032-5-6-39" width=".998" height="1" x="-7.641" y="-15.613" fill="#fff" fill-opacity="1" stroke="none" stroke-dasharray="none" stroke-miterlimit="4" stroke-opacity="1" stroke-width=".444" opacity="1" transform="matrix(-0.97853872,0.20606304,-0.20543852,-0.97867002,0,0)"/></g></g></svg>