<svg xmlns="http://www.w3.org/2000/svg" xmlns:osb="http://www.openswatchbook.org/uri/2009/osb" xmlns:svg="http://www.w3.org/2000/svg" id="svg2" width="16" height="16" version="1.1" viewBox="0 0 16 16"><metadata id="metadata90"/><defs id="defs7386"><linearGradient id="linearGradient19282" gradientTransform="matrix(0,-735328.32,170712.69,0,2464326300,577972450)" osb:paint="solid"><stop id="stop19284" stop-color="#b4b4b4"/></linearGradient><linearGradient id="linearGradient6057" x1="231.55" x2="320.7" gradientTransform="matrix(0.01502614,0,0,0.01468232,2.9686133,1037.3257)" gradientUnits="userSpaceOnUse" osb:paint="gradient"><stop id="stop6053" stop-color="#a11f7c"/><stop id="stop6055" offset="1" stop-color="#541f31" stop-opacity=".984"/></linearGradient><linearGradient id="linearGradient5487" osb:paint="solid"><stop id="stop5485" offset="0" stop-color="#888a85" stop-opacity="1"/></linearGradient></defs><g id="stock" display="inline" transform="translate(13.717858,-16.117474)"><g id="gimp-transparency" transform="translate(-13.717856,-1020.2447)"><g id="gimp-transparency-0" transform="translate(-161.0002,657.3622)"><rect id="rect10732-6" width="4" height="4" x="-80" y="162" fill="#bebebe" transform="translate(241.0002,217)"/><rect id="rect10734-4" width="4" height="4" x="-76" y="166" fill="#bebebe" transform="translate(241.0002,217)"/><rect id="rect10736-2" width="4" height="4" x="-72" y="162" fill="#bebebe" transform="translate(241.0002,217)"/><rect id="rect10738-9" width="4" height="4" x="-68" y="166" fill="#bebebe" transform="translate(241.0002,217)"/><rect id="rect10740-8" width="4" height="4" x="-72" y="170" fill="#bebebe" transform="translate(241.0002,217)"/><rect id="rect10742-1" width="4" height="4" x="-80" y="170" fill="#bebebe" transform="translate(241.0002,217)"/><rect id="rect10744-4" width="4" height="4" x="-76" y="174" fill="#bebebe" transform="translate(241.0002,217)"/><rect id="rect10746-3" width="4" height="4" x="-68" y="174" fill="#bebebe" transform="translate(241.0002,217)"/><rect id="rect10748-9" width="4" height="4" x="-80" y="166" fill="#bebebe" opacity=".3" transform="translate(241.0002,217)"/><rect id="rect10750-6" width="4" height="4" x="165" y="379" fill="#bebebe" opacity=".3"/><rect id="rect10752-4" width="4" height="4" x="173" y="379" fill="#bebebe" opacity=".3"/><rect id="rect10754-6" width="4" height="4" x="169" y="383" fill="#bebebe" opacity=".3"/><rect id="rect10756-4" width="4" height="4" x="173" y="387" fill="#bebebe" opacity=".3"/><rect id="rect10758-2" width="4" height="4" x="165" y="387" fill="#bebebe" opacity=".3"/><rect id="rect10760-5" width="4" height="4" x="169" y="391" fill="#bebebe" opacity=".3"/><rect id="rect10762-9" width="4" height="4" x="161" y="391" fill="#bebebe" opacity=".3"/></g><rect id="rect24" width="15.486" height="15.486" x=".257" y="1036.619" fill="none" fill-rule="evenodd" stroke="#000" stroke-dasharray="none" stroke-linecap="round" stroke-linejoin="round" stroke-miterlimit="4" stroke-opacity="1" stroke-width=".514"/></g></g></svg>