<svg xmlns="http://www.w3.org/2000/svg" xmlns:svg="http://www.w3.org/2000/svg" xmlns:xlink="http://www.w3.org/1999/xlink" id="svg30571" width="24" height="24" version="1.1" viewBox="0 0 24 24"><defs id="defs30573"><linearGradient id="linearGradient6484" x1="28.079" x2="30.432" y1="12.338" y2="14.691" gradientTransform="translate(6.39225,12.18459)" gradientUnits="userSpaceOnUse" xlink:href="#linearGradient6445"/><linearGradient id="linearGradient6445"><stop id="stop6447" offset="0" stop-color="#fcaf3e" stop-opacity="1"/><stop id="stop6449" offset="1" stop-color="#ce5c00"/></linearGradient><linearGradient id="linearGradient6486" x1="23.448" x2="22.81" y1="21.481" y2="22.119" gradientTransform="translate(6.39225,12.18459)" gradientUnits="userSpaceOnUse" xlink:href="#linearGradient2301"/><linearGradient id="linearGradient2301"><stop id="stop2303" offset="0" stop-color="#ce5c00" stop-opacity="1"/><stop id="stop2305" offset="1" stop-color="#ce5c00"/></linearGradient><linearGradient id="linearGradient6488" x1="26.379" x2="25.485" y1="34.39" y2="32.714" gradientUnits="userSpaceOnUse" xlink:href="#linearGradient6437"/><linearGradient id="linearGradient6437"><stop id="stop6439" offset="0" stop-color="#e9b96e" stop-opacity="1"/><stop id="stop6441" offset="1" stop-color="#fff" stop-opacity="1"/></linearGradient></defs><metadata id="metadata30576"/><g id="layer1" transform="translate(0,-1028.3622)"><g id="g6847" transform="matrix(0.61097507,0,0,0.62122742,14.591352,413.05129)"><g id="layer1-7" display="inline" transform="translate(-46.930574,993.1747)"><g id="g6471"><g id="g6462"><g id="g6458"><path id="path2273" fill="url(#linearGradient6484)" fill-opacity="1" fill-rule="evenodd" stroke="url(#linearGradient6486)" stroke-dasharray="none" stroke-linecap="butt" stroke-linejoin="round" stroke-miterlimit="4" stroke-opacity="1" stroke-width="1" d="m 25.89225,30.18459 19,-19 c 2.175049,0.359961 3.084719,1.732225 3.5,3.5 l -19,19 -4.616117,0.704505 z"/><path id="path2313" fill="none" stroke="#fff" stroke-dasharray="none" stroke-linecap="butt" stroke-linejoin="miter" stroke-miterlimit="4" stroke-opacity="1" stroke-width="1" d="m 26.792248,30.68459 18.49775,-18.397748 c 1.089745,0.178435 1.517261,0.987944 2,2 l -18.397748,18.49775 -3.300003,0.900001 z" display="inline" opacity=".282"/></g><g id="g6451"><path id="path2298" fill="url(#linearGradient6488)" fill-opacity="1" fill-rule="evenodd" stroke="none" d="m 24.549577,34.633026 1.666322,-4.180309 c 0,0 1.199535,0.24536 1.932177,0.975089 0.732642,0.729729 0.998391,1.943828 0.998391,1.943828 z"/><path id="path5446" fill="none" stroke="#e9b96e" stroke-dasharray="none" stroke-linecap="round" stroke-linejoin="round" stroke-miterlimit="4" stroke-opacity="1" stroke-width="1" d="m 23,21.5 -5.5,1.5 2,-5" transform="translate(6.39225,12.18459)"/><path id="path2283" fill="#000" fill-opacity="1" fill-rule="evenodd" stroke="none" d="m 23.95475,33.68459 -0.90625,2.25 2.34375,-0.65625 c 0.002,-0.03184 0,-0.06141 0,-0.09375 0,-0.802125 -0.645308,-1.459801 -1.4375,-1.5 z" display="inline"/></g></g></g><path id="path4113-1" fill="#ef2929" fill-opacity="1" fill-rule="nonzero" stroke="#ef2929" stroke-width="1" d="m 42.821682,13.147263 c 1.834152,-0.500531 3.885052,1.651475 3.449911,3.449919 L 48.46699,14.40178 c 1.066511,-2.466563 -1.132252,-4.4097129 -3.494714,-3.494723 z" color="#000" display="inline" enable-background="new" overflow="visible" visibility="visible" style="marker:none"/><path id="path4095-8" fill="#babdb6" fill-opacity="1" fill-rule="nonzero" stroke="#888a85" stroke-width="1" d="m 40.561976,15.25084 c 1.936448,-0.528484 4.101732,1.743706 3.642321,3.642586 l 2.317841,-2.31801 c 0.754457,-1.595776 -2.044633,-4.337495 -3.689625,-3.689891 z" color="#000" display="inline" enable-background="new" overflow="visible" visibility="visible" style="marker:none"/></g></g></g></svg>