<svg xmlns="http://www.w3.org/2000/svg" xmlns:svg="http://www.w3.org/2000/svg" xmlns:xlink="http://www.w3.org/1999/xlink" id="svg11300" width="18" height="18" version="1.0" viewBox="0 0 18 18"><defs id="defs3"><linearGradient id="linearGradient4176"><stop id="stop4178" offset="0" stop-color="#fff" stop-opacity="1"/><stop id="stop4180" offset="1" stop-color="#fff" stop-opacity="0"/></linearGradient><linearGradient id="linearGradient7319" x1="-37.5" x2="-37.5" y1="199.344" y2="204.346" gradientTransform="matrix(0.45949087,0.45589994,-0.45949087,0.45589994,121.58064,-71.627848)" gradientUnits="userSpaceOnUse" xlink:href="#linearGradient4176"/></defs><metadata id="metadata4"/><g id="layer1" transform="translate(0,2)"><g id="g4368"><rect id="rect6196" width="18" height="18" x="0" y="-2" fill="#000" fill-opacity="0" stroke="none" stroke-dasharray="none" stroke-dashoffset="0" stroke-linecap="round" stroke-linejoin="round" stroke-miterlimit="4" stroke-opacity="1" stroke-width=".728" opacity=".243"/><g id="g4346" transform="matrix(1.0587177,0,0,1.0694926,-0.01002066,-2.2907592)"><path id="path7235" fill="#d3d7cf" fill-opacity="1" fill-rule="evenodd" stroke="#888a85" stroke-linecap="butt" stroke-linejoin="miter" stroke-opacity="1" stroke-width=".667" d="M 9.8343554,4.1370085 4.1204843,9.8347683 v 1.3240377 h 1.32997 L 11.164319,5.4565976 Z"/><path id="path17734" fill="#fff" fill-opacity="1" stroke="none" stroke-dashoffset="0" stroke-linecap="round" stroke-linejoin="round" stroke-miterlimit="4" stroke-opacity="1" stroke-width=".647" d="M 9.9011892,4.516309 10.361904,4.9929007 5.1181827,10.187119 5.0952246,9.2577905 Z"/><path id="path7237" fill="#183968" fill-opacity="1" stroke="#2e3436" stroke-dasharray="none" stroke-dashoffset="0" stroke-linecap="round" stroke-linejoin="round" stroke-miterlimit="4" stroke-opacity="1" stroke-width=".667" d="M 13.353849,2.0284512 C 12.697656,1.3752652 11.632552,1.3752008 10.976359,2.0283867 10.675604,2.3278039 10.51107,2.7161952 10.486,3.1081971 L 9.2972677,3.6702168 11.689619,6.0516925 12.26912,4.883166 c 0.393823,-0.024952 0.783987,-0.1887799 1.084735,-0.4881326 0.656187,-0.653186 0.65618,-1.7133962 -6e-6,-2.3665822 z" opacity="1"/><path id="path7247" fill="none" fill-opacity="1" stroke="url(#linearGradient7319)" stroke-dasharray="none" stroke-dashoffset="0" stroke-linecap="round" stroke-linejoin="miter" stroke-miterlimit="4" stroke-opacity="1" stroke-width=".667" d="m 12.910907,2.4559782 c -0.45293,-0.4493837 -1.034368,-0.4025111 -1.457094,0.016892 -0.19375,0.1922614 -0.237119,0.7317153 -0.24478,0.9918678 l -0.624261,0.330365 0.962049,0.9545373 0.347341,-0.6050883 c 0.262195,-0.00761 0.777196,-0.022179 0.970939,-0.214376 0.422726,-0.4194678 0.498729,-1.0248141 0.04581,-1.4741978 z" opacity=".59"/><path id="path7284" fill="#babdb6" fill-opacity="1" fill-rule="evenodd" stroke="none" stroke-linecap="butt" stroke-linejoin="miter" stroke-opacity="1" stroke-width=".647" d="M 7.615798,6.769288 4.4454064,9.9012409 V 10.842174 H 5.3317585 L 9.4137021,6.769288 Z"/></g><g id="g4350" transform="translate(2)"><path id="path13012-0" fill="#204a87" fill-opacity="1" stroke="none" d="m 10,10 v 6 h 6 v -6 z m 1,1 h 4 v 4 h -4 z" display="inline"/><rect id="rect4080" width="4" height="4" x="11" y="11" fill="#babdb6" fill-opacity="1" fill-rule="nonzero" stroke="none" stroke-dasharray="none" stroke-dashoffset="0" stroke-linecap="round" stroke-linejoin="round" stroke-miterlimit="4" stroke-opacity="1" stroke-width=".486" clip-rule="nonzero" color="#000" color-interpolation="sRGB" color-interpolation-filters="linearRGB" color-rendering="auto" display="inline" enable-background="accumulate" image-rendering="auto" opacity="1" overflow="visible" shape-rendering="auto" text-rendering="auto" visibility="visible" style="isolation:auto;mix-blend-mode:normal;solid-color:#000;solid-opacity:1"/></g></g></g></svg>