<svg xmlns="http://www.w3.org/2000/svg" xmlns:svg="http://www.w3.org/2000/svg" xmlns:xlink="http://www.w3.org/1999/xlink" id="svg2" width="16" height="16" version="1.1" viewBox="0 0 16 16"><metadata id="metadata90"/><defs id="defs7386"><linearGradient id="linearGradient19943" x1="69.188" x2="76.063" y1="234.188" y2="252.021" gradientUnits="userSpaceOnUse" xlink:href="#linearGradient11528"/><linearGradient id="linearGradient11528"><stop id="stop11530" offset="0" stop-color="#fff" stop-opacity="1"/><stop id="stop11532" offset="1" stop-color="#fff" stop-opacity=".236"/></linearGradient></defs><g id="fill_pattern" display="inline" transform="matrix(0.88888939,0,0,0.88888939,-61.333341,-208.88902)"><path id="path19823" fill="#c00" fill-opacity="1" stroke="#c00" stroke-dashoffset="0" stroke-linecap="round" stroke-linejoin="miter" stroke-miterlimit="4" stroke-opacity="1" stroke-width="1.014" d="m 70.021817,235.5071 v 3.84054 c 0.324171,0.0931 0.674284,0.15612 1.029442,0.15612 1.988883,0 3.603048,-1.56669 3.603048,-3.49708 0,-0.16751 -0.0082,-0.33834 -0.03222,-0.49958 z m 11.870705,0 c -0.02347,0.16124 -0.03212,0.33207 -0.03212,0.49958 0,1.93039 1.614165,3.49708 3.603048,3.49708 0.355158,0 0.705271,-0.0631 1.029442,-0.15612 v -3.84054 z m -3.635166,4.99582 c -1.988883,0 -3.603049,1.56669 -3.603049,3.49708 0,1.93039 1.614166,3.49708 3.603049,3.49708 1.988882,0 3.603048,-1.56669 3.603048,-3.49708 0,-1.93039 -1.614166,-3.49708 -3.603048,-3.49708 z m -7.206097,7.99332 c -0.549002,0 -1.078341,0.13002 -1.544164,0.34347 v 3.65319 h 5.114991 c 0.02357,-0.16124 0.03222,-0.33208 0.03222,-0.49958 0,-1.93039 -1.614165,-3.49708 -3.603047,-3.49708 z m 14.412193,0 c -1.988883,0 -3.603048,1.56669 -3.603048,3.49708 h 4.63249 v -3.34096 c -0.324171,-0.0931 -0.674284,-0.15612 -1.029442,-0.15612 z" opacity="1"/><path id="path19825" fill="none" fill-opacity="1" stroke="#555753" stroke-dasharray="none" stroke-dashoffset="0" stroke-linecap="round" stroke-linejoin="miter" stroke-miterlimit="4" stroke-opacity="1" stroke-width="1.125" d="m 69.562227,235.56227 h 16.875475 v 16.87548 H 69.562227 Z"/><path id="path19827" fill="none" fill-opacity="1" stroke="url(#linearGradient19943)" stroke-dashoffset="0" stroke-linecap="round" stroke-linejoin="miter" stroke-miterlimit="4" stroke-opacity="1" stroke-width="1" d="m 70.5,236.4998 h 15.00001 v 15.0001 H 70.5 Z"/></g></svg>