<svg xmlns="http://www.w3.org/2000/svg" xmlns:svg="http://www.w3.org/2000/svg" id="svg2" width="16" height="16" enable-background="new 0 0 128 129.396" overflow="visible" version="1.0" viewBox="0 0 16 16" xml:space="preserve"><metadata id="metadata367"/><g id="g4339" transform="translate(-1.3056073,2.264427)"><path id="rect1512" fill="#eeeeec" fill-opacity="1" fill-rule="nonzero" stroke="#757575" stroke-dashoffset="0" stroke-linecap="butt" stroke-linejoin="miter" stroke-miterlimit="4" stroke-opacity="1" stroke-width=".343" marker-end="none" marker-mid="none" marker-start="none" d="m 8.5121608,0.68080448 h 1.9879612 c 0.280213,0 4.805485,5.73497232 4.805485,6.05476852 l -0.02448,6.174769 c 0,0.319798 -0.126383,0.648944 -0.406596,0.648944 l -10.8914593,0.0046 c -0.2802131,0 -0.5057994,-0.257454 -0.5057994,-0.577252 l 0.018847,-6.5337308 c 0,-0.3197962 4.7358313,-5.77212272 5.0160435,-5.77212272 z" color="#000" display="inline" overflow="visible" visibility="visible" style="marker:none"/><path id="path5" fill="none" stroke-width=".352" d="M 17.305765,13.735573 H 1.4228544 v -16 H 17.305765 Z"/><path id="path342" fill="url(#XMLID_39_)" stroke-width=".352" d="m 9.4156899,1.671127 6.6324871,6.061082 0.173347,0.138375 0.141457,-0.0605 L 16.23232,7.541208 16.13503,7.462338 9.4156839,1.965207 2.6211414,7.522712 l -0.083262,0.05087 -0.07594,0.2495 0.1518805,0.04562 0.1347568,-0.108876 z"/><path id="path362" fill="#ef2929" stroke="#a40000" stroke-width=".352" d="M 9.3744871,-1.6076 1.706611,4.782296 1.4876913,7.311917 2.1885159,8.040638 c 0,0 7.1512267,-6.056639 7.2271677,-6.11689 L 16.295387,8.116639 16.96064,7.296252 16.394428,4.785889 9.4156836,-1.644475 Z"/><path id="path1536" fill="#fff" fill-opacity="0" fill-rule="nonzero" stroke="none" stroke-dasharray="none" stroke-dashoffset="0" stroke-linecap="butt" stroke-linejoin="miter" stroke-miterlimit="4" stroke-opacity="1" stroke-width=".352" marker-end="none" marker-mid="none" marker-start="none" d="M 1.8442977,4.867178 1.7421299,7.205272 9.3881714,0.76063 9.3635269,-1.319756 Z" color="#000" display="inline" opacity=".409" overflow="visible" visibility="visible" style="marker:none"/><path id="path2337" fill="#000" fill-opacity="0" fill-rule="nonzero" stroke="none" stroke-dasharray="none" stroke-dashoffset="0" stroke-linecap="butt" stroke-linejoin="miter" stroke-miterlimit="4" stroke-opacity="1" stroke-width=".352" marker-end="none" marker-mid="none" marker-start="none" d="m 9.4283103,0.679761 0.034853,-2.061949 6.7733237,6.231261 0.522766,2.294831 z" color="#000" display="inline" opacity=".136" overflow="visible" visibility="visible" style="marker:none"/><path id="rect2361" fill="none" fill-opacity="1" fill-rule="nonzero" stroke="#fff" stroke-dashoffset="0" stroke-linecap="butt" stroke-linejoin="miter" stroke-miterlimit="4" stroke-opacity="1" stroke-width=".352" marker-end="none" marker-mid="none" marker-start="none" d="m 10.345882,7.37589 h 3.167827 c 0.270034,0 0.487428,0.218995 0.487428,0.491021 l -0.0028,3.205027 c 0,0.272026 -0.208966,0.446896 -0.479001,0.446896 h -3.173464 c -0.270036,0 -0.4874281,-0.218996 -0.4874281,-0.491021 V 7.866911 c 0,-0.272026 0.2173921,-0.491021 0.4874281,-0.491021 z" color="#000" display="inline" opacity=".318" overflow="visible" visibility="visible" style="marker:none"/><rect stroke-miterlimit="4" style="marker:none" id="rect3263" width="3.636" height="3.636" x="9.488" y="7.918" fill="#3465a4" fill-opacity="1" fill-rule="nonzero" stroke="#757575" stroke-dasharray="none" stroke-dashoffset="0" stroke-linecap="square" stroke-linejoin="miter" stroke-opacity="1" stroke-width=".364" marker-end="none" marker-mid="none" marker-start="none" color="#000" display="inline" opacity="1" overflow="visible" rx=".139" ry=".139" visibility="visible"/><path id="path188-3" fill="#d3d7cf" fill-opacity="1" fill-rule="evenodd" stroke="#757575" stroke-dasharray="none" stroke-linecap="round" stroke-linejoin="miter" stroke-miterlimit="4" stroke-opacity="1" stroke-width=".38" d="M 8.1156909,7.9254888 V 13.545656 H 4.5639341 L 4.4955234,7.9254888 Z" clip-rule="evenodd" overflow="visible"/></g></svg>