<svg xmlns="http://www.w3.org/2000/svg" xmlns:svg="http://www.w3.org/2000/svg" id="svg30571" width="16" height="16" version="1.1" viewBox="0 0 16 16"><metadata id="metadata30576"/><g id="layer1" transform="translate(0,-1036.3622)"><g id="g3941" transform="translate(-0.24242425,0.24244902)"><g id="g3977" transform="matrix(0.93321318,0,0,0.93335003,5.9223895,69.217202)"><path id="path6388-7-7-4-7" fill="#73d216" fill-opacity="1" fill-rule="nonzero" stroke="#4e9a06" stroke-dasharray="none" stroke-dashoffset="0" stroke-linecap="round" stroke-linejoin="miter" stroke-miterlimit="4" stroke-opacity="1" stroke-width=".484" d="m 8.5903015,1037.2623 c -0.3363691,-0.012 -0.6603216,0.1792 -0.8906122,0.5249 -2.238316,3.3696 -3.2300173,5.3421 -6.2851843,9.9974 l -4.0546012,-7.5547 c -0.1960806,-0.416 -0.5879517,-0.6753 -1.0137045,-0.6709 -0.8583431,0.01 -1.3947062,1.0262 -0.9756904,1.8508 l 4.53994786,9.2772 c 0.05828043,0.1177 0.13346802,0.2243 0.22265301,0.3156 0.23209937,0.5177 0.64716663,0.814 1.08068133,0.7715 0.3059606,-0.03 0.5915887,-0.2269 0.7964821,-0.5485 3.8220534,-5.8469 4.9326629,-7.4279 7.4127142,-11.1616 0.6963406,-1.049 0.1863691,-2.7649 -0.8326859,-2.8017 z" baseline-shift="baseline" clip-rule="nonzero" color="#000" color-interpolation="sRGB" color-interpolation-filters="linearRGB" color-rendering="auto" direction="ltr" display="inline" enable-background="accumulate" font-family="sans-serif" font-size="medium" font-stretch="normal" font-style="normal" font-variant="normal" font-weight="normal" image-rendering="auto" letter-spacing="normal" opacity="1" overflow="visible" shape-rendering="auto" text-anchor="start" text-decoration="none" text-rendering="auto" visibility="visible" word-spacing="normal" writing-mode="lr-tb" style="line-height:normal;text-indent:0;text-align:start;text-decoration-line:none;text-decoration-style:solid;text-decoration-color:#000;text-transform:none;white-space:normal;isolation:auto;mix-blend-mode:normal;solid-color:#000;solid-opacity:1"/></g><rect id="rect3999" width="16" height="16" x=".242" y="1036.12" fill="none" fill-opacity="1" fill-rule="nonzero" stroke="none" stroke-dasharray="none" stroke-dashoffset="0" stroke-linecap="round" stroke-linejoin="round" stroke-miterlimit="4" stroke-opacity="1" stroke-width=".485" clip-rule="nonzero" color="#000" color-interpolation="sRGB" color-interpolation-filters="linearRGB" color-rendering="auto" display="inline" enable-background="accumulate" image-rendering="auto" opacity="1" overflow="visible" shape-rendering="auto" text-rendering="auto" visibility="visible" style="isolation:auto;mix-blend-mode:normal;solid-color:#000;solid-opacity:1"/></g></g></svg>