<svg xmlns="http://www.w3.org/2000/svg" xmlns:svg="http://www.w3.org/2000/svg" id="svg30571" width="16" height="16" version="1.1" viewBox="0 0 16 16"><metadata id="metadata30576"/><g id="layer1" transform="translate(0,-1036.3622)"><path id="path6388-7-7-4-7" fill="#c00" fill-opacity="1" fill-rule="nonzero" stroke="#a40000" stroke-dasharray="none" stroke-dashoffset="0" stroke-linecap="round" stroke-linejoin="miter" stroke-miterlimit="4" stroke-opacity="1" stroke-width=".371" d="m 8.1181827,1036.5488 c -3.3280239,-0.056 -6.4420412,2.043 -7.53900353,5.372 -1.35011096,4.0977 0.88144193,8.5113 4.97676643,9.8621 4.0953243,1.3508 8.5069284,-0.8828 9.8570304,-4.9803 l 0.07287,-0.1949 c 1.213443,-4.053 -1.033475,-8.3421 -5.04964,-9.667 -0.7678713,-0.2532 -1.5500326,-0.3787 -2.3180263,-0.3919 z m -0.122105,2.3454 c 3.0184813,0 5.4651873,2.4483 5.4651873,5.4685 0,1.0114 -0.279766,1.9541 -0.758234,2.7667 l -7.4720424,-7.479 c 0.8117387,-0.4779 1.755138,-0.7562 2.7650891,-0.7562 z m -4.7030148,2.6939 7.4700731,7.483 c -0.8122568,0.4788 -1.7561467,0.7583 -2.7670583,0.7583 -3.0185016,0 -5.4651868,-2.4467 -5.4651868,-5.4667 0,-1.014 0.2814768,-1.9605 0.762172,-2.7746 z" baseline-shift="baseline" clip-rule="nonzero" color="#000" color-interpolation="sRGB" color-interpolation-filters="linearRGB" color-rendering="auto" direction="ltr" display="inline" enable-background="accumulate" font-family="sans-serif" font-size="medium" font-stretch="normal" font-style="normal" font-variant="normal" font-weight="normal" image-rendering="auto" letter-spacing="normal" opacity="1" overflow="visible" shape-rendering="auto" text-anchor="start" text-decoration="none" text-rendering="auto" visibility="visible" word-spacing="normal" writing-mode="lr-tb" style="line-height:normal;text-indent:0;text-align:start;text-decoration-line:none;text-decoration-style:solid;text-decoration-color:#000;text-transform:none;white-space:normal;isolation:auto;mix-blend-mode:normal;solid-color:#000;solid-opacity:1"/></g></svg>