<svg xmlns="http://www.w3.org/2000/svg" xmlns:svg="http://www.w3.org/2000/svg" id="svg30571" width="16" height="16" version="1.1" viewBox="0 0 16 16"><metadata id="metadata30576"/><g id="layer1" transform="translate(0,-1036.3622)"><g id="g3946" transform="translate(0,0.24244902)"><g id="g7082" transform="matrix(-0.93806241,0.94304854,-0.94323067,-0.93788129,939.12249,2030.5759)"><path display="inline" style="line-height:normal;text-indent:0;text-align:start;text-decoration-line:none;text-decoration-style:solid;text-decoration-color:#000;text-transform:none;white-space:normal;isolation:auto;mix-blend-mode:normal;solid-color:#000;solid-opacity:1" id="path6388-7-7-4-7" fill="#000" fill-opacity="1" fill-rule="nonzero" stroke="#fff" stroke-dasharray="none" stroke-dashoffset="0" stroke-linecap="round" stroke-linejoin="miter" stroke-miterlimit="4" stroke-opacity="1" stroke-width=".15" d="m -35.949238,1023.0008 a 0.92543442,0.92581529 45.157402 0 0 1.289599,-0.022 l 2.343277,-2.3571 2.340626,2.3555 a 0.92612756,0.92650872 45.157402 1 0 1.313877,-1.3066 l -2.348803,-2.3617 2.350468,-2.3641 a 0.92509038,0.9254711 45.157402 0 0 -0.677466,-1.5873 0.92509038,0.9254711 45.157402 0 0 -0.635872,0.2831 l -2.342247,2.3559 -2.342678,-2.3556 a 0.92521673,0.92559751 45.157402 0 0 -0.662881,-0.2822 0.92521673,0.92559751 45.157402 0 0 -0.648941,1.5868 l 2.348799,2.3638 -2.349442,2.3632 a 0.92543442,0.92581529 45.157402 0 0 0.02169,1.3286 z" baseline-shift="baseline" clip-rule="nonzero" color="#000" color-interpolation="sRGB" color-interpolation-filters="linearRGB" color-rendering="auto" direction="ltr" enable-background="accumulate" font-family="sans-serif" font-size="medium" font-stretch="normal" font-style="normal" font-variant="normal" font-weight="normal" image-rendering="auto" letter-spacing="normal" opacity="1" overflow="visible" shape-rendering="auto" text-anchor="start" text-decoration="none" text-rendering="auto" visibility="visible" word-spacing="normal" writing-mode="lr-tb"/></g><rect id="rect3999" width="16" height="16" x="0" y="1036.12" fill="none" fill-opacity="1" fill-rule="nonzero" stroke="none" stroke-dasharray="none" stroke-dashoffset="0" stroke-linecap="round" stroke-linejoin="round" stroke-miterlimit="4" stroke-opacity="1" stroke-width=".485" clip-rule="nonzero" color="#000" color-interpolation="sRGB" color-interpolation-filters="linearRGB" color-rendering="auto" display="inline" enable-background="accumulate" image-rendering="auto" opacity="1" overflow="visible" shape-rendering="auto" text-rendering="auto" visibility="visible" style="isolation:auto;mix-blend-mode:normal;solid-color:#000;solid-opacity:1"/></g></g></svg>