<svg xmlns="http://www.w3.org/2000/svg" xmlns:svg="http://www.w3.org/2000/svg" id="svg30571" width="16" height="16" version="1.1" viewBox="0 0 16 16"><metadata id="metadata30576"/><g id="layer1" transform="translate(0,-1036.3622)"><g id="g4246"><g id="g4239"><g id="g7082" transform="matrix(1.70995,-0.0450243,0.04544797,1.7064456,17.314404,-697.44834)"><path display="inline" style="line-height:normal;text-indent:0;text-align:start;text-decoration-line:none;text-decoration-style:solid;text-decoration-color:#000;text-transform:none;white-space:normal;isolation:auto;mix-blend-mode:normal;solid-color:#000;solid-opacity:1" id="path6388-7-7-4-7" fill="#000" fill-opacity="1" fill-rule="nonzero" stroke="none" stroke-dasharray="none" stroke-dashoffset="0" stroke-linecap="round" stroke-linejoin="miter" stroke-miterlimit="4" stroke-opacity="1" stroke-width=".261" d="M 2.5859375 1 C 1.1413751 1.039061 0.45432169 2.8449876 1.5136719 3.8476562 L 5.7285156 7.9335938 L 5.828125 8.03125 L 5.796875 8.0625 L 1.5 12.246094 C -0.01372932 13.802694 2.2480915 16.027203 3.7617188 14.470703 L 8.1582031 10.300781 L 12.246094 14.5 C 13.802641 16.013652 16.027252 13.751934 14.470703 12.238281 L 10.425781 7.9726562 L 10.457031 7.9414062 L 14.529297 3.7539062 C 14.840272 3.4431063 15.010617 3.0212375 15 2.5859375 C 14.9612 1.1413375 13.154997 0.45427187 12.152344 1.5136719 L 8.0976562 5.6972656 L 7.9394531 5.5429688 L 3.7539062 1.4707031 C 3.4431841 1.1595556 3.0212069 0.98956361 2.5859375 1 z" baseline-shift="baseline" clip-rule="nonzero" color="#000" color-interpolation="sRGB" color-interpolation-filters="linearRGB" color-rendering="auto" direction="ltr" enable-background="accumulate" font-family="sans-serif" font-size="medium" font-stretch="normal" font-style="normal" font-variant="normal" font-weight="normal" image-rendering="auto" letter-spacing="normal" opacity="1" overflow="visible" shape-rendering="auto" text-anchor="start" text-decoration="none" text-rendering="auto" transform="matrix(0.5844026,0.01541937,-0.01556446,0.58560274,-37.104415,1015.0572)" visibility="visible" word-spacing="normal" writing-mode="lr-tb"/></g><rect id="rect3999" width="16" height="16" x="0" y="1036.362" fill="none" fill-opacity="1" fill-rule="nonzero" stroke="none" stroke-dasharray="none" stroke-dashoffset="0" stroke-linecap="round" stroke-linejoin="round" stroke-miterlimit="4" stroke-opacity="1" stroke-width=".485" clip-rule="nonzero" color="#000" color-interpolation="sRGB" color-interpolation-filters="linearRGB" color-rendering="auto" display="inline" enable-background="accumulate" image-rendering="auto" opacity="1" overflow="visible" shape-rendering="auto" text-rendering="auto" visibility="visible" style="isolation:auto;mix-blend-mode:normal;solid-color:#000;solid-opacity:1"/></g></g></g></svg>