<svg xmlns="http://www.w3.org/2000/svg" xmlns:svg="http://www.w3.org/2000/svg" id="svg7384" width="16" height="16" version="1.1" viewBox="0 0 16 16"><metadata id="metadata90"/><g id="g4317"><g id="use4898-6" clip-path="url(#clipPath7655)" display="inline" transform="matrix(-0.07682362,0,0,0.07682362,18.70247,-1.0767273)"><rect id="rect6616" width="195.252" height="195.252" x="-236.938" y="20.524" fill="#eeeeec" fill-opacity="1" stroke="#555753" stroke-dasharray="none" stroke-dashoffset="0" stroke-linecap="round" stroke-linejoin="miter" stroke-miterlimit="4" stroke-opacity="1" stroke-width="13.017" color="#000" display="inline" enable-background="new" overflow="visible" rx="41.75" ry="41.69" transform="scale(-1,1)" visibility="visible" style="marker:none"/></g><path id="rect3099-9-3" fill="#000" fill-opacity="1" stroke="#555753" stroke-dasharray="none" stroke-dashoffset="0" stroke-linecap="round" stroke-linejoin="miter" stroke-miterlimit="4" stroke-opacity="1" stroke-width="1" d="m 3.9999996,3.5000027 c -0.26834,0 -0.5,0.23166 -0.5,0.5 v 2.4999999 h 2 V 5.5000027 h 1 v -2 z m 5.5,0 v 2 H 10.5 v 0.9999999 h 2 V 4.0000027 c 0,-0.26834 -0.23166,-0.5 -0.5,-0.5 z m -6,5.9999999 v 2.5000004 c 0,0.26834 0.23166,0.5 0.5,0.5 h 2.5 v -2 h -1 V 9.5000026 Z m 7.0000004,0 V 10.500003 H 9.4999996 v 2 H 12 c 0.26834,0 0.5,-0.23166 0.5,-0.5 V 9.5000026 Z" color="#000" display="inline" enable-background="new" overflow="visible" visibility="visible" style="marker:none"/></g></svg>