<svg xmlns="http://www.w3.org/2000/svg" xmlns:cc="http://web.resource.org/cc/" xmlns:svg="http://www.w3.org/2000/svg" xmlns:xlink="http://www.w3.org/1999/xlink" id="svg1" width="48" height="48" x="0" y="0" version="1.0"><metadata id="metadata162"/><defs id="defs3"><linearGradient id="linearGradient3073"><stop id="stop3075" offset="0" stop-color="#c4a000" stop-opacity="1"/><stop id="stop3077" offset="1" stop-color="#fce94f" stop-opacity="1"/></linearGradient><linearGradient id="linearGradient3032"><stop id="stop3034" offset="0" stop-color="#edd400" stop-opacity="1"/><stop id="stop3036" offset="1" stop-color="#c4a000" stop-opacity="1"/></linearGradient><linearGradient id="linearGradient2974"><stop id="stop2976" offset="0" stop-color="#729fcf" stop-opacity="1"/><stop id="stop2978" offset="1" stop-color="#3465a4" stop-opacity="1"/></linearGradient><linearGradient id="linearGradient2983"><stop id="stop2985" offset="0" stop-color="#888a85" stop-opacity="1"/><stop id="stop2987" offset="1" stop-color="#d3d7cf" stop-opacity="1"/></linearGradient><linearGradient id="linearGradient2977"><stop id="stop2979" offset="0" stop-color="#babdb6" stop-opacity="1"/><stop id="stop2981" offset="1" stop-color="#888a85" stop-opacity="1"/></linearGradient><linearGradient id="linearGradient2846"><stop id="stop2848" offset="0" stop-color="#3465a4" stop-opacity="1"/><stop id="stop2850" offset="1" stop-color="#729fcf" stop-opacity="1"/></linearGradient><linearGradient id="linearGradient2966" x1="27.375" x2="27.375" y1="15.326" y2="41.876" gradientTransform="matrix(1.610365,0,0,1.55,-33.72478,-23.025)" gradientUnits="userSpaceOnUse" xlink:href="#linearGradient2846"/><linearGradient id="linearGradient2972" x1="31.116" x2="31.046" y1="25.606" y2="29.544" gradientTransform="matrix(1.264584,0,0,2.162159,-23.01148,-41.87829)" gradientUnits="userSpaceOnUse" xlink:href="#linearGradient2974"/><linearGradient id="linearGradient3000" x1="27.375" x2="27.375" y1="19.375" y2="41.876" gradientTransform="matrix(1.611193,0,0,1.59941,-20.75331,-37.27281)" gradientUnits="userSpaceOnUse" xlink:href="#linearGradient2983"/><linearGradient id="linearGradient3002" x1="31.116" x2="31.116" y1="27.305" y2="30.069" gradientTransform="matrix(1.276074,0,0,2.118696,-10.31596,-53.60428)" gradientUnits="userSpaceOnUse" xlink:href="#linearGradient2977"/><linearGradient id="linearGradient3092" x1="31.116" x2="31.116" y1="27.305" y2="30.069" gradientTransform="matrix(1.276074,0,0,2.118696,-9.31596,-56.60428)" gradientUnits="userSpaceOnUse" xlink:href="#linearGradient3032"/><linearGradient id="linearGradient3097" x1="27.375" x2="27.375" y1="16.22" y2="38.793" gradientTransform="matrix(1.611193,0,0,1.59941,-19.75331,-40.27281)" gradientUnits="userSpaceOnUse" xlink:href="#linearGradient3073"/></defs><g id="layer2" display="inline"><path id="path3006" fill="url(#linearGradient3097)" fill-opacity="1" fill-rule="evenodd" stroke="#c4a000" stroke-dasharray="none" stroke-dashoffset="0" stroke-linecap="round" stroke-linejoin="round" stroke-miterlimit="4" stroke-opacity="1" stroke-width="1" marker-end="none" marker-mid="none" marker-start="none" d="M 26.165688,0.5121371 C 22.281889,0.5121371 19.159841,0.9828435 16.498532,1.7116944 L 16.498532,32.500331 L 45.500003,32.500331 L 45.500003,1.7116944 C 42.84126,0.9880063 39.737948,0.5121371 35.832846,0.5121371 L 26.165688,0.5121371 z" color="#000" display="inline" overflow="visible" visibility="visible" style="marker:none"/><path id="path3008" fill="#fce94f" fill-opacity="1" fill-rule="evenodd" stroke="#c4a000" stroke-dashoffset="0" stroke-linecap="round" stroke-linejoin="miter" stroke-miterlimit="4" stroke-opacity="1" stroke-width="1" marker-end="none" marker-mid="none" marker-start="none" d="M 39.499993,3.3523505 C 39.499993,5.6418511 35.691995,7.499996 30.999995,7.499996 C 26.307996,7.499996 22.499997,5.6418511 22.499997,3.3523505 C 22.499997,1.0628513 23.341341,0.5008457 30.999995,0.5008457 C 38.791076,0.5008457 39.499993,1.0628513 39.499993,3.3523505 z" color="#000" display="inline" overflow="visible" visibility="visible" style="marker:none"/><g id="g3085" transform="translate(0,2)"><rect stroke-linejoin="round" style="marker:none" id="rect3081" width="28" height="4.063" x="17" y="12" fill="#c4a000" fill-opacity="1" fill-rule="evenodd" stroke="none" stroke-dasharray="none" stroke-dashoffset="0" stroke-linecap="round" stroke-miterlimit="4" stroke-opacity="1" stroke-width="2" marker-end="none" marker-mid="none" marker-start="none" color="#000" display="inline" opacity=".7" overflow="visible" visibility="visible"/><rect stroke-linejoin="round" style="marker:none" id="rect3083" width="28" height="4.063" x="17" y="18" fill="#c4a000" fill-opacity="1" fill-rule="evenodd" stroke="none" stroke-dasharray="none" stroke-dashoffset="0" stroke-linecap="round" stroke-miterlimit="4" stroke-opacity="1" stroke-width="2" marker-end="none" marker-mid="none" marker-start="none" color="#000" display="inline" opacity=".7" overflow="visible" visibility="visible"/></g><path id="path3010" fill="none" fill-opacity="1" fill-rule="evenodd" stroke="#fff" stroke-dasharray="none" stroke-dashoffset="0" stroke-linecap="round" stroke-linejoin="miter" stroke-miterlimit="4" stroke-opacity="1" stroke-width=".598" marker-end="none" marker-mid="none" marker-start="none" d="M 24.5,28.46875 C 22.459316,28.46875 20.904224,28.749808 19.46875,29.09375 L 19.46875,46.53125 L 35.53125,46.53125 L 35.53125,29.09375 C 34.097014,28.750791 32.551878,28.46875 30.5,28.46875 L 24.5,28.46875 z" color="#000" display="inline" opacity=".502" overflow="visible" transform="matrix(1.680934,0,0,1.660899,-15.22569,-45.7837)" visibility="visible" style="marker:none"/><path id="path3012" fill="url(#linearGradient3092)" fill-opacity="1" fill-rule="evenodd" stroke="#c4a000" stroke-dashoffset="0" stroke-linecap="round" stroke-linejoin="miter" stroke-miterlimit="4" stroke-opacity="1" stroke-width="1" marker-end="none" marker-mid="none" marker-start="none" d="M 37.500004,3.0502542 C 37.500004,4.402512 34.588003,5.4999965 31.000002,5.4999965 C 27.412001,5.4999965 24.5,4.402512 24.5,3.0502542 C 24.5,0.9908902 27.412001,0.600512 31.000002,0.600512 C 34.588003,0.600512 37.500004,0.9448404 37.500004,3.0502542 z" color="#000" display="inline" overflow="visible" visibility="visible" style="marker:none"/><g id="g2994" transform="translate(-6,5)"><path id="path2945" fill="url(#linearGradient3000)" fill-opacity="1" fill-rule="evenodd" stroke="#888a85" stroke-dasharray="none" stroke-dashoffset="0" stroke-linecap="round" stroke-linejoin="round" stroke-miterlimit="4" stroke-opacity="1" stroke-width="1" marker-end="none" marker-mid="none" marker-start="none" d="M 25.165688,3.5121371 C 21.281889,3.5121371 18.159841,3.9828435 15.498532,4.7116944 L 15.498532,35.500331 L 44.500003,35.500331 L 44.500003,4.7116944 C 41.84126,3.9880063 38.737948,3.5121371 34.832846,3.5121371 L 25.165688,3.5121371 z" color="#000" display="inline" overflow="visible" visibility="visible" style="marker:none"/><path stroke-width="1" style="marker:none" id="path2947" fill="#d3d7cf" fill-opacity="1" fill-rule="evenodd" stroke="#888a85" stroke-dashoffset="0" stroke-linecap="round" stroke-linejoin="miter" stroke-miterlimit="4" stroke-opacity="1" marker-end="none" marker-mid="none" marker-start="none" d="M 38.499993,6.3523505 C 38.499993,8.6418511 34.691995,10.499996 29.999995,10.499996 C 25.307996,10.499996 21.499997,8.6418511 21.499997,6.3523505 C 21.499997,4.0628513 22.341341,3.5008457 29.999995,3.5008457 C 37.791076,3.5008457 38.499993,4.0628513 38.499993,6.3523505 z" color="#000" display="inline" overflow="visible" visibility="visible"/><path id="path2949" fill="none" fill-opacity="1" fill-rule="evenodd" stroke="#fff" stroke-dasharray="none" stroke-dashoffset="0" stroke-linecap="round" stroke-linejoin="miter" stroke-miterlimit="4" stroke-opacity="1" stroke-width=".598" marker-end="none" marker-mid="none" marker-start="none" d="M 24.5,28.46875 C 22.459316,28.46875 20.904224,28.749808 19.46875,29.09375 L 19.46875,46.53125 L 35.53125,46.53125 L 35.53125,29.09375 C 34.097014,28.750791 32.551878,28.46875 30.5,28.46875 L 24.5,28.46875 z" color="#000" display="inline" opacity=".502" overflow="visible" transform="matrix(1.680934,0,0,1.660899,-16.22569,-42.7837)" visibility="visible" style="marker:none"/><path stroke-width="1" style="marker:none" id="path2951" fill="url(#linearGradient3002)" fill-opacity="1" fill-rule="evenodd" stroke="#888a85" stroke-dashoffset="0" stroke-linecap="round" stroke-linejoin="miter" stroke-miterlimit="4" stroke-opacity="1" marker-end="none" marker-mid="none" marker-start="none" d="M 36.500004,6.0502542 C 36.500004,7.402512 33.588003,8.4999965 30.000002,8.4999965 C 26.412001,8.4999965 23.5,7.402512 23.5,6.0502542 C 23.5,3.9908902 26.412001,3.600512 30.000002,3.600512 C 33.588003,3.600512 36.500004,3.9448404 36.500004,6.0502542 z" color="#000" display="inline" overflow="visible" visibility="visible"/></g><path id="rect1927" fill="url(#linearGradient2966)" fill-opacity="1" fill-rule="evenodd" stroke="#204a87" stroke-dasharray="none" stroke-dashoffset="0" stroke-linecap="round" stroke-linejoin="round" stroke-miterlimit="4" stroke-opacity="1" stroke-width="1" marker-end="none" marker-mid="none" marker-start="none" d="M 12.170618,16.500003 C 8.2888133,16.500003 5.1683704,16.956168 2.5084275,17.662503 L 2.5084275,47.500004 L 31.494998,47.500004 L 31.494998,17.662503 C 28.83762,16.961171 25.735902,16.500003 21.832808,16.500003 L 12.170618,16.500003 z" color="#000" display="inline" overflow="visible" visibility="visible" style="marker:none"/><g id="g2988" opacity=".7" transform="translate(-1,3)"><path id="path2980" fill="none" fill-opacity=".75" fill-rule="evenodd" stroke="#204a87" stroke-dasharray="none" stroke-linecap="round" stroke-linejoin="miter" stroke-miterlimit="4" stroke-opacity="1" stroke-width="2" d="M 7,15 L 7,43"/><path id="path2982" fill="none" fill-opacity=".75" fill-rule="evenodd" stroke="#204a87" stroke-dasharray="none" stroke-linecap="round" stroke-linejoin="miter" stroke-miterlimit="4" stroke-opacity="1" stroke-width="2" d="M 11,18.437497 L 11,42.999992" display="inline"/><path id="path2984" fill="none" fill-opacity=".75" fill-rule="evenodd" stroke="#204a87" stroke-dasharray="none" stroke-linecap="round" stroke-linejoin="miter" stroke-miterlimit="4" stroke-opacity="1" stroke-width="2" d="M 25,18.531247 L 25,42.999992" display="inline"/><path id="path2986" fill="none" fill-opacity=".75" fill-rule="evenodd" stroke="#204a87" stroke-dasharray="none" stroke-linecap="round" stroke-linejoin="miter" stroke-miterlimit="4" stroke-opacity="1" stroke-width="2" d="M 29,15 L 29,43" display="inline"/></g><path id="path2829" fill="#729fcf" fill-opacity="1" fill-rule="evenodd" stroke="#204a87" stroke-dashoffset="0" stroke-linecap="round" stroke-linejoin="miter" stroke-miterlimit="4" stroke-opacity="1" stroke-width="1" marker-end="none" marker-mid="none" marker-start="none" d="M 25.499999,19.351844 C 25.499999,21.641622 21.692,23.499992 16.999999,23.499992 C 12.308002,23.499992 8.5000019,21.641622 8.5000019,19.351844 C 8.5000019,17.062066 9.341347,16.499993 16.999999,16.499993 C 24.791078,16.499993 25.499999,17.062066 25.499999,19.351844 z" color="#000" display="inline" overflow="visible" visibility="visible" style="marker:none"/><path id="path2941" fill="none" fill-opacity="1" fill-rule="evenodd" stroke="#fff" stroke-dasharray="none" stroke-dashoffset="0" stroke-linecap="round" stroke-linejoin="miter" stroke-miterlimit="4" stroke-opacity="1" stroke-width=".609" marker-end="none" marker-mid="none" marker-start="none" d="M 24.5,28.46875 C 22.459316,28.46875 20.904224,28.749808 19.46875,29.09375 L 19.46875,46.53125 L 35.53125,46.53125 L 35.53125,29.09375 C 34.097014,28.750791 32.551878,28.46875 30.5,28.46875 L 24.5,28.46875 z" color="#000" display="inline" opacity=".35" overflow="visible" transform="matrix(1.680933,0,0,1.605538,-29.22566,-28.20765)" visibility="visible" style="marker:none"/><path id="path2823" fill="url(#linearGradient2972)" fill-opacity="1" fill-rule="evenodd" stroke="#204a87" stroke-dashoffset="0" stroke-linecap="round" stroke-linejoin="miter" stroke-miterlimit="4" stroke-opacity="1" stroke-width="1" marker-end="none" marker-mid="none" marker-start="none" d="M 23.5,18.999999 C 23.5,20.379997 20.555694,21.499999 17,21.499999 C 13.444306,21.499999 10.5,20.379997 10.5,18.999999 C 10.5,17.045476 13.444306,16.5 17,16.5 C 20.555694,16.5 23.5,16.999999 23.5,18.999999 z" color="#000" display="inline" overflow="visible" visibility="visible" style="marker:none"/></g></svg>