<svg xmlns="http://www.w3.org/2000/svg" xmlns:svg="http://www.w3.org/2000/svg" id="svg8" width="24" height="24" version="1.1" viewBox="0 0 6.35 6.35"><metadata id="metadata5"/><g id="layer1" transform="translate(0,-290.64999)"><g id="gimp-tool-shadows-highlights-24"><circle id="path2159" cx="3.175" cy="293.825" r="2.381" fill="#000" fill-opacity="1" fill-rule="evenodd" stroke="#000" stroke-linecap="round" stroke-linejoin="miter" stroke-opacity="1" stroke-width=".529" color="#000" opacity="1" overflow="visible" paint-order="normal"/><circle id="circle2161" cx="3.175" cy="293.825" r="2.381" fill="#fff" fill-opacity="1" fill-rule="evenodd" stroke="#000" stroke-linecap="round" stroke-linejoin="miter" stroke-opacity="1" stroke-width=".265" color="#000" opacity="1" overflow="visible" paint-order="normal"/><path id="rect2163" fill="#000" fill-opacity="1" fill-rule="evenodd" stroke="none" stroke-linecap="round" stroke-linejoin="miter" stroke-opacity="1" stroke-width=".529" d="m 2.3812498,291.70832 -1.0583334,0.26459 -0.52916657,1.8464 0.52916657,1.85725 1.0583334,0.26458 v -0.52865 c 0,-0.14117 0.1287772,-0.26458 0.260449,-0.26458 h 1.0624678 c 0.146577,0 0.264583,-0.11801 0.264583,-0.26459 0,-0.14657 -0.118006,-0.26458 -0.264583,-0.26458 H 2.6458331 v -0.52917 h 1.0583335 c 0.146582,0 0.264583,-0.118 0.264583,-0.26458 0,-0.14658 -0.118001,-0.26458 -0.264583,-0.26458 H 2.6458331 v -0.52917 h 1.0583335 c 0.146578,0 0.264583,-0.11801 0.264583,-0.26458 0,-0.14658 -0.118005,-0.26459 -0.264583,-0.26459 H 2.6535288 c -0.1426419,0 -0.272279,-0.12391 -0.272279,-0.26699 z" color="#000" opacity="1" overflow="visible" paint-order="normal"/><rect id="rect2177" width="1.852" height=".529" x="2.381" y="293.031" fill="#fff" fill-opacity="1" fill-rule="evenodd" stroke="none" stroke-linecap="round" stroke-linejoin="miter" stroke-opacity="1" stroke-width=".529" color="#000" opacity="1" overflow="visible" paint-order="normal" rx=".265" ry=".265"/><rect id="rect2179" width="1.852" height=".529" x="2.381" y="294.09" fill="#fff" fill-opacity="1" fill-rule="evenodd" stroke="none" stroke-linecap="round" stroke-linejoin="miter" stroke-opacity="1" stroke-width=".529" color="#000" opacity="1" overflow="visible" paint-order="normal" rx=".265" ry=".265"/></g></g></svg>