<svg xmlns="http://www.w3.org/2000/svg" xmlns:svg="http://www.w3.org/2000/svg" xmlns:xlink="http://www.w3.org/1999/xlink" id="svg30571" width="24" height="24" version="1.1" viewBox="0 0 24 24"><defs id="defs30573"><linearGradient id="linearGradient12523"><stop id="stop12519" offset="0" stop-color="#edd400" stop-opacity="1"/><stop id="stop12521" offset="1" stop-color="#c00" stop-opacity="1"/></linearGradient><linearGradient id="linearGradient12525" x1="-19.375" x2="-5.375" y1="1032.175" y2="1032.112" gradientTransform="matrix(1.0148653,0,0,0.96781868,0.17095286,32.956636)" gradientUnits="userSpaceOnUse" xlink:href="#linearGradient12523"/></defs><metadata id="metadata30576"/><g id="layer1" transform="translate(0,-1028.3622)"><g id="g12537"><rect id="rect99" width="3.506" height="13.006" x="-12.503" y="1039.109" fill="#204a87" fill-opacity="1" stroke="#204a87" stroke-dasharray="none" stroke-miterlimit="4" stroke-opacity="1" stroke-width=".494" color="#000" ry=".462" transform="scale(-1,1)"/><path style="text-indent:0;text-transform:none" id="path103" stroke="#000" stroke-dasharray="none" stroke-miterlimit="4" stroke-opacity="1" stroke-width=".5" d="m 21.577574,1031.5455 c 0.8182,0 1.422426,0.6056 1.422426,1.2893 v 2.4406 c 0,0.6837 -0.604226,1.2886 -1.422426,1.2886 h -8.636612 c -0.66052,0 -1.343567,0.087 -1.551719,0.2413 -0.20815,0.1542 -0.311167,0.4116 -0.311167,0.805 l -0.0018,1.2519 h -0.77342 l 0.0018,-1.2526 c 1.38e-4,-0.4909 0.115721,-1.0283 0.524281,-1.3309 0.408769,-0.3028 1.345376,-0.4165 2.112005,-0.4165 h 8.636611 c 0.330041,0 0.649007,-0.1864 0.649007,-0.5868 v -2.4406 c 0,-0.4003 -0.318966,-0.6683 -0.649007,-0.6683 H 15 v -0.6209 h 6.577553 z" color="#000"/><rect id="rect107" width="20.504" height="6.004" x="-21.752" y="1028.61" fill="url(#linearGradient12525)" fill-opacity="1" stroke="#000" stroke-dasharray="none" stroke-miterlimit="4" stroke-opacity="1" stroke-width=".496" color="#000" rx="1.295" ry="2.197" transform="scale(-1,1)"/><path id="path109" fill="#729fcf" fill-opacity="1" stroke="#3465a4" stroke-dasharray="none" stroke-miterlimit="4" stroke-opacity="1" stroke-width=".467" d="M 12.441219,1040.5958 H 9.0946729 c -0.5454605,3.3295 -0.4107084,6.5309 -0.0076,9.8605 1.1676551,0.2729 2.2223911,0.1777 3.3314391,0.018 0.39193,-3.3294 0.521673,-6.5484 0.02274,-9.8778 z" color="#000"/><rect stroke-width=".3" style="isolation:auto;mix-blend-mode:normal;solid-color:#000;solid-opacity:1" id="rect4135" width="24" height="24" x="-24" y="1028.362" fill="#505050" fill-opacity="1" fill-rule="nonzero" stroke="none" stroke-dasharray="none" stroke-dashoffset="0" stroke-linecap="round" stroke-linejoin="round" stroke-miterlimit="4" stroke-opacity="1" clip-rule="nonzero" color="#000" color-interpolation="sRGB" color-interpolation-filters="linearRGB" color-rendering="auto" display="inline" enable-background="accumulate" image-rendering="auto" opacity="0" overflow="visible" shape-rendering="auto" text-rendering="auto" transform="scale(-1,1)" visibility="visible"/></g></g></svg>