<svg xmlns="http://www.w3.org/2000/svg" xmlns:osb="http://www.openswatchbook.org/uri/2009/osb" xmlns:svg="http://www.w3.org/2000/svg" id="svg30571" width="24" height="24" version="1.1" viewBox="0 0 24 24"><defs id="defs30573"><linearGradient id="linearGradient4989-64"><stop id="stop4991-7" offset="0" stop-color="#d3e9ff" stop-opacity="1"/><stop id="stop4993-6" offset=".208" stop-color="#d3e9ff" stop-opacity="1"/><stop id="stop4995-9" offset=".817" stop-color="#4074ae" stop-opacity="1"/><stop id="stop4997-4" offset="1" stop-color="#36486c" stop-opacity="1"/></linearGradient><linearGradient id="linearGradient6951-5"><stop id="stop6961-6" stop-color="#ee8719"/><stop id="stop6955-9" offset="1" stop-color="#e07c12" stop-opacity="0"/></linearGradient><linearGradient id="linearGradient6057" x1="231.55" x2="320.7" gradientTransform="matrix(0.01502614,0,0,0.01468232,2.9686133,1037.3257)" gradientUnits="userSpaceOnUse" osb:paint="gradient"><stop id="stop6053" stop-color="#a11f7c"/><stop id="stop6055" offset="1" stop-color="#541f31" stop-opacity=".984"/></linearGradient></defs><metadata id="metadata30576"/><g id="layer1" transform="translate(0,-1028.3622)"><g id="g4807"><ellipse id="path4051-5" cx="12.019" cy="1040.581" fill="none" fill-opacity="1" stroke="#000" stroke-dasharray="none" stroke-miterlimit="4" stroke-opacity="1" stroke-width="1.431" opacity="1" rx="11.266" ry="8.083"/><g id="g4004" fill="#ef2929" stroke="none" opacity=".494" transform="matrix(1.5375174,0,0,1.5399922,-0.28142037,1028.0423)"><rect id="rect4002" width="15.584" height="15.584" x=".208" y=".208" fill="#ef2929" fill-opacity="1" fill-rule="nonzero" stroke="none" stroke-dasharray="none" stroke-dashoffset="0" stroke-linecap="round" stroke-linejoin="miter" stroke-miterlimit="4" stroke-opacity="1" stroke-width=".416" clip-rule="nonzero" color="#000" color-interpolation="sRGB" color-interpolation-filters="linearRGB" color-rendering="auto" display="inline" enable-background="accumulate" image-rendering="auto" opacity="0" overflow="visible" shape-rendering="auto" text-rendering="auto" visibility="visible" style="isolation:auto;mix-blend-mode:normal;solid-color:#000;solid-opacity:1"/></g><rect id="rect4032-1" width="1.496" height="1.5" x="21.203" y="1031.608" fill="#fff" fill-opacity="1" stroke="none" stroke-dasharray="none" stroke-miterlimit="4" stroke-opacity="1" stroke-width=".666" opacity="1" transform="matrix(0.99995102,0.00989703,-0.00986524,0.99995134,0,0)"/><rect id="rect4032-8-9-5" width="1.496" height="1.5" x="22.502" y="1039.728" fill="#fff" fill-opacity="1" stroke="none" stroke-dasharray="none" stroke-miterlimit="4" stroke-opacity="1" stroke-width=".666" opacity="1"/><rect id="rect4032-8-9-7" width="1.534" height="1.5" x="0" y="1039.69" fill="#fff" fill-opacity="1" stroke="none" stroke-dasharray="none" stroke-miterlimit="4" stroke-opacity="1" stroke-width=".675" opacity="1"/><rect id="rect4032-8-9-5-0" width="1.496" height="1.5" x="11.257" y="1047.907" fill="#fff" fill-opacity="1" stroke="none" stroke-dasharray="none" stroke-miterlimit="4" stroke-opacity="1" stroke-width=".666" opacity="1"/><ellipse id="path4051" cx="12" cy="1040.362" fill="#d3d7cf" fill-opacity="1" stroke="#fff" stroke-dasharray="none" stroke-miterlimit="4" stroke-opacity="1" stroke-width=".293" opacity="1" rx="9.353" ry="6.353"/><rect id="rect4032" width="1.497" height="1.499" x="-676.245" y="782.753" fill="#fff" fill-opacity="1" stroke="none" stroke-dasharray="none" stroke-dashoffset="0" stroke-linecap="butt" stroke-linejoin="miter" stroke-miterlimit="4" stroke-opacity="1" stroke-width=".666" opacity="1" transform="matrix(0.75457352,-0.65621551,0.65501309,0.75561753,0,0)"/><rect id="rect4032-5" width="1.497" height="1.5" x="-452.312" y="928.583" fill="#fff" fill-opacity="1" stroke="none" stroke-dasharray="none" stroke-dashoffset="0" stroke-linecap="butt" stroke-linejoin="miter" stroke-miterlimit="4" stroke-opacity="1" stroke-width=".666" opacity="1" transform="matrix(0.89640568,-0.44323453,0.44208964,0.89697088,0,0)"/><rect id="rect4032-10" width="1.498" height="1.498" x="-909" y="499.69" fill="#fff" fill-opacity="1" stroke="none" stroke-dasharray="none" stroke-dashoffset="0" stroke-linecap="butt" stroke-linejoin="miter" stroke-miterlimit="4" stroke-opacity="1" stroke-width=".666" opacity="1" transform="matrix(0.48098372,-0.87672953,0.87607573,0.48217354,0,0)"/><rect id="rect4032-5-6" width="1.496" height="1.5" x="-213.306" y="1009.906" fill="#fff" fill-opacity="1" stroke="none" stroke-dasharray="none" stroke-dashoffset="0" stroke-linecap="butt" stroke-linejoin="miter" stroke-miterlimit="4" stroke-opacity="1" stroke-width=".666" opacity="1" transform="matrix(0.97667383,-0.21472828,0.21407033,0.97681825,0,0)"/><rect id="rect4032-8" width="1.497" height="1.499" x="686.181" y="-788.292" fill="#fff" fill-opacity="1" stroke="none" stroke-dasharray="none" stroke-miterlimit="4" stroke-opacity="1" stroke-width=".666" opacity="1" transform="matrix(0.75520356,0.65549034,0.65428725,-0.75624612,0,0)"/><rect id="rect4032-5-4" width="1.497" height="1.5" x="466.852" y="-937.437" fill="#fff" fill-opacity="1" stroke="none" stroke-dasharray="none" stroke-miterlimit="4" stroke-opacity="1" stroke-width=".666" opacity="1" transform="matrix(0.89683138,0.44237255,0.44122878,-0.89739465,0,0)"/><rect id="rect4032-10-4" width="1.498" height="1.498" x="913.761" y="-502.19" fill="#fff" fill-opacity="1" stroke="none" stroke-dasharray="none" stroke-miterlimit="4" stroke-opacity="1" stroke-width=".666" opacity="1" transform="matrix(0.48182479,0.87626758,0.87561183,-0.48301545,0,0)"/><rect id="rect4032-5-6-3" width="1.496" height="1.5" x="231.239" y="-1022.973" fill="#fff" fill-opacity="1" stroke="none" stroke-dasharray="none" stroke-miterlimit="4" stroke-opacity="1" stroke-width=".666" opacity="1" transform="matrix(0.97687991,0.21378878,0.21313343,-0.9770231,0,0)"/><rect id="rect4032-9" width="1.497" height="1.499" x="-672.843" y="785.746" fill="#fff" fill-opacity="1" stroke="none" stroke-dasharray="none" stroke-miterlimit="4" stroke-opacity="1" stroke-width=".666" opacity="1" transform="matrix(-0.7722722,-0.63529178,-0.63407259,0.77327353,0,0)"/><rect id="rect4032-5-5" width="1.497" height="1.5" x="-448.272" y="930.593" fill="#fff" fill-opacity="1" stroke="none" stroke-dasharray="none" stroke-miterlimit="4" stroke-opacity="1" stroke-width=".666" opacity="1" transform="matrix(-0.9082234,-0.41848567,-0.41737613,0.90873382,0,0)"/><rect id="rect4032-10-6" width="1.498" height="1.498" x="-906.815" y="503.644" fill="#fff" fill-opacity="1" stroke="none" stroke-dasharray="none" stroke-miterlimit="4" stroke-opacity="1" stroke-width=".666" opacity="1" transform="matrix(-0.50480195,-0.86323519,-0.86252619,0.50601241,0,0)"/><rect id="rect4032-5-6-5" width="1.496" height="1.5" x="-208.914" y="1010.839" fill="#fff" fill-opacity="1" stroke="none" stroke-dasharray="none" stroke-miterlimit="4" stroke-opacity="1" stroke-width=".666" opacity="1" transform="matrix(-0.98219742,-0.18785161,-0.18726951,0.98230857,0,0)"/><rect id="rect4032-86" width="1.497" height="1.499" x="661.787" y="-809.289" fill="#fff" fill-opacity="1" stroke="none" stroke-dasharray="none" stroke-miterlimit="4" stroke-opacity="1" stroke-width=".666" opacity="1" transform="matrix(-0.76035016,0.64951339,-0.64830499,-0.76138075,0,0)"/><rect id="rect4032-5-2" width="1.497" height="1.5" x="437.936" y="-951.539" fill="#fff" fill-opacity="1" stroke="none" stroke-dasharray="none" stroke-miterlimit="4" stroke-opacity="1" stroke-width=".666" opacity="1" transform="matrix(-0.90029527,0.43527972,-0.43414565,-0.90084269,0,0)"/><rect id="rect4032-10-8" width="1.498" height="1.498" x="898.068" y="-530.351" fill="#fff" fill-opacity="1" stroke="none" stroke-dasharray="none" stroke-miterlimit="4" stroke-opacity="1" stroke-width=".666" opacity="1" transform="matrix(-0.48871387,0.87244413,-0.87177246,-0.48991099,0,0)"/><rect id="rect4032-5-6-39" width="1.496" height="1.5" x="199.799" y="-1029.711" fill="#fff" fill-opacity="1" stroke="none" stroke-dasharray="none" stroke-miterlimit="4" stroke-opacity="1" stroke-width=".666" opacity="1" transform="matrix(-0.97853774,0.2060677,-0.20543388,-0.978671,0,0)"/></g></g></svg>