<svg xmlns="http://www.w3.org/2000/svg" xmlns:svg="http://www.w3.org/2000/svg" id="svg30571" width="24" height="24" version="1.1" viewBox="0 0 24 24"><metadata id="metadata30576"/><g id="layer1" transform="translate(0,-1028.3622)"><g id="g4159"><g id="gimp-layer" display="inline" transform="matrix(1.4999986,0,0,1.4999986,-3.494068,1027.5789)"><rect id="rect4002" width="15.584" height="15.584" x="2.537" y=".73" fill="none" fill-opacity="1" fill-rule="nonzero" stroke="#000" stroke-dasharray="none" stroke-dashoffset="0" stroke-linecap="round" stroke-linejoin="miter" stroke-miterlimit="4" stroke-opacity="1" stroke-width=".416" clip-rule="nonzero" color="#000" color-interpolation="sRGB" color-interpolation-filters="linearRGB" color-rendering="auto" display="inline" enable-background="accumulate" image-rendering="auto" opacity="0" overflow="visible" shape-rendering="auto" text-rendering="auto" visibility="visible" style="isolation:auto;mix-blend-mode:normal;solid-color:#000;solid-opacity:1"/></g><path id="rect4899" fill="#fff" fill-opacity="1" fill-rule="evenodd" stroke="#888a85" stroke-dashoffset="0" stroke-linecap="butt" stroke-linejoin="miter" stroke-miterlimit="4" stroke-opacity="1" stroke-width="1.071" marker-end="none" marker-mid="none" marker-start="none" d="m 3.5486284,1028.898 12.6332956,0 6.282354,5.9953 0,15.0586 c 0,1.0385 -0.897757,1.8744 -2.012907,1.8744 l -16.9027426,0 c -1.1151501,0 -2.0129063,-0.8359 -2.0129063,-1.8744 l 0,-19.1795 c 0,-1.0386 0.8977562,-1.8744 2.0129063,-1.8744 z" color="#000" display="inline" enable-background="accumulate" overflow="visible" visibility="visible" style="marker:none"/><g id="g6116" transform="matrix(1.1201828,0,0,1.0793876,-1.2764805,1029.1178)"><circle id="path6068" cx="12.238" cy="10.028" r="3.32" fill="#555753" fill-opacity="1" fill-rule="evenodd" stroke="none" stroke-dasharray="none" stroke-dashoffset="0" stroke-linecap="butt" stroke-linejoin="miter" stroke-miterlimit="4" stroke-opacity="1" stroke-width="1" marker-end="none" marker-mid="none" marker-start="none" color="#000" display="inline" enable-background="accumulate" opacity="1" overflow="visible" transform="matrix(0.9948357,0,0,1.0050216,-0.1749648,-1.8830157)" visibility="visible" style="marker:none"/><path id="path6070" fill="#555753" fill-opacity="1" fill-rule="evenodd" stroke="none" stroke-dashoffset="0" stroke-linecap="butt" stroke-linejoin="miter" stroke-miterlimit="4" stroke-opacity="1" stroke-width=".986" marker-end="none" marker-mid="none" marker-start="none" d="m 17.208335,16.45 c 0,3.036001 -2.399608,2.200002 -5.356268,2.200002 -2.9566614,0 -5.3562696,0.835999 -5.3562696,-2.200002 0,-3.036 2.3996082,-5.5 5.3562696,-5.5 2.95666,0 5.356268,2.464 5.356268,5.5 z" color="#000" display="inline" enable-background="accumulate" overflow="visible" visibility="visible" style="marker:none"/></g><path id="path6074" fill="#fff" fill-opacity="1" fill-rule="evenodd" stroke="#888a85" stroke-linecap="butt" stroke-linejoin="miter" stroke-opacity="1" stroke-width="1.066" d="m 21.999999,1034.8294 -6.424213,0 -0.043,-5.4637"/></g></g></svg>