<svg xmlns="http://www.w3.org/2000/svg" xmlns:svg="http://www.w3.org/2000/svg" id="svg30571" width="24" height="24" version="1.1" viewBox="0 0 24 24"><metadata id="metadata30576"/><g id="layer1" transform="translate(0,-1028.3622)"><g id="g4183"><rect id="rect5996-2-1-0-7-8-0-9" width="14" height="2" x="-24" y="1049.362" fill="#000" fill-opacity="1" stroke="none" stroke-dasharray="none" stroke-miterlimit="4" stroke-opacity="1" stroke-width=".663" color="#555753" display="inline" overflow="visible" transform="scale(-1,1)" visibility="visible" style="marker:none"/><path id="path18497-9-8" fill="#000" fill-opacity="1" stroke="none" stroke-width="1.63" d="m 5,1049.8622 -2,0 0,-19.5744 2,0 z" baseline-shift="baseline" color="#000" direction="ltr" display="inline" enable-background="accumulate" font-family="Sans" font-size="medium" font-stretch="normal" font-style="normal" font-variant="normal" font-weight="normal" letter-spacing="normal" overflow="visible" text-anchor="start" text-decoration="none" visibility="visible" word-spacing="normal" writing-mode="lr-tb" style="line-height:normal;-inkscape-font-specification:Sans;text-indent:0;text-align:start;text-decoration-line:none;text-transform:none;marker:none"/><path font-family="Bitstream Vera Sans" style="line-height:normal;-inkscape-font-specification:'Bitstream Vera Sans';text-indent:0;text-align:start;text-decoration-line:none;text-transform:none;marker:none" id="path17259-0-7-2-6" fill="#ff9753" fill-opacity="1" stroke="#ff5000" stroke-dasharray="none" stroke-miterlimit="4" stroke-opacity="1" stroke-width=".523" d="m 7.738271,1045.1239 -0.9345458,0 c -0.2399441,0 -0.49385,0.1259 -0.6717639,0.3029 l -2.1318729,2.6046 -2.1322719,-2.6046 c -0.1778139,-0.177 -0.4316202,-0.3029 -0.6715644,-0.3029 l -0.93454569,0 c 0,0.3231 9.972e-5,0.6461 9.972e-5,0.9693 0,0.2998 0.083771,0.5352 0.26268201,0.7267 1.00275926,1.3731 2.47274136,2.746 3.47560026,4.119 l 3.4755005,-4.119 c 0.1784123,-0.1915 0.2626821,-0.4269 0.2626821,-0.7267 0,-0.3232 0,-0.6462 0,-0.9693 z" color="#555753" direction="ltr" display="inline" enable-background="accumulate" font-size="medium" font-stretch="normal" font-style="normal" font-variant="normal" font-weight="normal" letter-spacing="normal" overflow="visible" text-anchor="start" text-decoration="none" visibility="visible" word-spacing="normal" writing-mode="lr-tb"/><path font-family="Bitstream Vera Sans" style="line-height:normal;-inkscape-font-specification:'Bitstream Vera Sans';text-indent:0;text-align:start;text-decoration-line:none;text-transform:none;marker:none" id="path17259-0-7-2-6-9-30" fill="#ff9753" fill-opacity="1" stroke="#ff5000" stroke-dasharray="none" stroke-miterlimit="4" stroke-opacity="1" stroke-width=".524" d="m 7.7377026,1034.6455 -0.9344718,0 c -0.240025,0 -0.4937115,-0.1264 -0.6714119,-0.304 l -2.1316049,-2.6139 -2.1319042,2.6139 c -0.1778996,0.1776 -0.4315861,0.304 -0.6715114,0.304 l -0.93457157,0 c 0,-0.3243 9.972e-5,-0.6484 9.972e-5,-0.9727 0,-0.3009 0.0837644,-0.5372 0.262761,-0.7294 1.00258035,-1.3779 2.47244645,-2.7557 3.47512645,-4.1335 l 3.474927,4.1335 c 0.1781988,0.1922 0.2627611,0.4285 0.2627611,0.7294 -1.995e-4,0.3243 -1.995e-4,0.6484 -1.995e-4,0.9727 z" color="#555753" direction="ltr" display="inline" enable-background="accumulate" font-size="medium" font-stretch="normal" font-style="normal" font-variant="normal" font-weight="normal" letter-spacing="normal" overflow="visible" text-anchor="start" text-decoration="none" visibility="visible" word-spacing="normal" writing-mode="lr-tb"/><rect id="rect5996-2-1-0-7-8-0-9-3" width="14" height="2" x="-24" y="1042.362" fill="#000" fill-opacity="1" stroke="none" stroke-dasharray="none" stroke-miterlimit="4" stroke-opacity="1" stroke-width=".663" color="#555753" display="inline" overflow="visible" transform="scale(-1,1)" visibility="visible" style="marker:none"/><rect id="rect5996-2-1-0-7-8-0-9-1" width="14" height="2" x="-24" y="1035.362" fill="#000" fill-opacity="1" stroke="none" stroke-dasharray="none" stroke-miterlimit="4" stroke-opacity="1" stroke-width=".663" color="#555753" display="inline" overflow="visible" transform="scale(-1,1)" visibility="visible" style="marker:none"/><rect id="rect5996-2-1-0-7-8-0-9-0" width="14" height="2" x="-24" y="1028.362" fill="#000" fill-opacity="1" stroke="none" stroke-dasharray="none" stroke-miterlimit="4" stroke-opacity="1" stroke-width=".663" color="#555753" display="inline" overflow="visible" transform="scale(-1,1)" visibility="visible" style="marker:none"/><rect id="rect4181" width="23.481" height=".481" x=".259" y="1051.622" fill="#555753" fill-opacity="1" stroke="#555753" stroke-dasharray="none" stroke-linejoin="miter" stroke-miterlimit="4" stroke-opacity="1" stroke-width=".519" opacity="0"/></g></g></svg>