<svg xmlns="http://www.w3.org/2000/svg" xmlns:svg="http://www.w3.org/2000/svg" id="svg8" width="24" height="24" version="1.1" viewBox="0 0 6.35 6.35"><metadata id="metadata5"/><g id="layer1" transform="translate(0,-290.64998)"><g id="gimp-color-temperature-24" display="inline" transform="translate(-125.14789,106.49998)"><path id="rect13227" fill="#3465a4" fill-opacity="1" fill-rule="evenodd" stroke="none" stroke-dasharray="none" stroke-linecap="round" stroke-linejoin="round" stroke-miterlimit="4" stroke-opacity="1" stroke-width="12" d="m 480.5,696 c -1.38501,0 -2.5,1.11499 -2.5,2.5 v 10.55469 c -1.92739,0.93386 -3.26367,2.90661 -3.26367,5.1875 0,3.17559 2.4487,5.75781 5.75781,5.75781 3.30911,0 5.75781,-2.58724 5.75781,-5.72852 0,-2.33483 -1.3335,-4.30917 -3.25195,-5.1875 V 698.5 c 0,-1.38501 -1.11499,-2.5 -2.5,-2.5 z m 0,1 c 0.831,0 1.5,0.66903 1.5,1.5 v 11.2832 c 1.88289,0.63477 3.25586,2.35851 3.25586,4.45899 4e-5,2.63516 -2.12656,4.76172 -4.76172,4.76172 -2.63516,0 -4.76172,-2.12656 -4.76172,-4.76172 3e-5,-2.10461 1.37889,-3.82945 3.26758,-4.46094 V 698.5 c 0,-0.83097 0.66903,-1.5 1.5,-1.5 z" color="#000" opacity="1" overflow="visible" transform="scale(0.26458333)"/><path id="path13472" fill="none" fill-opacity="1" fill-rule="evenodd" stroke="#edd400" stroke-linecap="round" stroke-linejoin="round" stroke-opacity="1" stroke-width=".265" d="m 128.48408,185.68187 a 0.67310576,0.67310576 0 0 1 0.50041,-0.22292 0.67310576,0.67310576 0 0 1 0.6731,0.6731 0.67310576,0.67310576 0 0 1 -0.6731,0.67311 0.67310576,0.67310576 0 0 1 -0.50034,-0.22284" color="#000" opacity="1" overflow="visible"/><g id="g33634" fill="#edd400" fill-opacity="1"><rect id="rect996" width=".265" height=".794" x="128.852" y="184.15" fill="#edd400" fill-opacity="1" fill-rule="evenodd" stroke="none" stroke-linecap="round" stroke-linejoin="round" stroke-width=".265" color="#000" opacity="1" overflow="visible" rx=".132" ry=".132"/><rect id="rect998" width=".265" height=".794" x="128.852" y="187.325" fill="#edd400" fill-opacity="1" fill-rule="evenodd" stroke="none" stroke-linecap="round" stroke-linejoin="round" stroke-width=".265" color="#000" opacity="1" overflow="visible" rx=".132" ry=".132"/><rect id="rect1000" width=".265" height=".794" x="186.002" y="-130.969" fill="#edd400" fill-opacity="1" fill-rule="evenodd" stroke="none" stroke-linecap="round" stroke-linejoin="round" stroke-width=".265" color="#000" opacity="1" overflow="visible" rx=".132" ry=".132" transform="rotate(90)"/><rect id="rect1020" width=".265" height=".794" x="222.689" y="38.422" fill="#edd400" fill-opacity="1" fill-rule="evenodd" stroke="none" stroke-linecap="round" stroke-linejoin="round" stroke-width=".265" color="#000" opacity="1" overflow="visible" rx=".132" ry=".132" transform="rotate(45)"/><rect id="rect1026" width=".265" height=".794" x="40.277" y="-224.809" fill="#edd400" fill-opacity="1" fill-rule="evenodd" stroke="none" stroke-linecap="round" stroke-linejoin="round" stroke-width=".265" color="#000" opacity="1" overflow="visible" rx=".132" ry=".132" transform="rotate(135)"/></g><path id="rect13227-7" fill="#c00" fill-opacity="1" fill-rule="evenodd" stroke="none" stroke-dasharray="none" stroke-linecap="round" stroke-linejoin="round" stroke-miterlimit="4" stroke-opacity="1" stroke-width="3.175" d="m 127.13229,186.00208 c -0.0733,0 -0.13229,0.059 -0.13229,0.13229 v 1.93994 c -0.44807,0.065 -0.78054,0.44899 -0.78083,0.90175 1.2e-4,0.5036 0.40849,0.91173 0.91209,0.91157 0.50339,-1.2e-4 0.91145,-0.40817 0.91157,-0.91157 -2.6e-4,-0.45172 -0.3314,-0.83508 -0.77825,-0.90124 v -1.94045 c 0,-0.0733 -0.059,-0.13229 -0.13229,-0.13229 z" color="#000" display="inline" opacity="1" overflow="visible"/></g></g></svg>