<svg xmlns="http://www.w3.org/2000/svg" xmlns:osb="http://www.openswatchbook.org/uri/2009/osb" xmlns:svg="http://www.w3.org/2000/svg" xmlns:xlink="http://www.w3.org/1999/xlink" id="svg7384" width="16" height="16" version="1.1" viewBox="0 0 16 16"><metadata id="metadata90"/><defs id="defs7386"><linearGradient id="linearGradient8074" osb:paint="solid"><stop id="stop8072" offset="0" stop-color="#be00be" stop-opacity="1"/></linearGradient><linearGradient id="linearGradient7561" osb:paint="solid"><stop id="stop7558" offset="0" stop-color="#a5a5a5" stop-opacity="1"/></linearGradient><linearGradient id="linearGradient7548" osb:paint="solid"><stop id="stop7546" offset="0" stop-color="#ebebeb" stop-opacity="1"/></linearGradient><linearGradient id="linearGradient7542" osb:paint="solid"><stop id="stop7538" offset="0" stop-color="#c9c9c9" stop-opacity="1"/></linearGradient><linearGradient id="linearGradient19282" gradientTransform="matrix(0,-735328.32,170712.69,0,2464326300,577972450)" osb:paint="solid"><stop id="stop19284" offset="0" stop-color="#b4b4b4" stop-opacity="1"/></linearGradient><linearGradient id="linearGradient19282-4" gradientTransform="matrix(0.34682586,0,0,0.30620888,-113.35187,362.03851)" osb:paint="solid"><stop id="stop19284-0" offset="0" stop-color="#bebebe" stop-opacity="1"/></linearGradient><linearGradient id="linearGradient10230" x1="47" x2="51" y1="414.5" y2="414.5" gradientTransform="translate(401.82829,132.74866)" gradientUnits="userSpaceOnUse" xlink:href="#linearGradient19282-4"/><linearGradient id="linearGradient10232" x1="46" x2="52" y1="412" y2="412" gradientTransform="translate(401.82829,132.74866)" gradientUnits="userSpaceOnUse" xlink:href="#linearGradient19282-4"/><linearGradient id="linearGradient10234" x1="-193" x2="-191" y1="187.5" y2="187.5" gradientTransform="translate(401.82829,132.74866)" gradientUnits="userSpaceOnUse" xlink:href="#linearGradient19282-4"/><linearGradient id="linearGradient10236" x1="44" x2="54" y1="404.5" y2="404.5" gradientTransform="translate(401.82829,132.74866)" gradientUnits="userSpaceOnUse" xlink:href="#linearGradient19282-4"/></defs><g id="stock" display="inline" transform="translate(55.98286,34.28258)"><g id="gimp-info" display="inline" transform="translate(-96.98306,-433.28258)"><path id="path4561" fill="url(#linearGradient10236)" fill-opacity="1" stroke="none" stroke-width="2" d="m 49,399 c -2.749575,0 -5,2.25042 -5,5 0,1.58622 0.844588,2.90336 2,3.8125 l 0,2.1875 2e-4,0 1,0 4,0 1,0 -2e-4,0 0,-2.1875 c 1.155412,-0.90914 2,-2.22628 2,-3.8125 0,-2.74958 -2.250425,-5 -5,-5 z m 0,2 c 1.668685,0 3,1.33132 3,3 0,1.11585 -0.595067,2.03788 -1.5,2.5625 l -0.5,0.3125 0,0.5625 2e-4,0.5625 -2,0 -2e-4,-0.5625 0,-0.5625 -0.5,-0.3125 C 46.595067,406.03788 46,405.11585 46,404 c 0,-1.66868 1.331315,-3 3,-3 z" baseline-shift="baseline" color="#000" direction="ltr" display="inline" enable-background="accumulate" font-family="Sans" font-size="medium" font-stretch="normal" font-style="normal" font-variant="normal" font-weight="normal" letter-spacing="normal" overflow="visible" text-anchor="start" text-decoration="none" visibility="visible" word-spacing="normal" writing-mode="lr-tb" style="line-height:normal;-inkscape-font-specification:Sans;text-indent:0;text-align:start;text-decoration-line:none;text-transform:none;marker:none"/><path id="path4488-4" fill="url(#linearGradient10230)" fill-opacity="1" fill-rule="nonzero" stroke="none" stroke-width="1" d="m 47.0002,414 0,1 4,0 0,-1 z" baseline-shift="baseline" color="#000" direction="ltr" display="inline" enable-background="accumulate" font-family="Sans" font-size="medium" font-stretch="normal" font-style="normal" font-variant="normal" font-weight="normal" letter-spacing="normal" overflow="visible" text-anchor="start" text-decoration="none" visibility="visible" word-spacing="normal" writing-mode="lr-tb" style="line-height:normal;-inkscape-font-specification:Sans;text-indent:0;text-align:start;text-decoration-line:none;text-transform:none;marker:none"/><path id="path4488-4-7" fill="url(#linearGradient10232)" fill-opacity="1" fill-rule="nonzero" stroke="none" stroke-width="1" d="m 46.0002,411 0,2 6,0 0,-2 z" baseline-shift="baseline" color="#000" direction="ltr" display="inline" enable-background="accumulate" font-family="Sans" font-size="medium" font-stretch="normal" font-style="normal" font-variant="normal" font-weight="normal" letter-spacing="normal" overflow="visible" text-anchor="start" text-decoration="none" visibility="visible" word-spacing="normal" writing-mode="lr-tb" style="line-height:normal;-inkscape-font-specification:Sans;text-indent:0;text-align:start;text-decoration-line:none;text-transform:none;marker:none"/><rect id="rect29445" width="2" height="1" x="-193" y="187" fill="url(#linearGradient10234)" fill-opacity="1" stroke="none" opacity=".3" transform="translate(241.0002,217)"/></g></g></svg>