<svg xmlns="http://www.w3.org/2000/svg" xmlns:svg="http://www.w3.org/2000/svg" id="svg30571" width="16" height="16" version="1.1" viewBox="0 0 16 16"><metadata id="metadata30576"/><g id="layer1" transform="translate(-0.6875,-1034.7372)"><g id="document-save" display="inline" transform="translate(-40.3127,615.7372)"><path id="path11635" fill="#bebebe" fill-opacity="1" stroke="none" d="m 49.0002,429 -4.02308,-4 h 8 z"/><g id="g932"><g id="g4561" display="inline" transform="translate(-118.9998,-119)"><path id="rect4390-9" fill="#bebebe" fill-opacity="1" fill-rule="nonzero" stroke="none" stroke-dasharray="none" stroke-dashoffset="0" stroke-linecap="round" stroke-linejoin="round" stroke-miterlimit="4" stroke-opacity="1" stroke-width="1" d="m 164.49023,546.99414 a 0.50005,0.50005 0 0 0 -0.40625,0.22852 l -1,1.5 a 0.50005,0.50005 0 1 0 0.83204,0.55468 l 1,-1.5 a 0.50005,0.50005 0 0 0 -0.42579,-0.7832 z m 7.00391,0 a 0.50005,0.50005 0 0 0 -0.41016,0.7832 l 1,1.5 a 0.50005,0.50005 0 1 0 0.83204,-0.55468 l -1,-1.5 a 0.50005,0.50005 0 0 0 -0.42188,-0.22852 z" baseline-shift="baseline" clip-rule="nonzero" color="#bebebe" color-interpolation="sRGB" color-interpolation-filters="linearRGB" color-rendering="auto" direction="ltr" display="inline" dominant-baseline="auto" enable-background="accumulate" font-family="sans-serif" font-size="medium" font-stretch="normal" font-style="normal" font-variant="normal" font-weight="normal" image-rendering="auto" letter-spacing="normal" opacity="1" overflow="visible" shape-rendering="auto" text-anchor="start" text-decoration="none" text-rendering="auto" vector-effect="none" visibility="visible" word-spacing="normal" writing-mode="lr-tb" style="line-height:normal;font-variant-ligatures:normal;font-variant-position:normal;font-variant-caps:normal;font-variant-numeric:normal;font-variant-alternates:normal;font-feature-settings:normal;text-indent:0;text-align:start;text-decoration-line:none;text-decoration-style:solid;text-decoration-color:#000;text-transform:none;text-orientation:mixed;white-space:normal;shape-padding:0;isolation:auto;mix-blend-mode:normal;solid-color:#000;solid-opacity:1;marker:none"/><rect id="rect10837-5-8-4-4-4-1" width="16" height="16" x="538" y="160" fill="none" stroke="none" stroke-width="1" color="#bebebe" display="inline" enable-background="new" opacity="0" overflow="visible" transform="matrix(0,1,1,0,0,0)" visibility="visible" style="marker:none"/><g id="g4555"><path id="rect11668-7-5" fill="#bebebe" fill-opacity="1" fill-rule="evenodd" stroke="none" stroke-width="1" d="m 163,549 v 4 h 10 v -4 z m 3.34375,1.4375 c 0.0208,-10e-4 0.0417,-10e-4 0.0625,0 0.29096,-0.0556 0.59898,0.20383 0.59375,0.5 V 551 h 2 v -0.0625 c -0.004,-0.26416 0.23582,-0.50712 0.5,-0.50712 0.26418,0 0.50373,0.24296 0.5,0.50712 V 551 c 0,0.54535 -0.45465,1 -1,1 h -2 c -0.54535,0 -1,-0.45465 -1,-1 v -0.0625 c -0.0108,-0.21706 0.13723,-0.43234 0.34375,-0.5 z" color="#000" display="inline" enable-background="accumulate" overflow="visible" visibility="visible" style="marker:none"/></g></g></g><rect id="rect11650" width="2" height="7" x="48" y="420" fill="#bebebe" fill-opacity="1" stroke="none"/></g></g></svg>