<svg xmlns="http://www.w3.org/2000/svg" xmlns:osb="http://www.openswatchbook.org/uri/2009/osb" xmlns:svg="http://www.w3.org/2000/svg" xmlns:xlink="http://www.w3.org/1999/xlink" id="svg7384" width="12.011" height="12" version="1.1" viewBox="0 0 12.011 12"><metadata id="metadata90"/><defs id="defs7386"><linearGradient id="linearGradient19282-4" gradientTransform="matrix(0.34682586,0,0,0.30620888,-154.35207,-275.32369)" osb:paint="solid"><stop id="stop19284-0" offset="0" stop-color="#bebebe" stop-opacity="1"/></linearGradient><linearGradient id="linearGradient7801" x1="45.667" x2="52.814" y1="646.219" y2="646.219" gradientTransform="translate(869.55576,151.6133)" gradientUnits="userSpaceOnUse" xlink:href="#linearGradient19282-4"/><linearGradient id="linearGradient7807" x1="6" x2="12" y1="1050.362" y2="1050.362" gradientTransform="translate(745.33351,121.10414)" gradientUnits="userSpaceOnUse" xlink:href="#linearGradient19282-4"/><linearGradient id="linearGradient7813" x1="41" x2="45.667" y1="643.733" y2="643.733" gradientTransform="translate(869.55576,151.6133)" gradientUnits="userSpaceOnUse" xlink:href="#linearGradient19282-4"/><linearGradient id="linearGradient7801-2" x1="45.667" x2="52.814" y1="646.219" y2="646.219" gradientUnits="userSpaceOnUse" xlink:href="#linearGradient19282-4"/><linearGradient id="linearGradient7813-1" x1="41" x2="45.667" y1="643.733" y2="643.733" gradientUnits="userSpaceOnUse" xlink:href="#linearGradient19282-4"/><linearGradient id="linearGradient7807-2" x1="6" x2="12" y1="1050.362" y2="1050.362" gradientUnits="userSpaceOnUse" xlink:href="#linearGradient19282-4"/></defs><g id="gimp-swap-colors" display="inline" transform="matrix(1.0008752,0,0,1,3.1170056e-7,-1040.3622)"><g id="gimp-swap-colors-7" display="inline" transform="matrix(0.85714286,0,0,0.79876989,-35.143029,529.1679)"><path id="path6936-5" fill="url(#linearGradient7801-2)" fill-opacity="1" fill-rule="nonzero" stroke="none" stroke-dasharray="none" stroke-dashoffset="0" stroke-linecap="butt" stroke-linejoin="miter" stroke-miterlimit="4" stroke-opacity="1" stroke-width="2.417" d="m 51.259766,642.44531 c -0.233852,-0.006 -0.425039,0.0538 -0.607422,0.0664 -0.364767,0.0253 -0.786781,0.0558 -1.408203,0.0156 l -0.03906,-0.004 h -3.539062 v 2.41797 h 3.5 l -0.07617,-0.002 c 0.572484,0.037 0.919965,0.006 1.273437,-0.0137 -0.01982,0.33485 -0.03882,0.63303 -0.07031,1.25 l -0.002,0.0293 v 3.78711 h 2.417968 v -3.72852 c 0.04231,-0.81207 0.09189,-1.36173 0.101563,-1.8164 0.0049,-0.23174 0.0089,-0.4442 -0.05469,-0.72852 -0.06357,-0.28432 -0.269104,-0.70954 -0.626953,-0.95313 -0.357849,-0.24358 -0.635289,-0.31466 -0.86914,-0.32031 z" baseline-shift="baseline" clip-rule="nonzero" color="#000" color-interpolation="sRGB" color-interpolation-filters="linearRGB" color-rendering="auto" direction="ltr" display="inline" dominant-baseline="auto" enable-background="accumulate" font-family="sans-serif" font-size="medium" font-stretch="normal" font-style="normal" font-variant="normal" font-weight="normal" image-rendering="auto" letter-spacing="normal" opacity="1" overflow="visible" shape-rendering="auto" text-anchor="start" text-decoration="none" text-rendering="auto" vector-effect="none" visibility="visible" word-spacing="normal" writing-mode="lr-tb" style="line-height:normal;font-variant-ligatures:normal;font-variant-position:normal;font-variant-caps:normal;font-variant-numeric:normal;font-variant-alternates:normal;font-feature-settings:normal;text-indent:0;text-align:start;text-decoration-line:none;text-decoration-style:solid;text-decoration-color:#000;text-transform:none;text-orientation:mixed;white-space:normal;shape-padding:0;isolation:auto;mix-blend-mode:normal;solid-color:#000;solid-opacity:1;marker:none"/><path id="path6938-4" fill="url(#linearGradient7813-1)" fill-opacity="1" stroke="none" stroke-width=".969" d="m 41.0002,643.99184 4.666667,-4.01491 v 7.51155 z"/></g><path id="path6938-3" fill="url(#linearGradient7807-2)" fill-opacity="1" stroke="none" stroke-width=".802" d="m 9.207,1052.3622 -3.207,-4 h 6 z" display="inline"/></g></svg>