<svg xmlns="http://www.w3.org/2000/svg" xmlns:osb="http://www.openswatchbook.org/uri/2009/osb" xmlns:svg="http://www.w3.org/2000/svg" xmlns:xlink="http://www.w3.org/1999/xlink" id="svg7384" width="12" height="12" version="1.1" viewBox="0 0 12 12"><metadata id="metadata90"/><defs id="defs7386"><linearGradient id="linearGradient8074" osb:paint="solid"><stop id="stop8072" offset="0" stop-color="#be00be" stop-opacity="1"/></linearGradient><linearGradient id="linearGradient7561" osb:paint="solid"><stop id="stop7558" offset="0" stop-color="#a5a5a5" stop-opacity="1"/></linearGradient><linearGradient id="linearGradient7548" osb:paint="solid"><stop id="stop7546" offset="0" stop-color="#ebebeb" stop-opacity="1"/></linearGradient><linearGradient id="linearGradient7542" osb:paint="solid"><stop id="stop7538" offset="0" stop-color="#c9c9c9" stop-opacity="1"/></linearGradient><linearGradient id="linearGradient19282" gradientTransform="matrix(0,-735328.32,170712.69,0,2464326300,577972450)" osb:paint="solid"><stop id="stop19284" offset="0" stop-color="#b4b4b4" stop-opacity="1"/></linearGradient><linearGradient id="linearGradient19282-4" gradientTransform="matrix(0.34682586,0,0,0.30620888,-154.35207,-275.32369)" osb:paint="solid"><stop id="stop19284-0" offset="0" stop-color="#bebebe" stop-opacity="1"/></linearGradient><linearGradient id="linearGradient7788" x1="-60" x2="-44" y1="170" y2="170" gradientTransform="translate(993.77801,189.79565)" gradientUnits="userSpaceOnUse" xlink:href="#linearGradient19282-4"/><linearGradient id="linearGradient7794" x1="4" x2="8" y1="1046.362" y2="1046.362" gradientTransform="translate(745.33351,142.34674)" gradientUnits="userSpaceOnUse" xlink:href="#linearGradient19282-4"/></defs><g id="stock" display="inline" transform="translate(-287.52236,24.6845)"><g id="gimp-zoom-follow-window" transform="translate(287.52236,-1065.0467)"><g id="g4400"><g id="gimp-zoom-follow-window-2-6" display="inline" transform="matrix(0.75,0,0,0.75,-135.75015,756.1122)"><path id="rect3783-5-0" fill="url(#linearGradient7788)" fill-opacity="1" fill-rule="nonzero" stroke="none" d="m -60,162 0,16 14.375,0 c -0.35059,-0.0304 -0.688782,-0.18823 -0.9375,-0.4375 l -2.96875,-2.96875 c -0.0571,-0.0581 -0.109415,-0.12085 -0.15625,-0.1875 C -50.383763,174.7757 -51.16144,175 -52,175 c -2.74815,0 -5,-2.25186 -5,-5 0,-2.74814 2.25185,-5 5,-5 2.74816,0 5,2.25186 5,5 0,0.82853 -0.232499,1.59105 -0.59375,2.28125 0.06791,0.0567 0.130743,0.11958 0.1875,0.1875 l 2.96875,2.96875 c 0.230694,0.22486 0.386549,0.52544 0.4375,0.84375 L -44,162 Z m 16,14.59375 c -0.04483,0.70343 -0.643904,1.33037 -1.34375,1.40625 L -44,178 Z" transform="translate(241.0002,217)"/><path id="rect3898-0-3" fill="none" stroke="none" d="m 181.0002,379 0,16 16,0 0,-16 z"/></g></g><circle id="path3947-5" cx="6" cy="1046.362" r="2" fill="url(#linearGradient7794)" fill-opacity="1" stroke="none" stroke-dasharray="none" stroke-dashoffset="0" stroke-linecap="round" stroke-linejoin="miter" stroke-miterlimit="4" stroke-opacity="1" stroke-width=".657" opacity=".66"/></g></g></svg>