<svg xmlns="http://www.w3.org/2000/svg" xmlns:osb="http://www.openswatchbook.org/uri/2009/osb" xmlns:svg="http://www.w3.org/2000/svg" xmlns:xlink="http://www.w3.org/1999/xlink" id="svg7384" width="16" height="16" version="1.1" viewBox="0 0 16 16"><metadata id="metadata90"/><defs id="defs7386"><linearGradient id="linearGradient8074" osb:paint="solid"><stop id="stop8072" offset="0" stop-color="#be00be" stop-opacity="1"/></linearGradient><linearGradient id="linearGradient7561" osb:paint="solid"><stop id="stop7558" offset="0" stop-color="#a5a5a5" stop-opacity="1"/></linearGradient><linearGradient id="linearGradient7548" osb:paint="solid"><stop id="stop7546" offset="0" stop-color="#ebebeb" stop-opacity="1"/></linearGradient><linearGradient id="linearGradient7542" osb:paint="solid"><stop id="stop7538" offset="0" stop-color="#c9c9c9" stop-opacity="1"/></linearGradient><linearGradient id="linearGradient19282" gradientTransform="matrix(0,-735328.32,170712.69,0,2464326300,577972450)" osb:paint="solid"><stop id="stop19284" offset="0" stop-color="#b4b4b4" stop-opacity="1"/></linearGradient><linearGradient id="linearGradient19282-4" gradientTransform="matrix(0.34682586,0,0,0.30620888,-154.35235,-275.32369)" osb:paint="solid"><stop id="stop19284-0" offset="0" stop-color="#bebebe" stop-opacity="1"/></linearGradient><linearGradient id="linearGradient7101" x1="0" x2="16" y1="1044.362" y2="1044.362" gradientTransform="translate(500.77345,155.62152)" gradientUnits="userSpaceOnUse" xlink:href="#linearGradient19282-4"/><linearGradient id="linearGradient7111" x1="-2.266" x2="11.266" y1="1044.557" y2="1044.557" gradientTransform="translate(564.13678,-277.24875)" gradientUnits="userSpaceOnUse" xlink:href="#linearGradient19282-4"/></defs><g id="stock" display="inline" transform="translate(-42.962302,11.409717)"><g id="gimp-color-triangle" transform="translate(42.962587,-1047.7719)"><path id="path3966-8" fill="url(#linearGradient7111)" fill-opacity="1" stroke="none" stroke-dasharray="none" stroke-miterlimit="4" stroke-opacity="1" stroke-width="1" d="m 7.1250001,1051.1747 -9.390824,-10.2032 13.5316479,-3.0311 z" opacity=".3" transform="matrix(0.61015326,0.58792581,-0.56470427,0.63498592,594.25549,378.69211)"/><path id="path3938-77" fill="url(#linearGradient7101)" fill-opacity="1" fill-rule="nonzero" stroke="none" stroke-dasharray="none" stroke-dashoffset="0" stroke-linecap="butt" stroke-linejoin="miter" stroke-miterlimit="4" stroke-opacity="1" stroke-width=".877" d="m 8,1036.3622 c -4.9444326,0 -7.96875,3.4306 -8,8 -0.03424128,5.0067 3.024415,8 8,8 4.319335,0 8,-3.0244 8,-8 0,-4.3818 -3.055753,-7.9966 -8,-8 z m 0,1 c 3.82334,0 6.820259,2.7218 7,6.5 l -10,-6 c 0.938039,-0.4541 1.886341,-0.5 3,-0.5 z m -4,1 0,11.9668 c -1.948969,-1.2699 -3,-3.463 -3,-5.9668 0,-2.4997 1.400121,-4.5104 3,-6 z m 1,0.5 9,5.5 -9,5.5 0,-10.9688 z m 10,6 c -0.327436,3.6336 -3.27994,6.5 -7,6.5 -1.09125,0 -2.076312,-0.129 -3,-0.566 z" baseline-shift="baseline" clip-rule="nonzero" color="#000" color-interpolation="sRGB" color-interpolation-filters="linearRGB" color-rendering="auto" direction="ltr" display="inline" enable-background="accumulate" font-family="sans-serif" font-size="medium" font-stretch="normal" font-style="normal" font-variant="normal" font-weight="normal" image-rendering="auto" letter-spacing="normal" opacity="1" overflow="visible" shape-rendering="auto" text-anchor="start" text-decoration="none" text-rendering="auto" visibility="visible" word-spacing="normal" writing-mode="lr-tb" style="line-height:normal;text-indent:0;text-align:start;text-decoration-line:none;text-decoration-style:solid;text-decoration-color:#000;text-transform:none;white-space:normal;isolation:auto;mix-blend-mode:normal;solid-color:#000;solid-opacity:1"/></g></g></svg>