<svg xmlns="http://www.w3.org/2000/svg" xmlns:osb="http://www.openswatchbook.org/uri/2009/osb" xmlns:svg="http://www.w3.org/2000/svg" xmlns:xlink="http://www.w3.org/1999/xlink" id="svg7384" width="16" height="16" version="1.1" viewBox="0 0 16 16"><metadata id="metadata90"/><defs id="defs7386"><linearGradient id="linearGradient8074" osb:paint="solid"><stop id="stop8072" offset="0" stop-color="#be00be" stop-opacity="1"/></linearGradient><linearGradient id="linearGradient7561" osb:paint="solid"><stop id="stop7558" offset="0" stop-color="#a5a5a5" stop-opacity="1"/></linearGradient><linearGradient id="linearGradient7548" osb:paint="solid"><stop id="stop7546" offset="0" stop-color="#ebebeb" stop-opacity="1"/></linearGradient><linearGradient id="linearGradient7542" osb:paint="solid"><stop id="stop7538" offset="0" stop-color="#c9c9c9" stop-opacity="1"/></linearGradient><linearGradient id="linearGradient19282" gradientTransform="matrix(0,-735328.32,170712.69,0,2464326300,577972450)" osb:paint="solid"><stop id="stop19284" offset="0" stop-color="#b4b4b4" stop-opacity="1"/></linearGradient><linearGradient id="linearGradient19282-4" gradientTransform="matrix(0.34682586,0,0,0.30620888,-154.35207,-275.32368)" osb:paint="solid"><stop id="stop19284-0" offset="0" stop-color="#bebebe" stop-opacity="1"/></linearGradient><linearGradient id="linearGradient7558" x1="5" x2="14" y1="1048.362" y2="1048.362" gradientTransform="translate(422.47376,283.03651)" gradientUnits="userSpaceOnUse" xlink:href="#linearGradient19282-4"/><linearGradient id="linearGradient7560" x1="5" x2="14" y1="1044.362" y2="1044.362" gradientTransform="translate(422.47376,283.03651)" gradientUnits="userSpaceOnUse" xlink:href="#linearGradient19282-4"/><linearGradient id="linearGradient7562" x1="5" x2="14" y1="1040.362" y2="1040.362" gradientTransform="translate(422.47376,283.03651)" gradientUnits="userSpaceOnUse" xlink:href="#linearGradient19282-4"/><linearGradient id="linearGradient7568" x1=".5" x2="3.5" y1="1048.362" y2="1048.362" gradientTransform="translate(422.47376,283.03651)" gradientUnits="userSpaceOnUse" xlink:href="#linearGradient19282-4"/><linearGradient id="linearGradient7570" x1=".5" x2="3.5" y1="1044.362" y2="1044.362" gradientTransform="translate(422.47376,283.03651)" gradientUnits="userSpaceOnUse" xlink:href="#linearGradient19282-4"/><linearGradient id="linearGradient7572" x1=".5" x2="3.5" y1="1040.362" y2="1040.362" gradientTransform="translate(422.47376,283.03651)" gradientUnits="userSpaceOnUse" xlink:href="#linearGradient19282-4"/></defs><g id="stock" display="inline" transform="translate(35.33739,-116.00527)"><g id="gimp-list" transform="translate(-35.33739,-920.35691)"><rect id="rect7356" width="9" height="2" x="5" y="1039.362" fill="url(#linearGradient7562)" fill-opacity="1" stroke="none" stroke-width=".949" color="#bebebe" display="inline" overflow="visible" visibility="visible" style="marker:none"/><rect id="rect7358" width="9" height="2" x="5" y="1043.362" fill="url(#linearGradient7560)" fill-opacity="1" stroke="none" stroke-width=".949" color="#bebebe" display="inline" overflow="visible" visibility="visible" style="marker:none"/><rect id="rect7360" width="9" height="2" x="5" y="1047.362" fill="url(#linearGradient7558)" fill-opacity="1" stroke="none" stroke-width=".949" color="#bebebe" display="inline" overflow="visible" visibility="visible" style="marker:none"/><path id="path3148" fill="url(#linearGradient7572)" fill-opacity="1" stroke="none" stroke-dasharray="none" stroke-miterlimit="4" stroke-opacity="1" stroke-width=".332" d="m 3.5,1040.3622 a 1.5,1.5 0 0 1 -1.4988088,1.5 1.5,1.5 0 0 1 -1.50118931,-1.4976 1.5,1.5 0 0 1 1.49642451,-1.5024 1.5,1.5 0 0 1 1.503566,1.4952" opacity="1"/><path id="path3148-6" fill="url(#linearGradient7570)" fill-opacity="1" stroke="none" stroke-dasharray="none" stroke-miterlimit="4" stroke-opacity="1" stroke-width=".332" d="m 3.5,1044.3622 a 1.5,1.5 0 0 1 -1.4988088,1.5 1.5,1.5 0 0 1 -1.50118931,-1.4976 1.5,1.5 0 0 1 1.49642451,-1.5024 1.5,1.5 0 0 1 1.503566,1.4952" opacity="1"/><path id="path3148-7" fill="url(#linearGradient7568)" fill-opacity="1" stroke="none" stroke-dasharray="none" stroke-miterlimit="4" stroke-opacity="1" stroke-width=".332" d="m 3.5,1048.3622 a 1.5,1.5 0 0 1 -1.4988088,1.5 1.5,1.5 0 0 1 -1.50118931,-1.4976 1.5,1.5 0 0 1 1.49642451,-1.5024 1.5,1.5 0 0 1 1.503566,1.4952" opacity="1"/></g></g></svg>