<svg xmlns="http://www.w3.org/2000/svg" xmlns:osb="http://www.openswatchbook.org/uri/2009/osb" xmlns:svg="http://www.w3.org/2000/svg" id="svg30571" width="16" height="16" version="1.1" viewBox="0 0 16 16"><defs id="defs30573"><linearGradient id="linearGradient19282" gradientTransform="matrix(1.2178615,0,0,1.043881,378.84797,1794.4958)" osb:paint="solid"><stop id="stop19284" offset="0" stop-color="#505050" stop-opacity="1"/></linearGradient></defs><metadata id="metadata30576"/><g id="layer1" transform="translate(0,-1036.3622)"><g id="g7082" transform="matrix(-0.95044264,0.95567911,-0.95567911,-0.95044264,951.74982,2043.6895)"><g id="g4248"><path id="path6388-7-7-4-7" fill="#bebebe" fill-opacity="1" fill-rule="nonzero" stroke="none" stroke-dasharray="none" stroke-dashoffset="0" stroke-linecap="round" stroke-linejoin="miter" stroke-miterlimit="4" stroke-opacity="1" stroke-width="2.411" d="m -38.702291,1019.4401 a 1.2088921,1.2031036 45.157416 0 0 1.22702,1.1539 l 4.328611,-0.062 0.05582,4.3273 a 1.2097974,1.2040046 45.157416 0 0 2.413556,-0.02 l -0.05786,-4.3407 4.341827,-0.062 a 1.2086076,1.2028205 45.157416 0 0 0.804339,-2.0962 1.2086076,1.2028205 45.157416 0 0 -0.851595,-0.3155 l -4.326734,0.062 -0.05773,-4.3292 a 1.2086076,1.2028205 45.157416 0 0 -0.36448,-0.8671 1.2086076,1.2028205 45.157416 0 0 -2.045307,0.8877 l 0.05601,4.3426 -4.339922,0.062 a 1.2088921,1.2031036 45.157416 0 0 -1.183546,1.2577 z" baseline-shift="baseline" clip-rule="nonzero" color="#000" color-interpolation="sRGB" color-interpolation-filters="linearRGB" color-rendering="auto" direction="ltr" display="inline" dominant-baseline="auto" enable-background="accumulate" font-family="sans-serif" font-size="medium" font-stretch="normal" font-style="normal" font-variant="normal" font-weight="normal" image-rendering="auto" letter-spacing="normal" opacity="1" overflow="visible" shape-rendering="auto" text-anchor="start" text-decoration="none" text-rendering="auto" visibility="visible" word-spacing="normal" writing-mode="lr-tb" style="line-height:normal;font-variant-ligatures:normal;font-variant-position:normal;font-variant-caps:normal;font-variant-numeric:normal;font-variant-alternates:normal;font-feature-settings:normal;text-indent:0;text-align:start;text-decoration-line:none;text-decoration-style:solid;text-decoration-color:#000;text-transform:none;text-orientation:mixed;white-space:normal;shape-padding:0;isolation:auto;mix-blend-mode:normal;solid-color:#000;solid-opacity:1"/></g></g></g></svg>