<svg xmlns="http://www.w3.org/2000/svg" xmlns:cc="http://web.resource.org/cc/" xmlns:svg="http://www.w3.org/2000/svg" xmlns:xlink="http://www.w3.org/1999/xlink" id="svg1" width="16" height="16" x="0" y="0" version="1.0"><metadata id="metadata162"/><defs id="defs3"><linearGradient id="linearGradient2862"><stop id="stop2864" offset="0" stop-color="#3465a4" stop-opacity="1"/><stop id="stop2866" offset="1" stop-color="#204a87" stop-opacity="1"/></linearGradient><linearGradient id="linearGradient2846"><stop id="stop2848" offset="0" stop-color="#3465a4" stop-opacity="1"/><stop id="stop2850" offset="1" stop-color="#729fcf" stop-opacity="1"/></linearGradient><linearGradient id="linearGradient1961" x1="31.116" x2="31.116" y1="27.866" y2="30.773" gradientUnits="userSpaceOnUse" xlink:href="#linearGradient2862"/><linearGradient id="linearGradient1906" x1="8" x2="8" y1=".563" y2="11.438" gradientUnits="userSpaceOnUse" xlink:href="#linearGradient2846"/></defs><g id="layer2" display="inline"><path id="rect1927" fill="url(#linearGradient1906)" fill-opacity="1" fill-rule="evenodd" stroke="#204a87" stroke-dasharray="none" stroke-dashoffset="0" stroke-linecap="round" stroke-linejoin="round" stroke-miterlimit="4" stroke-opacity="1" stroke-width="1" marker-end="none" marker-mid="none" marker-start="none" d="M 5.4999976,0.4999914 C 3.4912384,0.4999914 1.8764691,0.72027076 0.4999996,1.0613557 L 0.4999996,15.4697 L 15.499994,15.4697 L 15.499994,1.0613557 C 14.124852,0.72268687 12.519772,0.4999914 10.499996,0.4999914 L 5.4999976,0.4999914 z" color="#000" display="inline" overflow="visible" visibility="visible" style="marker:none"/><path id="path2829" fill="#729fcf" fill-opacity="1" fill-rule="evenodd" stroke="#204a87" stroke-dashoffset="0" stroke-linecap="round" stroke-linejoin="miter" stroke-miterlimit="4" stroke-opacity="1" stroke-width="1" marker-end="none" marker-mid="none" marker-start="none" d="M 12.499997,2.1379274 C 12.499997,3.4474256 10.474261,4.5102065 7.9782615,4.5102065 C 5.4822641,4.5102065 3.456526,3.4474256 3.456526,2.1379274 C 3.456526,0.82843 3.9040953,0.50698626 7.9782615,0.50698626 C 12.122873,0.50698626 12.499997,0.82843 12.499997,2.1379274 z" color="#000" display="inline" overflow="visible" visibility="visible" style="marker:none"/><g id="g2806" fill-opacity="1" stroke="#204a87" opacity=".6"><path id="path2794" fill="#3465a4" fill-opacity="1" fill-rule="evenodd" stroke="#204a87" stroke-linecap="round" stroke-linejoin="miter" stroke-opacity="1" stroke-width="1" d="M 3.5,4 L 3.5,14.5" opacity=".5"/><path id="path2796" fill="#3465a4" fill-opacity="1" fill-rule="evenodd" stroke="#204a87" stroke-linecap="round" stroke-linejoin="miter" stroke-opacity="1" stroke-width="1" d="M 5.5,5 L 5.5,14.5" display="inline" opacity=".5"/><path id="path2800" fill="#3465a4" fill-opacity="1" fill-rule="evenodd" stroke="#204a87" stroke-linecap="round" stroke-linejoin="miter" stroke-opacity="1" stroke-width="1" d="M 10.5,5 L 10.5,14.5" display="inline" opacity=".5"/><path id="path2802" fill="#3465a4" fill-opacity="1" fill-rule="evenodd" stroke="#204a87" stroke-linecap="round" stroke-linejoin="miter" stroke-opacity="1" stroke-width="1" d="M 12.5,4 L 12.5,14.5" display="inline" opacity=".5"/></g><path id="path2941" fill="none" fill-opacity="1" fill-rule="evenodd" stroke="#fff" stroke-dasharray="none" stroke-dashoffset="0" stroke-linecap="round" stroke-linejoin="miter" stroke-miterlimit="4" stroke-opacity="1" stroke-width="1.309" marker-end="none" marker-mid="none" marker-start="none" d="M 24.5,28.46875 C 22.459316,28.46875 20.904224,28.749808 19.46875,29.09375 L 19.46875,46.53125 L 35.53125,46.53125 L 35.53125,29.09375 C 34.097014,28.750791 32.551878,28.46875 30.5,28.46875 L 24.5,28.46875 z" color="#000" display="inline" opacity=".35" overflow="visible" transform="matrix(0.809206,0,0,0.721524,-14.28547,-19.07216)" visibility="visible" style="marker:none"/><path id="path2823" fill="url(#linearGradient1961)" fill-opacity="1" fill-rule="evenodd" stroke="#204a87" stroke-dasharray="none" stroke-dashoffset="0" stroke-linecap="round" stroke-linejoin="miter" stroke-miterlimit="4" stroke-opacity="1" stroke-width="1.535" marker-end="none" marker-mid="none" marker-start="none" d="M 36.6875 28.15625 A 5.09375 1.15625 0 1 1 26.5,28.15625 A 5.09375 1.15625 0 1 1 36.6875 28.15625 z" color="#000" display="inline" overflow="visible" transform="matrix(0.490795,0,0,0.864864,-7.506043,-22.85134)" visibility="visible" style="marker:none"/></g></svg>