<svg xmlns="http://www.w3.org/2000/svg" xmlns:svg="http://www.w3.org/2000/svg" xmlns:xlink="http://www.w3.org/1999/xlink" id="svg1" width="16" height="16" x="0" y="0" version="1.0"><metadata id="metadata162"/><defs id="defs3"><linearGradient id="linearGradient2983"><stop id="stop2985" offset="0" stop-color="#888a85" stop-opacity="1"/><stop id="stop2987" offset="1" stop-color="#d3d7cf" stop-opacity="1"/></linearGradient><linearGradient id="linearGradient2977"><stop id="stop2979" offset="0" stop-color="#babdb6" stop-opacity="1"/><stop id="stop2981" offset="1" stop-color="#888a85" stop-opacity="1"/></linearGradient><linearGradient id="linearGradient2862"><stop id="stop2864" offset="0" stop-color="#3465a4" stop-opacity="1"/><stop id="stop2866" offset="1" stop-color="#204a87" stop-opacity="1"/></linearGradient><linearGradient id="linearGradient2846"><stop id="stop2848" offset="0" stop-color="#3465a4" stop-opacity="1"/><stop id="stop2850" offset="1" stop-color="#729fcf" stop-opacity="1"/></linearGradient><linearGradient id="linearGradient4734"><stop id="stop4736" offset="0" stop-color="#cccdbc" stop-opacity="1"/><stop id="stop4738" offset="1" stop-color="#b9baa4" stop-opacity="1"/></linearGradient><linearGradient id="linearGradient356"><stop id="stop357" offset="0" stop-color="#fffff3" stop-opacity="1"/><stop id="stop358" offset="1" stop-color="#fffff3" stop-opacity="0"/></linearGradient><linearGradient id="linearGradient311"><stop id="stop312" offset="0" stop-color="#cfcfc4" stop-opacity="1"/><stop id="stop335" offset=".327" stop-color="#cfcfc4" stop-opacity="1"/><stop id="stop313" offset="1" stop-color="#cfcfc4" stop-opacity="0"/></linearGradient><linearGradient id="linearGradient235"><stop id="stop236" offset="0" stop-color="#59594a" stop-opacity="1"/><stop id="stop237" offset="1" stop-color="#a2a491" stop-opacity="1"/></linearGradient><linearGradient id="linearGradient2973" x1="27.375" x2="27.375" y1="15.326" y2="41.876" gradientTransform="translate(5,-5)" gradientUnits="userSpaceOnUse" xlink:href="#linearGradient2983"/><linearGradient id="linearGradient2975" x1="31.116" x2="31.116" y1="26.601" y2="29.698" gradientUnits="userSpaceOnUse" xlink:href="#linearGradient2977"/><linearGradient id="linearGradient2893" x1="27.375" x2="27.375" y1="15.326" y2="41.876" gradientTransform="translate(5,-5)" gradientUnits="userSpaceOnUse" xlink:href="#linearGradient2983"/><linearGradient id="linearGradient2895" x1="31.116" x2="31.116" y1="26.601" y2="29.698" gradientUnits="userSpaceOnUse" xlink:href="#linearGradient2977"/><linearGradient id="linearGradient2898" x1="27.375" x2="27.375" y1="15.326" y2="41.876" gradientTransform="translate(1,2)" gradientUnits="userSpaceOnUse" xlink:href="#linearGradient2846"/><linearGradient id="linearGradient2900" x1="31.116" x2="31.116" y1="27.866" y2="30.773" gradientUnits="userSpaceOnUse" xlink:href="#linearGradient2862"/></defs><g id="layer2" display="inline"><g id="g2957" transform="matrix(0.551253,0,0,0.551253,-10.521283,-10.735277)"><path id="path2945" fill="url(#linearGradient2973)" fill-opacity="1" fill-rule="evenodd" stroke="#888a85" stroke-dasharray="none" stroke-dashoffset="0" stroke-linecap="round" stroke-linejoin="round" stroke-miterlimit="4" stroke-opacity="1" stroke-width="1.814" marker-end="none" marker-mid="none" marker-start="none" d="M 33.5,20.5 C 31.089488,20.5 29.151764,20.7943 27.5,21.25 L 27.5,40.5 L 45.5,40.5 L 45.5,21.25 C 43.849829,20.797528 41.923733,20.5 39.5,20.5 L 33.5,20.5 z" color="#000" display="inline" overflow="visible" visibility="visible" style="marker:none"/><path stroke-width="1.814" style="marker:none" id="path2947" fill="#d3d7cf" fill-opacity="1" fill-rule="evenodd" stroke="#888a85" stroke-dashoffset="0" stroke-linecap="round" stroke-linejoin="miter" stroke-miterlimit="4" stroke-opacity="1" marker-end="none" marker-mid="none" marker-start="none" d="M 42.5,22.500005 C 42.5,24.156006 39.811998,25.500006 36.499995,25.500006 C 33.187993,25.500006 30.49999,24.156006 30.49999,22.500005 C 30.49999,20.844005 31.093881,20.437505 36.499995,20.437505 C 41.999586,20.437505 42.5,20.844005 42.5,22.500005 z" color="#000" display="inline" overflow="visible" visibility="visible"/><path id="path2949" fill="none" fill-opacity="1" fill-rule="evenodd" stroke="#fff" stroke-dasharray="none" stroke-dashoffset="0" stroke-linecap="round" stroke-linejoin="miter" stroke-miterlimit="4" stroke-opacity="1" stroke-width="2.021" marker-end="none" marker-mid="none" marker-start="none" d="M 24.5,28.46875 C 22.459316,28.46875 20.904224,28.749808 19.46875,29.09375 L 19.46875,46.53125 L 35.53125,46.53125 L 35.53125,29.09375 C 34.097014,28.750791 32.551878,28.46875 30.5,28.46875 L 24.5,28.46875 z" color="#000" display="inline" opacity=".502" overflow="visible" transform="matrix(0.897383,0,0,0.897383,11.82197,-3.1518592)" visibility="visible" style="marker:none"/><path id="path2951" fill="url(#linearGradient2975)" fill-opacity="1" fill-rule="evenodd" stroke="#888a85" stroke-dasharray="none" stroke-dashoffset="0" stroke-linecap="round" stroke-linejoin="miter" stroke-miterlimit="4" stroke-opacity="1" stroke-width="1.797" marker-end="none" marker-mid="none" marker-start="none" d="M 36.6875,28.15625 A 5.09375,1.15625 0 1 1 26.5,28.15625 A 5.09375,1.15625 0 1 1 36.6875,28.15625 z" color="#000" display="inline" overflow="visible" transform="matrix(0.785278,0,0,1.297293,11.69013,-14.52691)" visibility="visible" style="marker:none"/></g><g id="g2868" transform="matrix(0.5523337,0,0,0.5523337,-11.433589,-10.795828)"><path id="rect1927" fill="url(#linearGradient2898)" fill-opacity="1" fill-rule="evenodd" stroke="#204a87" stroke-dasharray="none" stroke-dashoffset="0" stroke-linecap="round" stroke-linejoin="round" stroke-miterlimit="4" stroke-opacity="1" stroke-width="1.81" marker-end="none" marker-mid="none" marker-start="none" d="M 29.5,27.5 C 27.089488,27.5 25.151764,27.7943 23.5,28.25 L 23.5,47.5 L 41.5,47.5 L 41.5,28.25 C 39.849829,27.797528 37.923733,27.5 35.5,27.5 L 29.5,27.5 z" color="#000" display="inline" overflow="visible" visibility="visible" style="marker:none"/><path stroke-width="1.81" style="marker:none" id="path2829" fill="#729fcf" fill-opacity="1" fill-rule="evenodd" stroke="#204a87" stroke-dashoffset="0" stroke-linecap="round" stroke-linejoin="miter" stroke-miterlimit="4" stroke-opacity="1" marker-end="none" marker-mid="none" marker-start="none" d="M 38.5,29.500005 C 38.5,31.156006 35.811998,32.500006 32.499995,32.500006 C 29.187993,32.500006 26.49999,31.156006 26.49999,29.500005 C 26.49999,27.844005 27.093881,27.437505 32.499995,27.437505 C 37.999586,27.437505 38.5,27.844005 38.5,29.500005 z" color="#000" display="inline" overflow="visible" visibility="visible"/><g id="g2852" opacity=".3"><path id="path2840" fill="none" fill-opacity=".75" fill-rule="evenodd" stroke="#204a87" stroke-linecap="round" stroke-linejoin="miter" stroke-opacity="1" stroke-width="1.81" d="M 27.064175,32 L 27.064175,46.5" display="inline"/><path id="path2842" fill="none" fill-opacity=".75" fill-rule="evenodd" stroke="#204a87" stroke-linecap="round" stroke-linejoin="miter" stroke-opacity="1" stroke-width="1.81" d="M 30.658629,33.056578 L 30.658629,46.556578" display="inline"/><path id="path2844" fill="none" fill-opacity=".75" fill-rule="evenodd" stroke="#204a87" stroke-linecap="round" stroke-linejoin="miter" stroke-opacity="1" stroke-width="1.81" d="M 34.308728,33.5 L 34.308728,46.5" display="inline"/><path id="path4749" fill="none" fill-opacity=".75" fill-rule="evenodd" stroke="#204a87" stroke-linecap="round" stroke-linejoin="miter" stroke-opacity="1" stroke-width="1.81" d="M 37.972661,31.504542 L 37.972661,46.33336" display="inline"/></g><path id="path2941" fill="none" fill-opacity="1" fill-rule="evenodd" stroke="#fff" stroke-dasharray="none" stroke-dashoffset="0" stroke-linecap="round" stroke-linejoin="miter" stroke-miterlimit="4" stroke-opacity="1" stroke-width="2.02" marker-end="none" marker-mid="none" marker-start="none" d="M 24.5,28.46875 C 22.459316,28.46875 20.904224,28.749808 19.46875,29.09375 L 19.46875,46.53125 L 35.53125,46.53125 L 35.53125,29.09375 C 34.097014,28.750791 32.551878,28.46875 30.5,28.46875 L 24.5,28.46875 z" color="#000" display="inline" opacity=".35" overflow="visible" transform="matrix(0.8964859,0,0,0.8964859,7.8466361,3.8817765)" visibility="visible" style="marker:none"/><path id="path2823" fill="url(#linearGradient2900)" fill-opacity="1" fill-rule="evenodd" stroke="#204a87" stroke-dasharray="none" stroke-dashoffset="0" stroke-linecap="round" stroke-linejoin="miter" stroke-miterlimit="4" stroke-opacity="1" stroke-width="1.794" marker-end="none" marker-mid="none" marker-start="none" d="M 36.6875,28.15625 A 5.09375,1.15625 0 1 1 26.5,28.15625 A 5.09375,1.15625 0 1 1 36.6875,28.15625 z" color="#000" display="inline" overflow="visible" transform="matrix(0.785278,0,0,1.297293,7.690127,-7.526911)" visibility="visible" style="marker:none"/></g></g></svg>