<svg xmlns="http://www.w3.org/2000/svg" xmlns:cc="http://web.resource.org/cc/" xmlns:svg="http://www.w3.org/2000/svg" xmlns:xlink="http://www.w3.org/1999/xlink" id="svg11300" width="22" height="22" version="1.0"><defs id="defs3"><linearGradient id="linearGradient3832"><stop id="stop3834" offset="0" stop-color="#fff" stop-opacity="1"/><stop id="stop3836" offset="1" stop-color="#e0e0e0" stop-opacity="1"/></linearGradient><linearGradient id="linearGradient2791" x1="17.881" x2="17.881" y1="11.073" y2="21.768" gradientTransform="matrix(1.018331,0,0,1.000091,-0.101768,-0.443376)" gradientUnits="userSpaceOnUse" xlink:href="#linearGradient3832"/><linearGradient id="linearGradient2034" x1="17.881" x2="17.881" y1="11.073" y2="21.768" gradientTransform="matrix(1.181276,0,0,1.196384,-3.997019,-7.06142)" gradientUnits="userSpaceOnUse" xlink:href="#linearGradient3832"/><linearGradient id="linearGradient1887" x1="17.881" x2="17.881" y1="11.073" y2="21.768" gradientTransform="matrix(0.497306,0,0,1.008439,-2.235184,-8.577429)" gradientUnits="userSpaceOnUse" xlink:href="#linearGradient3832"/></defs><metadata id="metadata4"/><g id="layer1"><rect id="rect3862" width="19.003" height="19.003" x="2.5" y="2.5" fill="url(#linearGradient2034)" fill-opacity="1" fill-rule="evenodd" stroke="#3465a4" stroke-dasharray="none" stroke-dashoffset="0" stroke-linecap="butt" stroke-linejoin="miter" stroke-miterlimit="4" stroke-opacity="1" stroke-width="1" marker-end="none" marker-mid="none" marker-start="none" color="#000" display="inline" overflow="visible" rx=".779" ry=".808" visibility="visible" style="marker:none"/><rect id="rect3864" width="15" height="1" x="5" y="4" fill="#204a87" fill-opacity="1" fill-rule="evenodd" stroke="none" stroke-dasharray="none" stroke-dashoffset="0" stroke-linecap="butt" stroke-linejoin="miter" stroke-miterlimit="4" stroke-opacity="1" stroke-width="1" marker-end="none" marker-mid="none" marker-start="none" color="#000" display="inline" overflow="visible" rx=".139" ry=".111" visibility="visible" style="marker:none"/><rect id="rect2787" width="8" height="15" x=".5" y=".5" fill="url(#linearGradient1887)" fill-opacity="1" fill-rule="evenodd" stroke="#888a85" stroke-dasharray="none" stroke-dashoffset="0" stroke-linecap="butt" stroke-linejoin="miter" stroke-miterlimit="4" stroke-opacity="1" stroke-width="1" marker-end="none" marker-mid="none" marker-start="none" color="#000" display="inline" overflow="visible" rx="1.126" ry="1.115" visibility="visible" style="marker:none"/><rect id="rect2789" width="5" height="1" x="2" y="2" fill="#555753" fill-opacity="1" fill-rule="evenodd" stroke="none" stroke-dasharray="none" stroke-dashoffset="0" stroke-linecap="butt" stroke-linejoin="miter" stroke-miterlimit="4" stroke-opacity="1" stroke-width="1" marker-end="none" marker-mid="none" marker-start="none" color="#000" display="inline" overflow="visible" rx=".222" ry=".111" visibility="visible" style="marker:none"/><path stroke-width=".5" style="marker:none" id="path6940" fill="#ef2929" fill-opacity="1" fill-rule="evenodd" stroke="none" stroke-dasharray="none" stroke-dashoffset="0" stroke-linecap="round" stroke-linejoin="round" stroke-miterlimit="10" stroke-opacity="1" marker-end="none" marker-mid="none" marker-start="none" d="M 4.9375 7.0625 A 0.875 0.875 0 1 1 3.1875,7.0625 A 0.875 0.875 0 1 1 4.9375 7.0625 z" color="#000" display="inline" opacity="1" overflow="visible" transform="matrix(1.142857,0,0,1.142857,1.357143,-3.071429)" visibility="visible"/><path id="path6942" fill="#4e9a06" fill-opacity="1" fill-rule="evenodd" stroke="none" stroke-dasharray="none" stroke-dashoffset="0" stroke-linecap="round" stroke-linejoin="round" stroke-miterlimit="10" stroke-opacity="1" stroke-width=".5" marker-end="none" marker-mid="none" marker-start="none" d="M 4.9375 7.0625 A 0.875 0.875 0 1 1 3.1875,7.0625 A 0.875 0.875 0 1 1 4.9375 7.0625 z" color="#000" display="inline" opacity="1" overflow="visible" transform="matrix(1.142857,0,0,1.142857,-1.642856,-3.071428)" visibility="visible" style="marker:none"/><path stroke-width=".5" style="marker:none" id="path6944" fill="#3465a4" fill-opacity="1" fill-rule="evenodd" stroke="none" stroke-dasharray="none" stroke-dashoffset="0" stroke-linecap="round" stroke-linejoin="round" stroke-miterlimit="10" stroke-opacity="1" marker-end="none" marker-mid="none" marker-start="none" d="M 4.9375 7.0625 A 0.875 0.875 0 1 1 3.1875,7.0625 A 0.875 0.875 0 1 1 4.9375 7.0625 z" color="#000" display="inline" opacity="1" overflow="visible" transform="matrix(1.142857,0,0,1.142857,-1.642856,-7.1428e-2)" visibility="visible"/><path id="path6946" fill="#888a85" fill-opacity="1" fill-rule="evenodd" stroke="none" stroke-dasharray="none" stroke-dashoffset="0" stroke-linecap="round" stroke-linejoin="round" stroke-miterlimit="10" stroke-opacity="1" stroke-width=".5" marker-end="none" marker-mid="none" marker-start="none" d="M 4.9375 7.0625 A 0.875 0.875 0 1 1 3.1875,7.0625 A 0.875 0.875 0 1 1 4.9375 7.0625 z" color="#000" display="inline" opacity="1" overflow="visible" transform="matrix(1.142857,0,0,1.142857,1.357143,-7.1427e-2)" visibility="visible" style="marker:none"/><path stroke-width=".5" style="marker:none" id="path6948" fill="#c4a000" fill-opacity="1" fill-rule="evenodd" stroke="none" stroke-dasharray="none" stroke-dashoffset="0" stroke-linecap="round" stroke-linejoin="round" stroke-miterlimit="10" stroke-opacity="1" marker-end="none" marker-mid="none" marker-start="none" d="M 4.9375 7.0625 A 0.875 0.875 0 1 1 3.1875,7.0625 A 0.875 0.875 0 1 1 4.9375 7.0625 z" color="#000" display="inline" opacity="1" overflow="visible" transform="matrix(1.142857,0,0,1.142857,1.357144,2.928572)" visibility="visible"/><path id="path6950" fill="#f57900" fill-opacity="1" fill-rule="evenodd" stroke="none" stroke-dasharray="none" stroke-dashoffset="0" stroke-linecap="round" stroke-linejoin="round" stroke-miterlimit="10" stroke-opacity="1" stroke-width=".5" marker-end="none" marker-mid="none" marker-start="none" d="M 4.9375 7.0625 A 0.875 0.875 0 1 1 3.1875,7.0625 A 0.875 0.875 0 1 1 4.9375 7.0625 z" color="#000" display="inline" opacity="1" overflow="visible" transform="matrix(1.142857,0,0,1.142857,-1.642856,2.928572)" visibility="visible" style="marker:none"/></g></svg>