<svg xmlns="http://www.w3.org/2000/svg" xmlns:svg="http://www.w3.org/2000/svg" xmlns:xlink="http://www.w3.org/1999/xlink" id="svg2" width="22" height="22" version="1.1"><defs id="defs4"><linearGradient id="linearGradient3845"><stop id="stop3847" offset="0" stop-color="#a3bedd" stop-opacity="1"/><stop id="stop3849" offset="1" stop-color="#487cbc" stop-opacity="1"/></linearGradient><linearGradient id="linearGradient6410"><stop id="stop6412" offset="0" stop-color="#a9c3e3" stop-opacity="1"/><stop id="stop6414" offset=".33" stop-color="#86a9d4" stop-opacity="1"/><stop id="stop6416" offset=".811" stop-color="#336eb3" stop-opacity="1"/><stop id="stop6418" offset="1" stop-color="#2861a4" stop-opacity="1"/></linearGradient><linearGradient id="linearGradient4581"><stop id="stop4583" offset="0" stop-color="#3d92fc" stop-opacity="1"/><stop id="stop4585" offset=".288" stop-color="#3d92fc" stop-opacity="1"/><stop id="stop4587" offset="1" stop-color="#005cf4" stop-opacity="1"/></linearGradient><linearGradient id="linearGradient3976"><stop id="stop3978" offset="0" stop-color="#878985" stop-opacity="1"/><stop id="stop3980" offset="1" stop-color="#545652" stop-opacity="1"/></linearGradient><linearGradient id="linearGradient3970"><stop id="stop3972" offset="0" stop-color="#ededeb" stop-opacity="1"/><stop id="stop3974" offset="1" stop-color="#d3d6cf" stop-opacity="1"/></linearGradient><linearGradient id="linearGradient4497" x1="3.095" x2="19.299" y1="1041.409" y2="1041.409" gradientTransform="translate(-0.1875,-0.25)" gradientUnits="userSpaceOnUse" xlink:href="#linearGradient3976"/><linearGradient id="linearGradient4603" x1="3.095" x2="19.299" y1="1041.409" y2="1041.409" gradientTransform="translate(-0.1875,-0.25)" gradientUnits="userSpaceOnUse" xlink:href="#linearGradient3970"/><linearGradient id="linearGradient4605" x1="3.095" x2="19.299" y1="1041.409" y2="1041.409" gradientTransform="translate(-0.1875,-0.25)" gradientUnits="userSpaceOnUse" xlink:href="#linearGradient3970"/><radialGradient id="radialGradient4611" cx="2.969" cy="13" r="1.563" fx="2.284" fy="12.158" gradientUnits="userSpaceOnUse" xlink:href="#linearGradient4581"/><filter id="filter4657" width="1.256" height="1.473" x="-.128" y="-.236"><feGaussianBlur id="feGaussianBlur4659" stdDeviation=".813"/></filter><radialGradient id="radialGradient6380" cx="2.969" cy="13" r="1.563" fx="2.284" fy="12.158" gradientUnits="userSpaceOnUse" xlink:href="#linearGradient6410"/><radialGradient id="radialGradient3841" cx="2.969" cy="13" r="1.563" fx="2.284" fy="12.158" gradientUnits="userSpaceOnUse" xlink:href="#linearGradient4581"/><radialGradient id="radialGradient3851" cx="2.969" cy="14.026" r="1.823" fx="2.969" fy="14.026" gradientTransform="matrix(0.99999742,-0.00227153,0.00132959,0.58532608,-0.01864095,5.8228999)" gradientUnits="userSpaceOnUse" xlink:href="#linearGradient3845"/><radialGradient id="radialGradient3855" cx="2.969" cy="13" r="1.563" fx="2.284" fy="12.158" gradientUnits="userSpaceOnUse" xlink:href="#linearGradient4581"/><radialGradient id="radialGradient3867" cx="2.969" cy="14.026" r="1.823" fx="2.969" fy="14.026" gradientTransform="matrix(0.99999742,-0.00227153,0.00132959,0.58532608,-0.01864095,5.8228999)" gradientUnits="userSpaceOnUse" xlink:href="#linearGradient3845"/><radialGradient id="radialGradient3871" cx="2.969" cy="13" r="1.563" fx="2.284" fy="12.158" gradientUnits="userSpaceOnUse" xlink:href="#linearGradient4581"/></defs><metadata id="metadata7"/><g id="layer1" transform="translate(0,-1030.3622)"><path id="path3881" fill="#000" fill-opacity="1" fill-rule="nonzero" stroke="none" stroke-width="1" d="m 7.125,19.625 a 3.09375,1.5 0 1 1 -6.1875,0 3.09375,1.5 0 1 1 6.1875,0 z" color="#bebebe" display="inline" enable-background="accumulate" opacity=".062" overflow="visible" transform="matrix(1.1616162,0,0,1,12.660985,1031.4247)" visibility="visible" style="marker:none"/><path id="path3879" fill="#000" fill-opacity="1" fill-rule="nonzero" stroke="none" stroke-width="1" d="m 7.125,19.625 a 3.09375,1.5 0 1 1 -6.1875,0 3.09375,1.5 0 1 1 6.1875,0 z" color="#bebebe" display="inline" enable-background="accumulate" opacity=".062" overflow="visible" transform="matrix(1.1616162,0,0,1,-1.1515152,1029.7997)" visibility="visible" style="marker:none"/><path id="path4627" fill="#2e3436" stroke="none" d="m 9.28125,1028.2188 -0.46875,7.125 4.78125,-3.1563 c 0.685937,-0.464 1.695958,-0.3671 2.28125,0.2187 l 3.9375,3.9376 -3.233045,-6.044 -7.298205,-2.081 z" filter="url(#filter4657)" opacity=".198" transform="matrix(1.19759,0.01466348,-0.77677238,0.61264037,796.33014,416.46146)"/><path id="path3391" fill="none" stroke="url(#linearGradient4603)" stroke-dasharray="none" stroke-linecap="butt" stroke-linejoin="miter" stroke-miterlimit="4" stroke-opacity="1" stroke-width="1" d="m 3.3812882,1046.7851 0.8533435,-12.8707 14.4035023,3.5419 -0.688535,10.9469 -6.744904,-6.7733 -7.8234068,5.1552 z"/><path id="path4495" fill="none" stroke="url(#linearGradient4497)" stroke-dasharray="none" stroke-linecap="butt" stroke-linejoin="miter" stroke-miterlimit="4" stroke-opacity="1" stroke-width="2.5" d="m 3.3812882,1046.7851 0.8533435,-12.8707 14.4035023,3.5419 -0.688535,10.9469 -6.744904,-6.7733 -7.8234068,5.1552 z"/><path id="path4383" fill="none" stroke="url(#linearGradient4605)" stroke-dasharray="none" stroke-linecap="butt" stroke-linejoin="miter" stroke-miterlimit="4" stroke-opacity="1" stroke-width="1" d="m 3.3812882,1046.7851 0.8533435,-12.8707 14.4035023,3.5419 -0.688535,10.9469 -6.744904,-6.7733 -7.8234068,5.1552 z"/><g id="g3857"><path id="path4537" fill="url(#radialGradient3851)" fill-opacity="1" stroke="#154384" stroke-dasharray="none" stroke-miterlimit="4" stroke-opacity="1" stroke-width=".522" d="m 4.53125,13 a 1.5625,1.5625 0 1 1 -3.125,0 1.5625,1.5625 0 1 1 3.125,0 z" transform="matrix(1.9170741,0,0,1.9170741,-1.128608,1008.9448)"/><path id="path3843" fill="#adc5e1" fill-opacity="1" fill-rule="nonzero" stroke="none" stroke-width="1" d="m 6.4081552,2.300447 a 1.7567184,1.2042912 0 1 1 -3.5134368,0 1.7567184,1.2042912 0 1 1 3.5134368,0 z" color="#bebebe" display="inline" enable-background="accumulate" overflow="visible" transform="translate(-0.09337855,1030.2827)" visibility="visible" style="marker:none"/></g><g id="g3861" transform="translate(13.941866,2.9908649)"><path id="path3863" fill="url(#radialGradient3867)" fill-opacity="1" stroke="#154384" stroke-dasharray="none" stroke-miterlimit="4" stroke-opacity="1" stroke-width=".522" d="m 4.53125,13 c 0,0.862945 -0.6995551,1.5625 -1.5625,1.5625 -0.8629449,0 -1.5625,-0.699555 -1.5625,-1.5625 0,-0.862945 0.6995551,-1.5625 1.5625,-1.5625 0.8629449,0 1.5625,0.699555 1.5625,1.5625 z" transform="matrix(1.9170741,0,0,1.9170741,-1.128608,1008.9448)"/><path id="path3865" fill="#adc5e1" fill-opacity="1" fill-rule="nonzero" stroke="none" stroke-width="1" d="m 6.4081552,2.300447 c 0,0.6651117 -0.7865096,1.2042912 -1.7567184,1.2042912 -0.9702088,0 -1.7567184,-0.5391795 -1.7567184,-1.2042912 0,-0.6651117 0.7865096,-1.2042912 1.7567184,-1.2042912 0.9702088,0 1.7567184,0.5391795 1.7567184,1.2042912 z" color="#bebebe" display="inline" enable-background="accumulate" overflow="visible" transform="translate(-0.09337855,1030.2827)" visibility="visible" style="marker:none"/></g><use id="use3873" width="22" height="22" x="0" y="0" transform="translate(-0.99999997,12.009144)" xlink:href="#g3861"/><use id="use3875" width="22" height="22" x="0" y="0" transform="translate(-7,-7.009144)" xlink:href="#use3873"/><use id="use3877" width="22" height="22" x="0" y="0" transform="translate(-7,5)" xlink:href="#use3875"/></g></svg>