<svg xmlns="http://www.w3.org/2000/svg" xmlns:svg="http://www.w3.org/2000/svg" id="svg30571" width="24" height="24" version="1.1" viewBox="0 0 24 24"><metadata id="metadata30576"/><g id="layer1" transform="translate(0,-1028.3622)"><g id="g4309"><path id="path3520" fill="#bebebe" fill-opacity="1" stroke="none" stroke-width="1.535" d="m 2.5714286,1034.3622 c -0.7857143,0 -1.5714286,0.75 -1.5714286,1.5 v 6 c 0,0.75 0.7857143,1.5 1.5714286,1.5 H 4 v -4 h 16 v 4 h 1.428571 c 0.785715,0 1.571429,-0.75 1.571429,-1.5 v -6 c 0,-0.75 -0.785714,-1.5 -1.571429,-1.5 z"/><path id="path4804" fill="#bebebe" fill-opacity="1" stroke="none" stroke-width="1.871" d="m 5,1029.3622 v 4 h 14 v -4 z"/><path id="rect17148" fill="#bebebe" fill-opacity="1" stroke="none" stroke-width="1.658" d="m 5,1040.3622 v 11 h 14 v -11 z m 3.5,3 v -2 H 13.75 17 v 2 1.7143 h -1.5 v -1.7143 H 14 v 5 H 7 v -5 z m 6.625,5 h 1.75 v 2 h -1.75 z"/><path id="rect17153" fill="#bebebe" fill-opacity="1" stroke="none" stroke-width="1.5" d="m 7.5,1041.8622 v 3 H 9 v 1.5 h 1.5 v 1.5 h 3 v -1.5 H 12 v -1.5 h -1.5 v -1.5 H 12 v 1.5 h 1.5 v -3 z m 1.5,4.5 H 7.5 v 1.5 H 9 Z" opacity=".3"/><rect id="rect17173" width="2" height="1.5" x="10.5" y="1043.362" fill="#bebebe" fill-opacity="1" stroke="none" stroke-width="1.732"/><rect id="rect17175" width="2" height="1.5" x="12" y="1044.862" fill="#bebebe" fill-opacity="1" stroke="none" stroke-width="1.732"/><rect id="rect17177" width="2" height="1.5" x="9" y="1046.362" fill="#bebebe" fill-opacity="1" stroke="none" stroke-width="1.732"/><rect id="rect17179" width="2" height="1.5" x="7.5" y="1044.862" fill="#bebebe" fill-opacity="1" stroke="none" stroke-width="1.732"/><rect id="rect17181" width="2" height="1.5" x="15" y="1047.862" fill="#bebebe" fill-opacity="1" stroke="none" stroke-width="1.732" opacity=".3"/><rect id="rect17186" width="3" height="1.5" x="13.5" y="1041.862" fill="#bebebe" fill-opacity="1" stroke="none" stroke-width="1.5" opacity=".3"/><rect id="rect17191" width="1.5" height="1.5" x="15" y="1043.362" fill="#bebebe" fill-opacity="1" stroke="none" stroke-width="1.5" opacity=".3"/></g></g></svg>