<svg xmlns="http://www.w3.org/2000/svg" xmlns:osb="http://www.openswatchbook.org/uri/2009/osb" xmlns:svg="http://www.w3.org/2000/svg" xmlns:xlink="http://www.w3.org/1999/xlink" id="svg30571" width="24" height="24" version="1.1" viewBox="0 0 24 24"><defs id="defs30573"><linearGradient id="linearGradient19282-4" gradientTransform="matrix(0.34682586,0,0,0.30620888,-482.61525,330.965)" osb:paint="solid"><stop id="stop19284-0" offset="0" stop-color="#bebebe" stop-opacity="1"/></linearGradient><linearGradient id="linearGradient7273" x1="121" x2="125" y1="212" y2="212" gradientTransform="matrix(1.7499994,0,0,1.5000001,-211.75027,732.8622)" gradientUnits="userSpaceOnUse" xlink:href="#linearGradient19282-4"/><linearGradient id="linearGradient7279" x1="127" x2="137" y1="200" y2="200" gradientTransform="matrix(1.4999998,0,0,1.4999998,-181.50027,732.86224)" gradientUnits="userSpaceOnUse" xlink:href="#linearGradient19282-4"/></defs><metadata id="metadata30576"/><g id="layer1" transform="translate(0,-1028.3622)"><g id="g9075" transform="matrix(1,0,0,-1,0,2080.7244)"><rect id="rect4716" width="7" height="3" x="0" y="1049.362" fill="url(#linearGradient7273)" fill-opacity="1" stroke="none" stroke-width="1.62" rx=".822" ry=".771"/><path id="rect4718" fill="url(#linearGradient7279)" fill-opacity="1" stroke="none" stroke-width="1.5" d="m 10.249999,1028.3622 c -0.6924895,0 -1.2499944,0.5734 -1.2499944,1.2857 v 5.1429 1.2857 c 0,0.7123 0.5575049,1.2857 1.2499944,1.2857 h 8.750009 3.75 c 0.69249,0 1.249995,-0.5734 1.249995,-1.2857 v -5.1429 -1.2857 c 0,-0.7123 -0.557505,-1.2857 -1.249995,-1.2857 h -8.750009 z"/><path id="rect9060" fill="#bebebe" fill-opacity="1" stroke="none" stroke-dasharray="none" stroke-linecap="square" stroke-linejoin="round" stroke-miterlimit="4" stroke-opacity="1" stroke-width="1" d="m 9,11 v 0.111328 L 11.873047,13.882812 7,18.835938 9.3183594,21 14.154297,16.085938 17,18.832031 V 11 Z" opacity="1" paint-order="stroke fill markers" transform="translate(0,1028.3622)"/></g></g></svg>