<svg xmlns="http://www.w3.org/2000/svg" xmlns:svg="http://www.w3.org/2000/svg" xmlns:xlink="http://www.w3.org/1999/xlink" id="svg2" width="24" height="24" version="1.1" viewBox="0 0 24 24"><metadata id="metadata42"/><defs id="defs4"><linearGradient id="linearGradient6951"><stop id="stop6953" offset="0" stop-color="#6e3d09" stop-opacity="1"/><stop id="stop6959" offset=".242" stop-color="#ea8113" stop-opacity="1"/><stop id="stop6961" offset=".621" stop-color="#5c3307" stop-opacity="1"/><stop id="stop6955" offset="1" stop-color="#e07c12" stop-opacity="1"/></linearGradient><linearGradient id="linearGradient4028" x1="8.51" x2="14.391" y1="12.352" y2="12.352" gradientUnits="userSpaceOnUse" xlink:href="#linearGradient6951"/></defs><g id="g4041" transform="matrix(1.5035068,0,0,1.4999437,-3.6453775,-1.2690844)"><path id="path6659-0" fill="#bebebe" fill-opacity="1" fill-rule="nonzero" stroke="none" stroke-dasharray="none" stroke-dashoffset="0" stroke-linecap="round" stroke-linejoin="miter" stroke-miterlimit="4" stroke-opacity="1" stroke-width=".291" marker-end="none" marker-mid="none" marker-start="none" d="M 3.2756368,8.3574651 C 2.6200906,8.957352 2.2698884,9.6320086 2.4906748,9.8899668 L 3.1653873,10.678275 C 3.397032,10.94892 3.9392237,10.231415 4.6579978,9.6104283 5.3767716,8.9894422 6.0030126,8.6974773 5.7713678,8.4268325 L 5.0966553,7.6385244 C 4.8650106,7.3678796 4.0948549,7.6497 3.3760811,8.2706861 3.3423883,8.2997941 3.307877,8.3279641 3.2756368,8.3574651 Z" color="#000" display="inline" opacity="1" overflow="visible" visibility="visible" style="marker:none"/><g id="g4001" transform="translate(2.3869301,0.84681638)"><g id="g4052" transform="matrix(1.0021201,0,0,0.97880788,1.2330309,-0.00978808)"><path id="path28" fill="#bebebe" fill-opacity="1" d="M 1.737,3.942 C 2.644,6.823 8.323,10.878 9.911,9.76 11.521,8.627 9.838,2.482 8.061,0.01" opacity=".5"/><path id="path30" fill="#bebebe" fill-opacity="1" d="M 1.737,3.943 C 2.131,5.194 3.692,6.655 5.344,8.12 5.686,7.322 6.587,5.694 9.901,4.278 9.29,2.606 8.703,0.904 8.061,0.01"/><path id="path32" fill="#bebebe" fill-opacity="1" d="M 1.737,3.943 C 1.748,3.977 1.76,4.011 1.773,4.046 L 8.119,0.093 C 8.1,0.065 8.081,0.036 8.062,0.01 L 1.738,3.943" opacity=".33"/><g id="g34" fill="url(#linearGradient4028)" fill-opacity="1" fill-rule="evenodd"><path id="path36" fill="#bebebe" fill-opacity="1" stroke="#bebebe" stroke-dasharray="none" stroke-miterlimit="4" stroke-opacity="1" stroke-width=".5" d="m 1.838,13.01 2.466,0 0,7.101 -2.466,0 z" transform="matrix(0.84502,-0.53474,0.53474,0.84502,0,0)"/></g></g><g id="g7038" transform="matrix(0.19922346,-0.171041,0.1713155,0.19890422,-7.3547031,12.222308)"><path id="path6617" fill="#bebebe" fill-opacity="1" fill-rule="nonzero" stroke="#bebebe" stroke-dasharray="none" stroke-dashoffset="0" stroke-linecap="round" stroke-linejoin="miter" stroke-miterlimit="4" stroke-opacity="1" stroke-width=".263" marker-end="none" marker-mid="none" marker-start="none" d="M 3.03125,8.1992188 C 2.5676682,8.3773697 1.6198049,9.190734 1.3359375,9.6542969 l 0.1328125,1.1542971 3.4472656,4.425781 3.5039063,-2.832031 -4.375,-4.0253909 z M 3.0546875,8.3027344 4.015625,8.4785156 C 3.1144213,8.8894786 1.7233869,10.181074 1.5839844,10.773438 L 1.4179688,9.7324219 C 1.8101637,9.2418112 2.4466687,8.5938979 3.0546875,8.3027344 Z m 1.6191406,0.7753906 1.2714844,1.193359 c -0.7514332,0.07352 -2.777363,1.876154 -2.9238281,2.375 L 1.9707031,11.308594 C 2.313388,10.594647 4.2320316,9.1276471 4.6738281,9.078125 Z" color="#000" display="inline" overflow="visible" transform="matrix(2.8856659,2.4814314,-2.4854138,2.8902973,51.600709,-17.075913)" visibility="visible" style="marker:none"/><rect stroke-miterlimit="4" style="marker:none" id="rect5742" width="19.974" height="3.928" x="26.513" y="37.536" fill="#bebebe" fill-opacity="1" fill-rule="nonzero" stroke="#bebebe" stroke-dasharray="none" stroke-dashoffset="0" stroke-linecap="round" stroke-linejoin="miter" stroke-opacity="1" stroke-width="1" marker-end="none" marker-mid="none" marker-start="none" color="#000" display="inline" opacity="1" overflow="visible" rx=".884" ry=".884" visibility="visible"/></g></g></g></svg>