<svg xmlns="http://www.w3.org/2000/svg" xmlns:svg="http://www.w3.org/2000/svg" id="svg11300" width="24" height="24" version="1.0" viewBox="0 0 24 24"><metadata id="metadata4"/><g id="layer1" transform="translate(0,8)"><g id="g4430"><path id="rect4014" fill="#bebebe" fill-opacity="1" stroke="none" stroke-dasharray="none" stroke-miterlimit="4" stroke-opacity="1" stroke-width=".905" d="M 2,-5 H 21 V 14 H 2 Z" opacity=".3"/><path id="rect4014-3" fill="#bebebe" fill-opacity="1" fill-rule="nonzero" stroke="none" stroke-dasharray="none" stroke-dashoffset="0" stroke-linecap="butt" stroke-linejoin="miter" stroke-miterlimit="4" stroke-opacity="1" stroke-width="1" d="M 0,1 V 1.5 2 H 1 V 1 Z M 2,1 V 2 H 3 V 1 Z M 4,1 V 2 H 5 V 1 Z M 6,1 V 2 H 7 V 1 Z M 8,1 V 2 H 9 V 1 Z m 2,0 v 1 h 1 V 1 Z m 2,0 v 1 h 1 V 1 Z m 2,0 v 1 h 1 V 1 Z m 2,0 v 1 h 1 V 1 Z m 2,0 v 1 h 1 V 1 Z m 2,0 v 1 h 1 V 1 Z m 2,0 v 1 h 1 V 1 Z M 0,3 V 4 H 1 V 3 Z m 22,0 v 1 h 1 V 3 Z M 0,5 V 6 H 1 V 5 Z m 22,0 v 1 h 1 V 5 Z M 0,7 V 8 H 1 V 7 Z m 22,0 v 1 h 1 V 7 Z M 0,9 v 1 H 1 V 9 Z m 22,0 v 1 h 1 V 9 Z M 0,11 v 1 h 1 v -1 z m 22,0 v 1 h 1 V 11 Z M 0,13 v 1 h 1 v -1 z m 22,0 v 1 h 1 V 13 Z M 0,15 v 1 h 1 v -1 z m 22,0 v 1 h 1 V 15 Z M 0,17 v 1 h 1 v -1 z m 22,0 v 1 h 1 V 17 Z M 0,19 v 1 h 1 v -1 z m 22,0 v 1 h 1 V 19 Z M 0,21 v 1 h 1 v -1 z m 22,0 v 1 h 1 V 21 Z M 0,23 v 1 h 1 v -1 z m 2,0 v 1 h 1 v -1 z m 2,0 v 1 h 1 v -1 z m 2,0 v 1 h 1 v -1 z m 2,0 v 1 h 1 v -1 z m 2,0 v 1 h 1 v -1 z m 2,0 v 1 h 1 v -1 z m 2,0 v 1 h 1 v -1 z m 2,0 v 1 h 1 v -1 z m 2,0 v 1 h 1 v -1 z m 2,0 v 1 h 1 v -1 z m 2,0 v 1 h 1 v -1 z" baseline-shift="baseline" clip-rule="nonzero" color="#000" color-interpolation="sRGB" color-interpolation-filters="linearRGB" color-rendering="auto" direction="ltr" display="inline" dominant-baseline="auto" enable-background="accumulate" font-family="sans-serif" font-size="medium" font-stretch="normal" font-style="normal" font-variant="normal" font-weight="normal" image-rendering="auto" letter-spacing="normal" opacity="1" overflow="visible" shape-rendering="auto" text-anchor="start" text-decoration="none" text-rendering="auto" transform="translate(0,-8)" visibility="visible" word-spacing="normal" writing-mode="lr-tb" style="line-height:normal;font-variant-ligatures:normal;font-variant-position:normal;font-variant-caps:normal;font-variant-numeric:normal;font-variant-alternates:normal;font-feature-settings:normal;text-indent:0;text-align:start;text-decoration-line:none;text-decoration-style:solid;text-decoration-color:#000;text-transform:none;text-orientation:mixed;white-space:normal;shape-padding:0;isolation:auto;mix-blend-mode:normal;solid-color:#000;solid-opacity:1"/></g></g></svg>