<svg xmlns="http://www.w3.org/2000/svg" xmlns:svg="http://www.w3.org/2000/svg" id="svg30571" width="24" height="24" version="1.1" viewBox="0 0 24 24"><metadata id="metadata30576"/><g id="layer1" transform="translate(0,-1028.3622)"><g id="g4302"><path id="path8587" fill="#bebebe" fill-opacity="1" stroke="none" stroke-width="2.697" d="M 12.000001,1030.8622 C 9.2415462,1030.8622 7,1033.1038 7,1035.8623 c 0,2.7585 2.2415462,4.9999 5.000001,4.9999 2.758453,0 4.999999,-2.2414 4.999999,-4.9999 0,-2.7585 -2.241546,-5.0001 -4.999999,-5.0001 z m 0,1.3178 c 2.036577,0 3.68217,1.6456 3.68217,3.6823 0,2.0365 -1.645593,3.6821 -3.68217,3.6821 -2.0365793,0 -3.6821716,-1.6456 -3.6821716,-3.6821 0,-2.0367 1.6455923,-3.6823 3.6821716,-3.6823 z" baseline-shift="baseline" color="#000" direction="ltr" display="inline" enable-background="new" font-family="Sans" font-size="medium" font-stretch="normal" font-style="normal" font-variant="normal" font-weight="normal" letter-spacing="normal" overflow="visible" text-anchor="start" text-decoration="none" visibility="visible" word-spacing="normal" writing-mode="lr-tb" style="line-height:normal;-inkscape-font-specification:Sans;text-indent:0;text-align:start;text-decoration-line:none;text-transform:none;marker:none"/><ellipse id="path14494" cx="7" cy="1044.362" fill="#bebebe" fill-opacity="1" stroke="none" stroke-width="1.048" opacity=".3" rx="2.5" ry="2.5"/><circle id="path14496" cx="17" cy="1044.362" r="2.5" fill="#bebebe" fill-opacity="1" stroke="none" stroke-width=".95"/><path id="rect28283-2" fill="#bebebe" fill-opacity="1" stroke="none" stroke-width="1.5" d="m 1.5,1028.3634 c -0.981675,0 -1.5,-0.097 -1.5,1.4998 v 20.998 c 0,1.5968 0.518325,1.4999 1.5,1.4999 H 12 22.5 c 0.950211,0 1.451003,0.024 1.5,-1.4999 v 0 -10.499 -10.499 0 c -0.04899,-1.5234 -0.549789,-1.4998 -1.5,-1.4998 H 12 Z m 3,0.9988 h 7.5 7.5 c 2.395889,0 3.5,1.1433 3.5,3.8007 v 14.3986 c 0,2.7017 -0.927335,3.8007 -3.5,3.8007 H 12 4.5 c -2.4196061,0 -3.5,-1.1538 -3.5,-4.2506 v -13.4987 c 0,-3.1878 1.0599247,-4.2507 3.5,-4.2507 z"/><path id="path8587-6" fill="#bebebe" fill-opacity="1" stroke="none" stroke-width="2.697" d="M 7.000001,1039.3622 C 4.2415462,1039.3622 2,1041.6038 2,1044.3623 c 0,2.7585 2.2415462,4.9999 5.000001,4.9999 2.758453,0 4.999999,-2.2414 4.999999,-4.9999 0,-2.7585 -2.241546,-5.0001 -4.999999,-5.0001 z m 0,1.3178 c 2.036577,0 3.68217,1.6456 3.68217,3.6823 0,2.0365 -1.645593,3.6821 -3.68217,3.6821 -2.0365793,0 -3.6821716,-1.6456 -3.6821716,-3.6821 0,-2.0367 1.6455923,-3.6823 3.6821716,-3.6823 z" baseline-shift="baseline" color="#000" direction="ltr" display="inline" enable-background="new" font-family="Sans" font-size="medium" font-stretch="normal" font-style="normal" font-variant="normal" font-weight="normal" letter-spacing="normal" overflow="visible" text-anchor="start" text-decoration="none" visibility="visible" word-spacing="normal" writing-mode="lr-tb" style="line-height:normal;-inkscape-font-specification:Sans;text-indent:0;text-align:start;text-decoration-line:none;text-transform:none;marker:none"/><path id="path8587-5" fill="#bebebe" fill-opacity="1" stroke="none" stroke-width="2.697" d="m 17.000001,1039.3622 c -2.758455,0 -5.000001,2.2416 -5.000001,5.0001 0,2.7585 2.241546,4.9999 5.000001,4.9999 2.758453,0 4.999999,-2.2414 4.999999,-4.9999 0,-2.7585 -2.241546,-5.0001 -4.999999,-5.0001 z m 0,1.3178 c 2.036577,0 3.68217,1.6456 3.68217,3.6823 0,2.0365 -1.645593,3.6821 -3.68217,3.6821 -2.03658,0 -3.682172,-1.6456 -3.682172,-3.6821 0,-2.0367 1.645592,-3.6823 3.682172,-3.6823 z" baseline-shift="baseline" color="#000" direction="ltr" display="inline" enable-background="new" font-family="Sans" font-size="medium" font-stretch="normal" font-style="normal" font-variant="normal" font-weight="normal" letter-spacing="normal" overflow="visible" text-anchor="start" text-decoration="none" visibility="visible" word-spacing="normal" writing-mode="lr-tb" style="line-height:normal;-inkscape-font-specification:Sans;text-indent:0;text-align:start;text-decoration-line:none;text-transform:none;marker:none"/></g></g></svg>